<?xml version="1.0" standalone="no"?>
<!DOCTYPE svg PUBLIC "-//W3C//DTD SVG 1.1//EN" "http://www.w3.org/Graphics/SVG/1.1/DTD/svg11.dtd" >
<svg xmlns="http://www.w3.org/2000/svg" xmlns:xlink="http://www.w3.org/1999/xlink" version="1.1">
<metadata>
Created by FontForge 20200314 at Tue Dec 22 19:53:11 2015
 By Unknown
Copyright (c) 2015 by Dieter Hofrichter. All rights reserved.
</metadata>
<defs>
<font id="HalifaxW03-Medium" horiz-adv-x="368" >
  <font-face 
    font-family="HalifaxW03-Medium"
    font-weight="500"
    font-stretch="normal"
    units-per-em="1000"
    panose-1="2 0 6 3 0 0 0 2 0 4"
    ascent="800"
    descent="-200"
    x-height="503"
    cap-height="706"
    bbox="-158 -301 1210 999"
    underline-thickness="50"
    underline-position="-125"
    unicode-range="U+0020-FB04"
  />
<missing-glyph horiz-adv-x="210" 
 />
    <glyph glyph-name="uniFB00" unicode="ff" horiz-adv-x="668" 
d="M209 0h-119v406h-66v97h66v36q0 80 19 121q14 29 41 47.5t58.5 24.5t58.5 6q55 0 92 -16v-103q-27 17 -70 17q-24 0 -43 -8.5t-27 -25.5q-10 -20 -10 -66v-33h101v-97h-101v-406zM543 0h-119v406h-62v97h62v51q0 80 20 123q37 79 157 79q51 0 91 -16v-105q-28 18 -69 18
q-24 0 -42.5 -8.5t-26.5 -24.5q-11 -21 -11 -72v-45h111v-97h-111v-406z" />
    <glyph glyph-name="uniFB01" unicode="fi" horiz-adv-x="593" 
d="M355 740v-101q-31 14 -66 14q-24 0 -42.5 -8.5t-27.5 -24.5q-10 -19 -10 -71v-46h116v-97h-116v-406h-119v406h-66v97h66v51q0 79 19 123q37 79 158 79q48 0 88 -16zM524 0h-119v503h119v-503zM530 662q0 -28 -19 -48t-48 -20q-26 0 -44 19t-18 47q0 29 18 48.5t47 19.5
q27 0 45.5 -19t18.5 -47z" />
    <glyph glyph-name="uniFB02" unicode="fl" horiz-adv-x="594" 
d="M209 0h-119v406h-66v97h66v51q0 79 19 123q37 79 158 79q47 0 84 -14v-102q-28 13 -62 13q-24 0 -42.5 -8.5t-26.5 -23.5q-11 -22 -11 -73v-45h116v-97h-116v-406zM524 0h-120v747h120v-747z" />
    <glyph glyph-name="uniFB03" unicode="ffi" horiz-adv-x="926" 
d="M209 0h-119v406h-66v97h66v36q0 80 19 121q14 29 41 47.5t58.5 24.5t58.5 6q55 0 92 -16v-103q-27 17 -70 17q-24 0 -43 -8.5t-27 -25.5q-10 -20 -10 -66v-33h101v-97h-101v-406zM690 740v-103q-29 16 -67 16q-24 0 -42.5 -8.5t-26.5 -24.5q-11 -21 -11 -72v-45h116v-97
h-116v-406h-119v406h-61v97h61v51q0 80 20 123q37 79 157 79q49 0 89 -16zM858 0h-119v503h119v-503zM863 662q0 -28 -19 -48t-47 -20q-27 0 -45 19t-18 47q0 29 18.5 48.5t47.5 19.5q27 0 45 -19t18 -47z" />
    <glyph glyph-name="uniFB04" unicode="ffl" horiz-adv-x="928" 
d="M209 0h-119v406h-66v97h66v36q0 80 19 121q14 29 41 47.5t58.5 24.5t58.5 6q55 0 92 -16v-103q-27 17 -70 17q-24 0 -43 -8.5t-27 -25.5q-10 -20 -10 -66v-33h101v-97h-101v-406zM543 0h-119v406h-62v97h62v51q0 80 20 123q37 79 157 79q47 0 84 -14v-103q-25 14 -62 14
q-24 0 -42.5 -8.5t-26.5 -23.5q-11 -22 -11 -73v-45h116v-97h-116v-406zM858 0h-119v747h119v-747z" />
    <glyph glyph-name="f_b.liga" unicode="fb" horiz-adv-x="912" 
d="M209 0h-119v406h-66v97h66v51q0 79 19 123q37 79 158 79q47 0 84 -14v-103q-25 14 -62 14q-24 0 -42.5 -8.5t-26.5 -23.5q-11 -22 -11 -73v-45h116v-97h-116v-406zM404 25v722h119v-290q26 27 64.5 42.5t79.5 15.5q101 0 154.5 -66.5t53.5 -182.5q0 -53 -14 -104.5
t-47 -90t-84.5 -61t-121.5 -22.5q-45 0 -98.5 8.5t-105.5 28.5zM523 101q16 -8 43.5 -14t54.5 -6q34 0 65.5 18.5t48.5 60t17 95.5q0 41 -12 79.5t-42 60.5t-68 22q-32 0 -62 -15t-45 -37v-264z" />
    <glyph glyph-name="f_f_b.liga" unicode="ffb" horiz-adv-x="1246" 
d="M209 0h-119v406h-66v97h66v36q0 80 19 121q14 29 41 47.5t58.5 24.5t58.5 6q55 0 92 -16v-103q-27 17 -70 17q-24 0 -43 -8.5t-27 -25.5q-10 -20 -10 -66v-33h101v-97h-101v-406zM543 0h-119v406h-61v97h61v51q0 80 20 123q37 79 157 79q47 0 84 -14v-103q-25 14 -62 14
q-24 0 -42.5 -8.5t-26.5 -23.5q-11 -22 -11 -73v-45h116v-97h-116v-406zM739 25v722h119v-290q25 27 63.5 42.5t79.5 15.5q101 0 154.5 -66.5t53.5 -182.5q0 -53 -14 -104.5t-47 -90t-84.5 -61t-121.5 -22.5q-45 0 -98 8.5t-105 28.5zM858 101q15 -8 42.5 -14t54.5 -6
q57 0 94 44t37 130q0 41 -12 79.5t-42 60.5t-67 22q-33 0 -62 -15t-45 -37v-264z" />
    <glyph glyph-name="f_f_h.liga" unicode="ffh" horiz-adv-x="1247" 
d="M209 0h-119v406h-66v97h66v36q0 80 19 121q14 29 41 47.5t58.5 24.5t58.5 6q55 0 92 -16v-103q-27 17 -70 17q-24 0 -43 -8.5t-27 -25.5q-10 -20 -10 -66v-33h101v-97h-101v-406zM543 0h-119v406h-62v97h62v51q0 80 20 123q37 79 157 79q47 0 84 -14v-103q-25 14 -62 14
q-24 0 -42.5 -8.5t-26.5 -23.5q-11 -22 -11 -73v-45h116v-97h-116v-406zM858 0h-119v747h119v-300q25 31 67.5 50.5t88.5 19.5q52 0 89.5 -21t53.5 -62q23 -55 23 -159v-275h-120v271q0 74 -9 96q-10 23 -29.5 34t-52.5 11t-62 -16.5t-49 -44.5v-351z" />
    <glyph glyph-name="f_f_j.liga" unicode="ffj" horiz-adv-x="927" 
d="M209 0h-119v406h-66v97h66v36q0 80 19 121q14 29 41 47.5t58.5 24.5t58.5 6q55 0 92 -16v-103q-27 17 -70 17q-24 0 -43 -8.5t-27 -25.5q-10 -20 -10 -66v-33h101v-97h-101v-406zM690 740v-104q-28 17 -67 17q-24 0 -42.5 -8.5t-26.5 -24.5q-11 -21 -11 -72v-45h116v-97
h-116v-406h-119v406h-62v97h62v51q0 80 20 123q37 79 157 79q49 0 89 -16zM675 -238l-41 94q20 9 43 23.5t33 25.5q12 13 20.5 35t8.5 69v494h119v-503q0 -97 -33 -137q-21 -26 -56.5 -50.5t-93.5 -50.5zM863 662q0 -28 -19 -48t-47 -20q-27 0 -45 19t-18 47q0 29 18.5 48.5
t47.5 19.5q27 0 45 -19t18 -47z" />
    <glyph glyph-name="f_f_k.liga" unicode="ffk" horiz-adv-x="1212" 
d="M209 0h-119v406h-66v97h66v36q0 80 19 121q14 29 41 47.5t58.5 24.5t58.5 6q55 0 92 -16v-103q-27 17 -70 17q-24 0 -43 -8.5t-27 -25.5q-10 -20 -10 -66v-33h101v-97h-101v-406zM543 0h-119v406h-62v97h62v51q0 80 20 123q37 79 157 79q47 0 84 -14v-103q-25 14 -62 14
q-24 0 -42.5 -8.5t-26.5 -23.5q-11 -22 -11 -73v-45h116v-97h-116v-406zM858 0h-119v747h119v-437l184 193h144l-221 -220l245 -283h-148l-204 244v-244z" />
    <glyph glyph-name="f_h.liga" unicode="fh" horiz-adv-x="912" 
d="M209 0h-119v406h-66v97h66v51q0 79 19 123q37 79 158 79q47 0 84 -14v-103q-25 14 -62 14q-24 0 -42.5 -8.5t-26.5 -23.5q-11 -22 -11 -73v-45h116v-97h-116v-406zM524 0h-119v747h119v-300q25 31 67.5 50.5t88.5 19.5q52 0 89 -21t54 -62q9 -22 15.5 -56t6.5 -103v-275
h-119v271q0 72 -10 96q-17 45 -81 45q-33 0 -62 -16.5t-49 -44.5v-351z" />
    <glyph glyph-name="f_j.liga" unicode="fj" horiz-adv-x="593" 
d="M355 740v-104q-28 17 -66 17q-24 0 -42.5 -8.5t-26.5 -24.5q-11 -21 -11 -72v-45h116v-97h-116v-406h-119v406h-66v97h66v51q0 79 19 123q37 79 158 79q48 0 88 -16zM340 -238l-41 94q19 8 43 23t34 26q12 13 20 34.5t8 69.5v494h120v-503q0 -97 -33 -137
q-22 -26 -57 -50.5t-94 -50.5zM529 662q0 -28 -19 -48t-48 -20q-26 0 -44 19t-18 47q0 29 18 48.5t47 19.5q27 0 45.5 -19t18.5 -47z" />
    <glyph glyph-name="f_k.liga" unicode="fk" horiz-adv-x="878" 
d="M209 0h-119v406h-66v97h66v51q0 79 19 123q37 79 158 79q47 0 84 -14v-103q-25 14 -62 14q-24 0 -42.5 -8.5t-26.5 -23.5q-11 -22 -11 -73v-45h116v-97h-116v-406zM524 0h-119v747h119v-437l184 193h144l-221 -220l245 -283h-148l-204 244v-244z" />
    <glyph glyph-name=".notdef" horiz-adv-x="210" 
 />
    <glyph glyph-name=".null" horiz-adv-x="0" 
 />
    <glyph glyph-name="nonmarkingreturn" horiz-adv-x="333" 
 />
    <glyph glyph-name="space" unicode=" " horiz-adv-x="210" 
 />
    <glyph glyph-name="exclam" unicode="!" horiz-adv-x="283" 
d="M207 235h-99q-17 325 -17 471h132q0 -146 -16 -471zM232 70q0 -32 -22.5 -55t-55.5 -23q-32 0 -53 22t-21 54q0 33 22.5 56t54.5 23t53.5 -22t21.5 -55z" />
    <glyph glyph-name="quotedbl" unicode="&#x22;" horiz-adv-x="348" 
d="M127 468h-66q-11 151 -14 279h94q-3 -127 -14 -279zM287 468h-65q-13 170 -15 279h94q-3 -127 -14 -279z" />
    <glyph glyph-name="numbersign" unicode="#" horiz-adv-x="552" 
d="M167 -14h-51l26 192h-98v100h112l16 118h-107v100h120l26 184h50l-25 -184h127l25 184h50l-25 -184h95v-100h-108l-16 -118h104v-100h-118l-25 -192h-51l26 192h-127zM222 396l-16 -118h127l16 118h-127z" />
    <glyph glyph-name="dollar" unicode="$" horiz-adv-x="572" 
d="M327 -86h-69v79q-55 3 -106 21.5t-87 44.5v126q39 -34 91.5 -55t101.5 -26v196l-35 15q-84 33 -120 77.5t-36 113.5q0 79 49 128.5t142 59.5v79h69v-78q44 -4 86 -16.5t69 -31.5v-123q-33 25 -75.5 41t-79.5 21v-190l24 -10q86 -36 126.5 -78.5t40.5 -117.5
q0 -78 -48.5 -131t-142.5 -64v-81zM393 186q0 27 -15.5 47.5t-50.5 37.5v-164q33 8 49.5 29t16.5 50zM192 508q0 -23 11.5 -43.5t54.5 -40.5v160q-33 -7 -49.5 -28t-16.5 -48z" />
    <glyph glyph-name="percent" unicode="%" horiz-adv-x="825" 
d="M343 482q0 -53 -16.5 -102.5t-54.5 -77t-88 -27.5q-51 0 -86 25t-54 71t-19 111q0 68 20.5 115.5t56 73t85.5 25.5q156 0 156 -214zM257 483q0 69 -16.5 102.5t-55.5 33.5q-35 0 -53.5 -35.5t-18.5 -102.5t19 -99.5t53 -32.5q72 0 72 134zM272 -12h-61l347 713h60z
M800 200q0 -53 -16.5 -102.5t-54 -77t-87.5 -27.5q-52 0 -87 25t-54 71t-19 111q0 68 20.5 115.5t56 73t85.5 25.5q156 0 156 -214zM714 201q0 69 -16.5 102.5t-54.5 33.5q-13 0 -30 -8.5t-29.5 -40t-12.5 -89.5q0 -132 72 -132q71 0 71 134z" />
    <glyph glyph-name="ampersand" unicode="&#x26;" horiz-adv-x="702" 
d="M534 0l-61 59q-90 -71 -202 -71q-63 0 -109 19t-70.5 44.5t-39.5 58.5t-15 78q0 72 40 118.5t116 82.5q-49 67 -49 138q0 25 8.5 52.5t30 52t59 42t92.5 17.5q57 0 96.5 -19t59.5 -50.5t20 -75.5q0 -46 -22 -83t-55 -61.5t-63 -40.5q53 -66 122 -138q28 29 75 108
l100 -61q-44 -74 -99 -134l129 -136h-163zM311 434q47 25 66.5 49t19.5 54q0 26 -17 42t-46 16q-33 0 -51 -17.5t-18 -46.5q0 -25 13.5 -50.5t32.5 -46.5zM254 310q-47 -22 -67.5 -48.5t-20.5 -66.5q0 -26 13 -49t37 -36t60 -13q35 0 68 12t58 33q-91 96 -148 168z" />
    <glyph glyph-name="quotesingle" unicode="'" horiz-adv-x="187" 
d="M127 468h-66q-11 151 -14 279h94q-3 -127 -14 -279z" />
    <glyph glyph-name="parenleft" unicode="(" horiz-adv-x="331" 
d="M252 -154q-103 82 -158 196.5t-55 254.5q0 103 26 188t72.5 153t113.5 117h83q-98 -85 -148.5 -197.5t-50.5 -259.5q0 -260 199 -452h-82z" />
    <glyph glyph-name="parenright" unicode=")" horiz-adv-x="331" 
d="M80 755q103 -77 157.5 -195.5t54.5 -259.5q0 -140 -53.5 -255.5t-159.5 -198.5h-82q198 185 198 454q0 277 -198 455h83z" />
    <glyph glyph-name="asterisk" unicode="*" horiz-adv-x="438" 
d="M379 623l19 -68l-133 -40q38 -44 89 -112l-58 -40q-51 70 -78 115q-52 -80 -78 -115l-56 39q45 63 86 114q-52 13 -130 41l21 65q68 -21 128 -47q-6 88 -6 140h73q0 -66 -6 -141q53 22 129 49z" />
    <glyph glyph-name="plus" unicode="+" horiz-adv-x="701" 
d="M391 34h-81v221h-210v80h210v219h81v-219h210v-80h-210v-221z" />
    <glyph glyph-name="comma" unicode="," horiz-adv-x="247" 
d="M90 -161h-93q83 137 84 314h113q0 -69 -16.5 -134t-41.5 -109.5t-46 -70.5z" />
    <glyph glyph-name="hyphen" unicode="-" horiz-adv-x="346" 
d="M302 212h-256v94h256v-94z" />
    <glyph glyph-name="period" unicode="." horiz-adv-x="234" 
d="M200 70q0 -32 -23 -55t-56 -23q-32 0 -53 22t-21 54q0 33 22.5 56t55.5 23q31 0 53 -22t22 -55z" />
    <glyph glyph-name="slash" unicode="/" horiz-adv-x="362" 
d="M55 -57h-67l313 788h67z" />
    <glyph glyph-name="zero" unicode="0" horiz-adv-x="559" 
d="M528 339q0 -70 -14.5 -133.5t-44.5 -112.5t-78 -77t-111 -28q-47 0 -93 19t-80.5 63t-54.5 111.5t-20 157.5q0 74 15.5 140t46.5 115.5t79.5 78t110.5 28.5q244 0 244 -362zM405 341q0 123 -29 184.5t-94 61.5q-61 0 -92.5 -64t-31.5 -186q0 -71 12.5 -124t40.5 -82.5
t72 -29.5q122 0 122 240z" />
    <glyph glyph-name="one" unicode="1" horiz-adv-x="559" 
d="M367 0h-129v540l-131 -58v120l260 105v-707z" />
    <glyph glyph-name="two" unicode="2" horiz-adv-x="559" 
d="M513 0h-489q151 175 193 225.5t69 88.5q31 43 48.5 84.5t17.5 74.5q0 56 -32 85t-88 29q-87 0 -175 -71v114q93 71 205 71q104 0 158 -54.5t54 -148.5q0 -54 -19 -106t-63 -109q-58 -76 -147 -172q21 2 268 2v-113z" />
    <glyph glyph-name="three" unicode="3" horiz-adv-x="559" 
d="M55 31v118q39 -26 88.5 -38t96.5 -12q67 0 96 30t29 77q0 34 -21.5 58.5t-63.5 31.5q-34 6 -94 6h-22v103h22q63 0 90 9q31 12 48 34t17 50q0 40 -27 65t-83 25q-42 0 -84.5 -13t-77.5 -38v107q32 24 84 40.5t103 16.5q100 0 152.5 -47.5t52.5 -132.5q0 -52 -31 -95.5
t-97 -62.5q79 -13 116.5 -56.5t37.5 -110.5q0 -46 -16.5 -84.5t-48.5 -66t-79.5 -42.5t-107.5 -15q-48 0 -98.5 12t-81.5 31z" />
    <glyph glyph-name="four" unicode="4" horiz-adv-x="559" 
d="M445 0h-121v182h-294v80l309 427h106v-411h92v-96h-92v-182zM324 278q0 210 2 256q-5 -7 -17 -25.5t-42 -62.5t-119 -168h176z" />
    <glyph glyph-name="five" unicode="5" horiz-adv-x="559" 
d="M62 29v123q81 -52 176 -52q41 0 74.5 14.5t49.5 44t16 63.5q0 56 -37 83t-98 27q-38 0 -82.5 -8t-77.5 -23l36 388h346v-113h-256l-17 -164q17 8 44.5 12.5t53.5 4.5q68 0 115 -25.5t71.5 -70t24.5 -109.5q0 -112 -67.5 -174t-187.5 -62q-114 0 -184 41z" />
    <glyph glyph-name="six" unicode="6" horiz-adv-x="559" 
d="M166 357q22 39 65.5 62.5t96.5 23.5q42 0 78.5 -13.5t63 -40t41 -67.5t14.5 -94q0 -55 -16.5 -100t-47 -76t-73 -47.5t-93.5 -16.5q-54 0 -100 20t-79.5 61.5t-52 107t-18.5 150.5q0 94 23 166t63 118t92.5 68t111.5 22q49 0 84.5 -8t64.5 -28v-123q-57 44 -139 44
q-91 0 -134 -58.5t-45 -170.5zM172 257q2 -50 21 -94q13 -31 39.5 -49t61.5 -18q29 0 56 14.5t41.5 46t14.5 72.5q0 63 -30.5 91.5t-79.5 28.5q-46 0 -80 -26.5t-44 -65.5z" />
    <glyph glyph-name="seven" unicode="7" horiz-adv-x="559" 
d="M259 0h-126l236 576h-326v113h486z" />
    <glyph glyph-name="eight" unicode="8" horiz-adv-x="559" 
d="M161 357q-50 21 -75.5 61.5t-25.5 92.5q0 54 30 99.5t83.5 68t108.5 22.5q72 0 121.5 -24.5t75 -65.5t25.5 -98q0 -36 -15 -69.5t-40.5 -54.5t-50.5 -30q61 -17 91.5 -63t30.5 -104q0 -45 -17 -83t-49.5 -65t-78 -41.5t-99.5 -14.5q-47 0 -90 12t-75.5 37t-51.5 63
t-19 87q0 58 32 104t89 66zM395 501q0 46 -30.5 73t-82.5 27q-34 0 -62.5 -15.5t-40 -39t-11.5 -45.5q0 -44 29.5 -73.5t83.5 -29.5q53 0 83.5 28t30.5 75zM406 203q0 53 -34 80t-90 27q-27 0 -57 -10t-49.5 -37t-19.5 -62q0 -54 36.5 -82t86.5 -28q54 0 90.5 29t36.5 83z
" />
    <glyph glyph-name="nine" unicode="9" horiz-adv-x="559" 
d="M394 331q-19 -34 -65 -59t-98 -25q-42 0 -78 13t-62.5 40t-41 67.5t-14.5 93.5q0 55 17 100t48 76t74 47.5t94 16.5q55 0 100 -20t78 -61.5t51 -106.5t18 -151q0 -96 -22.5 -168.5t-61.5 -117.5t-92 -66.5t-113 -21.5q-50 0 -88 8t-66 28v123q55 -44 144 -44
q58 0 99.5 24t59.5 77.5t19 126.5zM388 432q-2 53 -18 93q-14 32 -40 50t-62 18q-22 0 -46 -9.5t-40 -30t-22 -45t-6 -48.5q0 -61 30 -91.5t80 -30.5q45 0 79.5 27t44.5 67z" />
    <glyph glyph-name="colon" unicode=":" horiz-adv-x="254" 
d="M220 70q0 -32 -23 -55t-56 -23q-32 0 -53 22t-21 54q0 33 22.5 56t55.5 23q31 0 53 -22t22 -55zM220 424q0 -32 -23 -55.5t-56 -23.5q-32 0 -53 22.5t-21 54.5q0 33 22.5 55.5t55.5 22.5q31 0 53 -21.5t22 -54.5z" />
    <glyph glyph-name="semicolon" unicode=";" horiz-adv-x="254" 
d="M220 424q0 -32 -23 -55.5t-56 -23.5q-32 0 -53 22.5t-21 54.5q0 33 22.5 55.5t55.5 22.5q31 0 53 -21.5t22 -54.5zM104 -161h-92q83 140 84 314h113q0 -93 -29 -175t-76 -139z" />
    <glyph glyph-name="less" unicode="&#x3c;" horiz-adv-x="701" 
d="M571 38l-454 218v78l454 223v-92l-365 -169l365 -165v-93z" />
    <glyph glyph-name="equal" unicode="=" horiz-adv-x="701" 
d="M100 441h501v-81h-501v81zM100 230h501v-81h-501v81z" />
    <glyph glyph-name="greater" unicode="&#x3e;" horiz-adv-x="701" 
d="M129 557l454 -218v-79l-454 -222v92l366 169l-366 165v93z" />
    <glyph glyph-name="question" unicode="?" horiz-adv-x="430" 
d="M235 235h-99q0 48 9 80t37 59q49 48 68 78.5t19 61.5q0 16 -6.5 36t-24 33t-33.5 16t-28 3q-36 0 -71.5 -12.5t-62.5 -35.5v115q31 24 75 37t91 13q52 0 89 -14.5t57 -35t32.5 -49t12.5 -70.5q0 -52 -26.5 -100t-88.5 -101q-26 -22 -36.5 -47.5t-13.5 -66.5zM262 70
q0 -33 -22.5 -55.5t-56.5 -22.5q-32 0 -52.5 22t-20.5 54q0 33 22 56t55 23q31 0 53 -22t22 -55z" />
    <glyph glyph-name="at" unicode="@" horiz-adv-x="791" 
d="M471 113q-58 -62 -139 -62q-59 0 -89.5 36t-30.5 99q0 51 18 100.5t53 89t86 62.5t114 23q25 0 57.5 -5.5t57.5 -14.5l-50 -237q-9 -41 -9 -63q0 -15 9 -23.5t24 -8.5q27 0 57.5 31.5t49 88.5t18.5 114q0 120 -67.5 183.5t-184.5 63.5q-69 0 -131.5 -28.5t-109.5 -79
t-73.5 -119.5t-26.5 -146q0 -64 20 -119.5t58.5 -95.5t93.5 -62t122 -22q59 0 119.5 15t139.5 60v-57q-116 -69 -267 -69q-76 0 -140.5 25t-110.5 71.5t-70.5 111.5t-24.5 141q0 86 31 164t86.5 136t129.5 90.5t156 32.5q139 0 222 -78t83 -211q0 -58 -15.5 -112.5
t-43 -96.5t-64.5 -65.5t-78 -23.5q-68 0 -80 61zM466 167l50 228q-28 5 -48 5q-31 0 -63 -12.5t-57.5 -41t-42 -69.5t-16.5 -88q0 -34 18 -53t50 -19q54 0 109 50z" />
    <glyph glyph-name="A" unicode="A" horiz-adv-x="675" 
d="M145 0h-140l270 706h124l271 -706h-136l-71 180h-249zM249 292h178q-4 12 -15.5 42t-32.5 88t-41 118q-18 -55 -89 -248z" />
    <glyph glyph-name="B" unicode="B" horiz-adv-x="655" 
d="M80 0v706h218q84 0 130 -13q62 -16 98 -58.5t36 -102.5q0 -115 -103 -161q153 -26 153 -170q0 -43 -16.5 -80.5t-43.5 -60.5t-52 -34q-20 -9 -64 -17.5t-114 -8.5h-242zM211 113h104q80 0 104 10q58 23 58 92q0 32 -19 56t-53 32q-26 6 -92 6h-102v-196zM211 414h88
q65 0 90 14q21 12 32 34t11 45q0 25 -10.5 45t-32.5 29q-30 13 -88 13h-90v-180z" />
    <glyph glyph-name="C" unicode="C" horiz-adv-x="662" 
d="M614 45q-88 -57 -225 -57q-73 0 -137 25t-111.5 72.5t-74 115.5t-26.5 149t26.5 150t75 118t113.5 75.5t138 26.5q145 0 221 -55v-129q-38 34 -90 50.5t-106 16.5q-109 0 -175.5 -67t-66.5 -184q0 -60 19 -107t53 -78.5t79 -47t95 -15.5q100 0 192 61v-120z" />
    <glyph glyph-name="D" unicode="D" horiz-adv-x="719" 
d="M80 0v706h176q162 0 234 -31q189 -79 189 -315q0 -121 -52 -205.5t-156 -123.5q-86 -31 -235 -31h-156zM211 119h58q113 0 163 25q54 27 83 81t29 132q0 69 -26.5 122t-80.5 82q-45 26 -154 26h-72v-468z" />
    <glyph glyph-name="E" unicode="E" horiz-adv-x="556" 
d="M521 0h-441v706h423v-120h-292v-164h271v-117h-271v-185h310v-120z" />
    <glyph glyph-name="F" unicode="F" horiz-adv-x="528" 
d="M211 0h-131v706h417v-120h-286v-178h265v-118h-265v-290z" />
    <glyph glyph-name="G" unicode="G" horiz-adv-x="718" 
d="M658 49q-45 -26 -117.5 -43.5t-147.5 -17.5q-77 0 -142.5 26t-112.5 74t-72.5 116t-25.5 147q0 81 26.5 150t75 117.5t113.5 75t139 26.5q156 0 235 -57v-129q-77 69 -210 69q-39 0 -81 -11.5t-82 -44.5t-60 -85.5t-20 -109.5q0 -43 12 -87.5t45 -84t81.5 -58t97.5 -18.5
q65 0 119 23v128h-133v121h260v-327z" />
    <glyph glyph-name="H" unicode="H" horiz-adv-x="717" 
d="M637 0h-130v303h-296v-303h-131v706h131v-282h296v282h130v-706z" />
    <glyph glyph-name="I" unicode="I" horiz-adv-x="291" 
d="M211 0h-131v706h131v-706z" />
    <glyph glyph-name="J" unicode="J" horiz-adv-x="294" 
d="M1 -197l-42 103q76 36 98 64q26 31 26 101v635h131v-629q0 -116 -47 -169q-52 -61 -166 -105z" />
    <glyph glyph-name="K" unicode="K" horiz-adv-x="642" 
d="M211 0h-131v706h131v-303q3 3 10.5 12.5t76.5 100t158 190.5h155l-280 -330l308 -376h-163q-54 61 -104.5 123t-102 131.5t-58.5 78.5v-333z" />
    <glyph glyph-name="L" unicode="L" horiz-adv-x="537" 
d="M517 0h-437v706h131v-585h306v-121z" />
    <glyph glyph-name="M" unicode="M" horiz-adv-x="826" 
d="M209 0h-129v706h141q171 -272 191 -308q50 83 194 308h139v-706h-129q0 395 3 516q-24 -39 -208 -320q-171 267 -204 320q2 -80 2 -516z" />
    <glyph glyph-name="N" unicode="N" horiz-adv-x="739" 
d="M206 0h-126v706h120q9 -12 28 -38.5t143.5 -199.5t165.5 -236q-3 122 -3 474h125v-706h-110q-210 301 -263.5 378.5t-81.5 120.5q2 -62 2 -499z" />
    <glyph glyph-name="O" unicode="O" horiz-adv-x="765" 
d="M725 358q0 -83 -25 -152t-71.5 -117.5t-111 -74.5t-139.5 -26q-73 0 -135.5 26t-108 74t-70 116.5t-24.5 148.5t25.5 148t72 116.5t111 75t139.5 26.5q76 0 139.5 -26.5t107.5 -75.5t67 -115.5t23 -143.5zM590 350q0 60 -14.5 107.5t-41.5 79.5t-64.5 48.5t-82.5 16.5
q-94 0 -152.5 -65t-58.5 -183q0 -58 15 -105.5t43 -79.5t66 -48.5t83 -16.5q94 0 150.5 64.5t56.5 181.5z" />
    <glyph glyph-name="P" unicode="P" horiz-adv-x="613" 
d="M211 0h-131v706h180q100 0 151 -12q78 -17 121 -69t43 -140q0 -34 -10.5 -75t-40 -75.5t-73.5 -53.5q-69 -28 -186 -28h-54v-253zM211 364h54q71 0 111 15q31 12 47 38t16 61q0 42 -23 68t-65 35q-32 8 -96 8h-44v-225z" />
    <glyph glyph-name="Q" unicode="Q" horiz-adv-x="765" 
d="M725 358q0 -74 -20 -137t-61 -115t-106 -84q86 -49 205 -84l-40 -102q-78 21 -172 68.5t-142 84.5l-11 -1q-73 0 -135.5 26t-108 74t-70 116.5t-24.5 148.5t25.5 148t72 116.5t111 75t139.5 26.5q76 0 139.5 -26.5t107.5 -75.5t67 -115.5t23 -143.5zM590 350
q0 60 -14.5 107.5t-41.5 79.5t-64.5 48.5t-82.5 16.5q-94 0 -152.5 -65t-58.5 -183q0 -58 15 -105.5t43 -79.5t66 -48.5t83 -16.5q94 0 150.5 64.5t56.5 181.5z" />
    <glyph glyph-name="R" unicode="R" horiz-adv-x="641" 
d="M211 0h-131v706h173q110 0 161 -12q74 -17 111 -62t37 -121q0 -131 -132 -184q39 -17 72.5 -67t135.5 -260h-145q-74 151 -103.5 202t-55.5 68q-8 6 -25.5 9.5t-35.5 3.5h-62v-283zM211 391h79q45 0 71 9q66 25 66 98q0 27 -11 48.5t-33 32.5t-45 14q-25 4 -86 4h-41
v-206z" />
    <glyph glyph-name="S" unicode="S" horiz-adv-x="559" 
d="M42 57v134q46 -40 113.5 -64t123.5 -24q60 0 88.5 22t28.5 61q0 28 -22 50t-73 44l-90 38q-89 37 -127.5 84t-38.5 120q0 90 64.5 143.5t184.5 53.5q52 0 106.5 -14t89.5 -37v-131q-40 31 -97.5 49.5t-107.5 18.5q-25 0 -51.5 -7.5t-41.5 -27t-15 -44.5q0 -24 13.5 -44
t68.5 -44l90 -38q53 -23 93 -48.5t63.5 -62t23.5 -98.5q0 -43 -15.5 -80t-47.5 -64.5t-81 -43t-112 -15.5q-67 0 -129 20t-102 49z" />
    <glyph glyph-name="T" unicode="T" horiz-adv-x="588" 
d="M358 0h-132v586h-201v120h537v-120h-204v-586z" />
    <glyph glyph-name="U" unicode="U" horiz-adv-x="730" 
d="M73 706h130v-406q0 -72 14 -113q11 -30 36.5 -50t55.5 -26.5t55 -6.5q124 0 152 92q11 40 11 109v401h130v-405q0 -105 -28 -170q-27 -68 -96.5 -105.5t-171.5 -37.5q-58 0 -107.5 13.5t-90 43t-62.5 80.5q-28 65 -28 170v411z" />
    <glyph glyph-name="V" unicode="V" horiz-adv-x="672" 
d="M397 0h-121l-271 706h141q170 -457 194 -529q29 88 193 529h135z" />
    <glyph glyph-name="W" unicode="W" horiz-adv-x="998" 
d="M334 0h-118l-205 706h137q116 -409 143 -517q3 13 9 35t25 88t124 394h107q4 -13 15.5 -48.5t68 -210t78.5 -260.5q2 11 8 37t27 107t103 375h133l-208 -706h-117q-71 217 -108.5 334t-56.5 189q-20 -75 -165 -523z" />
    <glyph glyph-name="X" unicode="X" horiz-adv-x="709" 
d="M159 0h-151l256 376l-228 330h158q18 -25 42.5 -60.5t49.5 -72t49 -72t31 -45.5q56 93 165 250h145l-231 -336l257 -370h-159q-56 79 -94.5 134t-67 97.5t-33.5 49.5q-3 -5 -10 -15t-50 -74.5t-129 -191.5z" />
    <glyph glyph-name="Y" unicode="Y" horiz-adv-x="658" 
d="M393 0h-131v291l-258 415h154q108 -176 172 -291q58 102 183 291h142l-262 -415v-291z" />
    <glyph glyph-name="Z" unicode="Z" horiz-adv-x="642" 
d="M613 0h-607q341 523 380 587l-332 -1v120h563l-377 -587q48 1 373 1v-120z" />
    <glyph glyph-name="bracketleft" unicode="[" horiz-adv-x="272" 
d="M261 -156h-190v904h190v-63h-98v-777h98v-64z" />
    <glyph glyph-name="backslash" unicode="\" horiz-adv-x="362" 
d="M373 -57h-66l-313 788h66z" />
    <glyph glyph-name="bracketright" unicode="]" horiz-adv-x="272" 
d="M10 754h190v-905h-190v64h99v777h-99v64z" />
    <glyph glyph-name="asciicircum" unicode="^" horiz-adv-x="716" 
d="M596 312h-93l-146 301l-145 -301h-92l194 394h87z" />
    <glyph glyph-name="underscore" unicode="_" horiz-adv-x="445" 
d="M0 -80h445v-39h-445v39z" />
    <glyph glyph-name="grave" unicode="`" horiz-adv-x="179" 
d="M209 578h-90l-148 170h125z" />
    <glyph glyph-name="a" unicode="a" horiz-adv-x="515" 
d="M448 0h-113v50q-57 -60 -140 -60q-25 0 -52 7.5t-49.5 26t-38 47.5t-15.5 67q0 37 16.5 68t46.5 49q70 42 229 51v16q0 39 -15 61q-19 29 -74 29q-46 0 -91.5 -15.5t-80.5 -44.5v102q35 29 86 45.5t99 16.5q130 0 172 -87q20 -41 20 -135v-294zM332 117v111
q-108 -7 -149 -32q-14 -8 -21.5 -22.5t-7.5 -29.5q0 -27 16 -43t35 -19t27 -3q54 0 100 38z" />
    <glyph glyph-name="b" unicode="b" horiz-adv-x="577" 
d="M70 25v722h119v-290q26 27 64 42.5t80 15.5q50 0 89.5 -17.5t65.5 -50t39.5 -79t13.5 -102.5q0 -53 -14 -104.5t-47 -90t-84.5 -61t-121.5 -22.5q-45 0 -98.5 8.5t-105.5 28.5zM189 101q16 -8 43 -14t55 -6q34 0 65 18.5t48 60t17 95.5q0 41 -12 79.5t-41.5 60.5
t-67.5 22q-33 0 -62 -15t-45 -37v-264z" />
    <glyph glyph-name="c" unicode="c" horiz-adv-x="472" 
d="M440 29q-62 -41 -152 -41q-56 0 -103 18.5t-80 53t-50.5 83.5t-17.5 108q0 56 19 105.5t54 85t83 55t103 19.5q90 0 143 -40v-116q-30 25 -60.5 37t-66.5 12q-70 0 -110.5 -44.5t-40.5 -110.5q0 -47 17.5 -81.5t51.5 -55t83 -20.5q34 0 67 12t60 31v-111z" />
    <glyph glyph-name="d" unicode="d" horiz-adv-x="581" 
d="M511 0h-117v48q-25 -29 -64.5 -44.5t-85.5 -15.5q-95 0 -152 69t-57 183q0 59 16 110t46.5 88t75.5 57t100 20q36 0 68.5 -10t49.5 -28v270h120v-747zM391 135v241q-13 20 -39 32t-59 12q-36 0 -68 -19t-49.5 -60t-17.5 -94q0 -54 16.5 -92.5t45.5 -54.5t59 -16
q33 0 64.5 15t47.5 36z" />
    <glyph glyph-name="e" unicode="e" horiz-adv-x="526" 
d="M488 36q-88 -48 -189 -48q-122 0 -192 70.5t-70 194.5q0 58 17.5 107t50 84t77 53.5t96.5 18.5q40 0 79.5 -12t69.5 -41.5t48 -77.5t18 -118v-42h-333q3 -68 46.5 -101t116.5 -33q39 0 85 15.5t80 41.5v-112zM161 305h216q0 117 -99 117q-24 0 -51 -11.5t-46 -40.5
t-20 -65z" />
    <glyph glyph-name="f" unicode="f" horiz-adv-x="334" 
d="M209 0h-119v406h-66v97h66v51q0 78 19 122q19 40 60.5 60t97.5 20q10 0 38 -2.5t53 -13.5v-103q-32 16 -73 16q-20 0 -38.5 -7.5t-25.5 -23.5q-12 -23 -12 -72v-47h111v-97h-111v-406z" />
    <glyph glyph-name="g" unicode="g" horiz-adv-x="519" 
d="M158 167q-28 9 -56.5 30t-45.5 56t-17 76q0 83 58.5 134t154.5 51q53 0 87 -11h168v-97h-75q23 -30 23 -74q0 -98 -79 -140q-40 -21 -119 -39q-26 -6 -41.5 -17.5t-15.5 -26.5q0 -19 28 -25q18 -3 74 -8t81 -9q119 -18 119 -133q0 -29 -12.5 -60t-43.5 -58t-83.5 -45.5
t-125.5 -18.5q-100 0 -160 36.5t-60 100.5q0 44 31 72.5t91 47.5q-29 8 -43.5 26.5t-14.5 41.5q0 26 20 49.5t57 40.5zM341 329q0 44 -24.5 68t-69.5 24q-18 0 -40 -8.5t-38 -31t-16 -51.5q0 -40 25.5 -63.5t67.5 -23.5q30 0 53.5 13t32.5 33.5t9 39.5zM384 -82
q0 18 -10.5 28.5t-34.5 18.5q-16 5 -45 8t-55 3q-48 0 -77 -18t-29 -49q0 -14 10 -29.5t38 -25.5t67 -10q60 0 98 20t38 54z" />
    <glyph glyph-name="h" unicode="h" horiz-adv-x="571" 
d="M189 0h-119v747h119v-300q24 30 65.5 49.5t86.5 19.5q51 0 87.5 -20.5t53.5 -61.5q9 -22 15.5 -55.5t6.5 -103.5v-275h-120v271q0 76 -9 98q-17 43 -76 43q-33 0 -61.5 -16.5t-48.5 -44.5v-351z" />
    <glyph glyph-name="i" unicode="i" horiz-adv-x="259" 
d="M189 0h-119v503h119v-503zM197 660q0 -29 -20 -48.5t-49 -19.5q-28 0 -46.5 19t-18.5 47q0 30 19.5 50t48.5 20q28 0 47 -19.5t19 -48.5z" />
    <glyph glyph-name="j" unicode="j" horiz-adv-x="259" 
d="M6 -238l-42 95q18 7 41.5 22t33.5 26q13 14 22 36.5t9 70.5v491h119v-500q0 -97 -34 -140q-44 -55 -149 -101zM197 660q0 -29 -20 -48.5t-49 -19.5q-28 0 -47 19.5t-19 46.5q0 30 20 50t49 20q28 0 47 -19.5t19 -48.5z" />
    <glyph glyph-name="k" unicode="k" horiz-adv-x="544" 
d="M189 0h-119v747h119v-442q10 10 69 77t112 121h147l-217 -219l242 -284h-149q-49 54 -91 105.5t-76 95t-37 47.5v-248z" />
    <glyph glyph-name="l" unicode="l" horiz-adv-x="259" 
d="M189 0h-119v747h119v-747z" />
    <glyph glyph-name="m" unicode="m" horiz-adv-x="869" 
d="M189 0h-119v503h118v-57q26 31 66 50t85 19q100 0 137 -83q29 37 73 60t95 23q36 0 66 -11t47.5 -31.5t25.5 -40.5q8 -21 13.5 -53t5.5 -103v-276h-119v271q0 64 -8 90q-16 51 -76 51q-32 0 -59.5 -16t-46.5 -44q3 -24 3 -76v-276h-119v271q0 68 -10 94q-18 47 -74 47
q-63 0 -104 -61v-351z" />
    <glyph glyph-name="n" unicode="n" horiz-adv-x="571" 
d="M189 0h-119v503h116v-58q24 30 68.5 50t90.5 20q120 0 149 -108q10 -39 10 -132v-275h-120v271q0 72 -9 98q-15 43 -74 43q-31 0 -64 -17t-48 -44v-351z" />
    <glyph glyph-name="o" unicode="o" horiz-adv-x="566" 
d="M528 255q0 -122 -66.5 -194.5t-178.5 -72.5q-55 0 -101 18.5t-78.5 53.5t-49.5 83.5t-17 105.5t18 106.5t51 85.5t79 55.5t101 19.5t100 -19t77 -53.5t48.5 -83t16.5 -105.5zM410 252q0 78 -33 119.5t-92 41.5q-58 0 -93 -42.5t-35 -120.5q0 -76 34 -117.5t92 -41.5
q60 0 93.5 41t33.5 120z" />
    <glyph glyph-name="p" unicode="p" horiz-adv-x="575" 
d="M189 -237h-119v740h115v-49q23 26 62 43.5t79 17.5q100 0 156 -69t56 -184q0 -124 -64 -198t-173 -74q-30 0 -61 7.5t-51 20.5v-255zM189 121q13 -17 42 -26.5t51 -9.5q24 0 48 8.5t45 32.5t30 60.5t9 70.5q0 77 -31.5 119.5t-90.5 42.5q-31 0 -61 -16.5t-42 -37.5v-244z
" />
    <glyph glyph-name="q" unicode="q" horiz-adv-x="580" 
d="M510 -237h-119v282q-25 -28 -63.5 -42.5t-83.5 -14.5q-95 0 -152 69t-57 183q0 59 16 110t46.5 88t75 57t99.5 20q36 0 69 -12t51 -34v34h118v-740zM391 135v241q-13 20 -38.5 32t-56.5 12q-61 0 -99.5 -44.5t-38.5 -128.5q0 -43 10 -75t27.5 -51.5t40.5 -28t46 -8.5
q32 0 63 15t46 36z" />
    <glyph glyph-name="r" unicode="r" horiz-adv-x="392" 
d="M189 0h-119v503h116v-70q18 40 52 61.5t79 21.5q34 0 61 -12v-107q-31 20 -72 20q-37 0 -68 -20.5t-49 -59.5v-337z" />
    <glyph glyph-name="s" unicode="s" horiz-adv-x="434" 
d="M39 38v118q36 -32 86 -49.5t93 -17.5q40 0 56.5 10.5t16.5 33.5q0 12 -7 21.5t-26 20t-42 20.5l-57 25q-117 51 -117 151q0 65 49 105t134 40q41 0 84.5 -11.5t76.5 -34.5v-111q-38 27 -82 42.5t-81 15.5q-25 0 -43.5 -10t-18.5 -33q0 -17 13 -30.5t56 -32.5l58 -25
q63 -26 92.5 -60t29.5 -88q0 -69 -51.5 -109.5t-137.5 -40.5q-99 0 -182 50z" />
    <glyph glyph-name="t" unicode="t" horiz-adv-x="374" 
d="M359 14q-51 -26 -124 -26q-35 0 -65 12t-46.5 32.5t-23.5 41.5q-13 37 -13 128v204h-64v97h65v143h118v-143h133v-97h-133v-208q0 -47 9 -71q6 -17 22.5 -26.5t40.5 -9.5q44 0 81 22v-99z" />
    <glyph glyph-name="u" unicode="u" horiz-adv-x="571" 
d="M501 0h-119v57q-26 -32 -65 -50.5t-87 -18.5q-109 0 -142 81q-9 22 -15 55t-6 104v275h119v-271q0 -67 8 -89q9 -27 28 -39.5t53 -12.5q63 0 106 59v353h120v-503z" />
    <glyph glyph-name="v" unicode="v" horiz-adv-x="531" 
d="M314 0h-100l-210 503h133q89 -230 104.5 -272t25.5 -77q2 8 8 25.5t20 56.5t105 267h127z" />
    <glyph glyph-name="w" unicode="w" horiz-adv-x="789" 
d="M271 0h-97l-161 503h133q76 -274 89 -337q17 55 115 337h91q98 -278 104.5 -299t11.5 -38q2 8 5.5 25t13.5 57t70 255h130l-162 -503h-98q-110 307 -124 350q-2 -7 -7 -23.5t-19 -59.5t-95 -267z" />
    <glyph glyph-name="x" unicode="x" horiz-adv-x="543" 
d="M143 0h-135l183 258l-169 245h143q76 -111 110 -165q24 38 113 165h135l-174 -235l186 -268h-144q-62 90 -122 179z" />
    <glyph glyph-name="y" unicode="y" horiz-adv-x="530" 
d="M244 -237h-129l98 252l-209 488h133q118 -286 137 -346q27 79 126 346h126z" />
    <glyph glyph-name="z" unicode="z" horiz-adv-x="492" 
d="M474 0h-468q228 351 266 407l-230 -1v97h429l-267 -407q37 1 270 1v-97z" />
    <glyph glyph-name="braceleft" unicode="{" horiz-adv-x="324" 
d="M317 -157h-37q-76 0 -115 29q-24 18 -35.5 50.5t-11.5 84.5v120q0 73 -21 103q-20 31 -78 36v69q63 8 81 38q18 29 18 99v126q0 83 38 123q36 37 124 37h37v-62h-28q-43 0 -64 -27q-9 -11 -14.5 -32t-5.5 -47v-122q0 -98 -33 -134q-17 -18 -61 -33q37 -7 57 -28
q37 -37 37 -141v-123q0 -57 24 -83q21 -22 62 -22h26v-61z" />
    <glyph glyph-name="bar" unicode="|" horiz-adv-x="215" 
d="M144 -157h-73v906h73v-906z" />
    <glyph glyph-name="braceright" unicode="}" horiz-adv-x="324" 
d="M7 758h38q76 0 114 -28q25 -18 36.5 -51t11.5 -85v-120q0 -72 21 -102q20 -31 77 -37v-67q-63 -8 -81 -39q-17 -26 -17 -99v-127q0 -86 -39 -123q-38 -37 -123 -37h-38v63h28q43 0 64 26q20 25 20 79v123q0 97 34 134q19 19 60 33q-36 7 -57 26q-37 35 -37 142v124
q0 60 -23 83q-19 21 -63 21h-26v61z" />
    <glyph glyph-name="asciitilde" unicode="~" horiz-adv-x="701" 
d="M138 214l-57 42q79 122 163 122q17 0 40.5 -6.5t77.5 -38.5q57 -35 95 -35q30 0 52.5 18.5t51.5 64.5l60 -38q-27 -46 -55 -76t-57 -41t-54 -11q-48 0 -116 40q-64 38 -96 38q-26 0 -51.5 -18.5t-53.5 -60.5z" />
    <glyph glyph-name="exclamdown" unicode="&#xa1;" horiz-adv-x="283" 
d="M76 258h99q17 -324 17 -471h-132q0 146 16 471zM50 423q0 15 7.5 33.5t27 32t44.5 13.5q31 0 52.5 -23t21.5 -54q0 -33 -22.5 -55.5t-55.5 -22.5q-31 0 -53 22t-22 54z" />
    <glyph glyph-name="cent" unicode="&#xa2;" horiz-adv-x="504" 
d="M334 -86h-66v82q-95 11 -148 77t-53 172q0 102 53 169.5t148 81.5v87h66v-84q32 -1 64.5 -10.5t57.5 -28.5v-107q-59 48 -122 49v-305q64 0 124 44v-106q-53 -35 -124 -41v-80zM187 250q0 -27 7 -57t26.5 -52.5t47.5 -33.5v283q-40 -16 -60.5 -53.5t-20.5 -86.5z" />
    <glyph glyph-name="sterling" unicode="&#xa3;" horiz-adv-x="665" 
d="M467 287h-156l-32 -174h311v-113h-517v113h76l32 174h-67v78h81l18 95q18 95 46 143q25 42 72.5 70t120.5 28q83 0 129 -29v-117q-22 14 -53 23t-58 9q-28 0 -55 -9t-45 -40q-18 -29 -32 -104l-13 -69h142v-78z" />
    <glyph glyph-name="currency" unicode="&#xa4;" horiz-adv-x="576" 
d="M475 91l-69 68q-25 -16 -58.5 -25.5t-63.5 -9.5q-29 0 -60.5 9.5t-56.5 24.5l-67 -67l-51 51l69 68q-41 54 -41 121t39 121l-67 69l53 51l68 -68q24 19 56.5 28t60.5 9t60.5 -9.5t57.5 -28.5l69 69l50 -50l-68 -69q40 -50 40 -119q0 -29 -9.5 -62.5t-29.5 -59.5l68 -71z
M415 331q0 46 -22 79t-51.5 45.5t-54.5 12.5t-54.5 -12t-52.5 -44.5t-23 -78.5q0 -23 7 -46.5t25 -45.5t46 -33t52 -11q32 0 63 17t48 49t17 68z" />
    <glyph glyph-name="yen" unicode="&#xa5;" horiz-adv-x="674" 
d="M580 338h-149l-32 -51v-24h181v-62h-181v-201h-129v201h-174v62h174v24l-32 51h-142v64h103l-178 287h153q85 -138 165 -279q43 76 177 279h136l-181 -287h109v-64z" />
    <glyph glyph-name="brokenbar" unicode="&#xa6;" horiz-adv-x="227" 
d="M156 400h-85v306h85v-306zM156 -39h-85v306h85v-306z" />
    <glyph glyph-name="section" unicode="&#xa7;" horiz-adv-x="461" 
d="M45 -53v108q82 -68 170 -68q34 0 55 19t21 45q0 23 -12 39.5t-42 34.5q-88 50 -133 82q-37 25 -52.5 54.5t-15.5 67.5q0 43 25.5 76.5t69.5 47.5q-31 28 -46 59t-15 71q0 25 9.5 52.5t30.5 50.5t54.5 36.5t76.5 13.5q100 0 155 -41v-103q-32 27 -71 41t-74 14
t-53.5 -17.5t-18.5 -42.5q0 -19 9 -36.5t53 -44.5q79 -48 131 -86q57 -42 57 -115q0 -44 -26.5 -78.5t-65.5 -46.5q36 -28 51.5 -56.5t15.5 -67.5q0 -25 -8 -52.5t-29.5 -51.5t-58 -41t-91.5 -17q-99 0 -172 53zM279 220q20 7 36.5 24t16.5 39q0 23 -11 39.5t-38 33.5
l-93 58q-13 -3 -27 -13.5t-21 -25.5t-7 -28q0 -17 8 -33t38 -36q36 -24 98 -58z" />
    <glyph glyph-name="dieresis" unicode="&#xa8;" horiz-adv-x="179" 
d="M62 659q0 -24 -17 -41.5t-41 -17.5q-25 0 -41 17t-16 41q0 26 16.5 43t41.5 17t41 -16.5t16 -42.5zM232 659q0 -24 -17 -41.5t-41 -17.5q-25 0 -40.5 17t-15.5 41q0 26 16 43t41 17t41 -16.5t16 -42.5z" />
    <glyph glyph-name="copyright" unicode="&#xa9;" horiz-adv-x="828" 
d="M780 352q0 -76 -27.5 -143.5t-77 -117.5t-117 -77.5t-144.5 -27.5t-144.5 28t-117 78t-77 117.5t-27.5 142.5q0 76 27.5 143.5t77 117.5t117 78t143.5 28q79 0 147 -27.5t117.5 -77.5t76 -118t26.5 -144zM746 352q0 70 -24.5 132t-69 108.5t-106.5 72t-133 25.5
q-34 0 -76.5 -8.5t-85 -31.5t-81 -63.5t-63 -103t-24.5 -131.5q0 -33 8 -76t30 -86.5t61 -83t100.5 -65t131.5 -25.5q71 0 132.5 25t106 70.5t69 108t24.5 132.5zM565 151q-55 -37 -139 -37q-47 0 -87.5 16.5t-70.5 47.5t-46 75.5t-16 98.5q0 39 11.5 80t42.5 80t77 58
t92 19q89 0 134 -32v-84q-44 38 -120 38q-67 0 -107.5 -43t-40.5 -113q0 -51 18.5 -87t52.5 -56t82 -20q59 0 117 38v-79z" />
    <glyph glyph-name="ordfeminine" unicode="&#xaa;" horiz-adv-x="323" 
d="M282 282h-76l-1 30q-14 -16 -35.5 -26t-49.5 -10q-43 0 -68 24t-25 61q0 45 38 68q45 24 138 32v8q0 23 -9 33q-12 17 -43 17q-27 0 -56 -9.5t-50 -25.5v65q22 19 54.5 28.5t61.5 9.5q82 0 109 -53q12 -24 12 -80v-172zM203 353v62q-60 -5 -82 -17q-8 -4 -13 -13t-5 -19
q0 -14 11 -24t34 -10q31 0 55 21z" />
    <glyph glyph-name="guillemotleft" unicode="&#xab;" horiz-adv-x="445" 
d="M240 74h-93l-126 184l125 184h94l-121 -184zM422 74h-95l-125 184l124 184h95l-121 -184z" />
    <glyph glyph-name="logicalnot" unicode="&#xac;" horiz-adv-x="701" 
d="M601 34h-80v221h-430v80h510v-301z" />
    <glyph glyph-name="uni00AD" unicode="&#xad;" horiz-adv-x="346" 
d="M302 212h-256v94h256v-94z" />
    <glyph glyph-name="registered" unicode="&#xae;" horiz-adv-x="828" 
d="M780 352q0 -76 -27.5 -143.5t-77 -117.5t-117 -77.5t-144.5 -27.5t-144.5 28t-117 78t-77 117.5t-27.5 142.5q0 76 27.5 143.5t77 117.5t117 78t143.5 28q79 0 147 -27.5t117.5 -77.5t76 -118t26.5 -144zM746 352q0 70 -24.5 132t-69 108.5t-106.5 72t-133 25.5
q-34 0 -76.5 -8.5t-85 -31.5t-81 -63.5t-63 -103t-24.5 -131.5q0 -33 8 -76t30 -86.5t61 -83t100.5 -65t131.5 -25.5q71 0 132.5 25t106 70.5t69 108t24.5 132.5zM356 127h-80v453h106q72 0 98 -7q92 -23 92 -117q0 -44 -22 -73.5t-60 -45.5q19 -10 39.5 -37t88.5 -173h-88
q-4 9 -15 32.5t-36 73t-48 67.5q-10 9 -37 9h-38v-182zM356 377h50q24 0 42 7q42 17 42 64q0 53 -55 60q-24 3 -54 3h-25v-134z" />
    <glyph glyph-name="macron" unicode="&#xaf;" horiz-adv-x="166" 
d="M215 605h-266v80h266v-80z" />
    <glyph glyph-name="degree" unicode="&#xb0;" horiz-adv-x="312" 
d="M290 577q0 -30 -13.5 -61.5t-47 -53.5t-74.5 -22q-57 0 -95 38.5t-38 94.5q0 45 22.5 78.5t54.5 46.5t58 13q30 0 60.5 -12.5t51.5 -46t21 -75.5zM243 577q0 36 -23.5 63.5t-64.5 27.5q-18 0 -38.5 -9.5t-33.5 -32.5t-13 -51q0 -18 8 -39.5t29 -37t49 -15.5q18 0 38.5 9
t34.5 32.5t14 52.5z" />
    <glyph glyph-name="plusminus" unicode="&#xb1;" horiz-adv-x="701" 
d="M391 162h-81v207h-210v81h210v207h81v-207h210v-81h-210v-207zM601 0h-501v80h501v-80z" />
    <glyph glyph-name="uni00B2" unicode="&#xb2;" 
d="M331 420h-315q124 131 165 185q39 50 39 88q0 32 -19 48t-52 16q-26 0 -56 -10.5t-54 -28.5v73q27 20 61.5 31.5t69.5 11.5q25 0 49.5 -6t46 -22t31.5 -42t10 -52q0 -67 -53 -128q-27 -33 -84 -91q32 1 161 1v-74z" />
    <glyph glyph-name="uni00B3" unicode="&#xb3;" 
d="M38 438v77q24 -15 57.5 -22.5t61.5 -7.5q38 0 55.5 15.5t17.5 41.5q0 19 -12.5 31.5t-36.5 16.5q-25 5 -60 5h-14v66h14q41 0 56 5q38 12 38 46q0 21 -16 34.5t-50 13.5q-24 0 -52 -8.5t-50 -22.5v71q22 15 56.5 24.5t63.5 9.5q64 0 98.5 -29t34.5 -78q0 -31 -21 -57
t-62 -36q37 -5 60.5 -21.5t31 -37.5t7.5 -40q0 -55 -42.5 -88.5t-119.5 -33.5q-29 0 -62.5 6.5t-53.5 18.5z" />
    <glyph glyph-name="acute" unicode="&#xb4;" horiz-adv-x="179" 
d="M61 578h-90l113 170h125z" />
    <glyph glyph-name="uni00B5" unicode="&#xb5;" horiz-adv-x="593" 
d="M195 -237h-119v740h119v-271q0 -64 8 -89q18 -52 84 -52q32 0 61 17t49 44v351h119v-503h-118v58q-14 -28 -46 -47t-69 -19q-66 0 -88 49v-278z" />
    <glyph glyph-name="paragraph" unicode="&#xb6;" horiz-adv-x="514" 
d="M289 -127h-35v365q-35 0 -72.5 11.5t-73 43t-53 78.5t-17.5 94q0 54 17.5 99t51 76.5t84 48.5t114.5 17h141v-833h-34v799h-123v-799z" />
    <glyph glyph-name="periodcentered" unicode="&#xb7;" horiz-adv-x="234" 
d="M200 260q0 -32 -23 -55.5t-56 -23.5q-32 0 -53 22.5t-21 54.5q0 33 22.5 55.5t55.5 22.5q31 0 53 -22t22 -54z" />
    <glyph glyph-name="cedilla" unicode="&#xb8;" horiz-adv-x="166" 
d="M-16 -244v60q13 -8 33.5 -12.5t37.5 -4.5q27 0 39.5 13t12.5 31q0 19 -15.5 30.5t-43.5 11.5q-23 0 -41 -6l35 128h57l-19 -70l15 1q39 0 63.5 -25.5t24.5 -68.5q0 -51 -34.5 -78.5t-92.5 -27.5q-19 0 -40 5t-32 13z" />
    <glyph glyph-name="uni00B9" unicode="&#xb9;" 
d="M241 420h-92v307l-76 -30v78l168 62v-417z" />
    <glyph glyph-name="ordmasculine" unicode="&#xba;" horiz-adv-x="353" 
d="M329 434q0 -74 -41.5 -116.5t-112.5 -42.5q-70 0 -110.5 42t-40.5 112t42.5 114t111.5 44q70 0 110.5 -42t40.5 -111zM247 431q0 43 -18.5 65.5t-51.5 22.5q-32 0 -51.5 -23.5t-19.5 -66.5q0 -41 19 -63t51 -22q71 0 71 87z" />
    <glyph glyph-name="guillemotright" unicode="&#xbb;" horiz-adv-x="445" 
d="M204 442h94l125 -184l-124 -184h-94l121 184zM23 442h95l124 -184l-123 -184h-95l120 184z" />
    <glyph glyph-name="onequarter" unicode="&#xbc;" horiz-adv-x="815" 
d="M256 -12h-59l347 713h58zM246 282h-92v307l-76 -30v78l168 62v-417zM703 0h-87v104h-183v52l193 251h77v-240h56v-63h-56v-104zM616 167q0 114 1 140l-104 -140h103z" />
    <glyph glyph-name="onehalf" unicode="&#xbd;" horiz-adv-x="815" 
d="M237 -12h-59l347 713h58zM234 282h-92v307l-76 -30v78l168 62v-417zM774 0h-315q124 131 165 185q39 50 39 88q0 32 -19 48t-52 16q-26 0 -56 -10.5t-54 -28.5v73q27 20 61.5 31.5t69.5 11.5q25 0 49.5 -6t46 -22t31.5 -42t10 -52q0 -67 -53 -128q-27 -33 -84 -91
q32 1 161 1v-74z" />
    <glyph glyph-name="threequarters" unicode="&#xbe;" horiz-adv-x="815" 
d="M284 -12h-59l347 713h58zM58 300v77q24 -15 57.5 -22.5t61.5 -7.5q38 0 55.5 15.5t17.5 41.5q0 19 -12.5 31.5t-36.5 16.5q-25 5 -60 5h-14v66h14q41 0 56 5q38 12 38 46q0 21 -16 34.5t-50 13.5q-24 0 -52 -8.5t-50 -22.5v71q22 15 56.5 24.5t63.5 9.5q64 0 98.5 -29
t34.5 -78q0 -31 -21 -57t-62 -36q37 -5 60.5 -21.5t31 -37.5t7.5 -40q0 -55 -42.5 -88.5t-119.5 -33.5q-29 0 -62.5 6.5t-53.5 18.5zM722 0h-87v104h-183v52l193 251h77v-240h56v-63h-56v-104zM635 167q0 114 1 140l-104 -140h103z" />
    <glyph glyph-name="questiondown" unicode="&#xbf;" horiz-adv-x="430" 
d="M195 258h100q0 -59 -12.5 -89t-33.5 -50q-37 -35 -62.5 -68.5t-25.5 -71.5q0 -16 6.5 -36t24 -33t33.5 -16t28 -3q35 0 71 12.5t63 34.5v-114q-31 -24 -74.5 -37t-90.5 -13q-41 0 -76.5 10t-61 31t-40 53.5t-14.5 74.5q0 51 27 99.5t88 101.5q20 17 33.5 40.5t16.5 73.5z
M169 423q0 15 7.5 33.5t26.5 32t44 13.5q32 0 53 -22.5t21 -54.5q0 -33 -22 -55.5t-55 -22.5q-32 0 -53.5 22t-21.5 54z" />
    <glyph glyph-name="Agrave" unicode="&#xc0;" horiz-adv-x="675" 
d="M145 0h-140l270 706h124l271 -706h-136l-71 180h-249zM249 292h178q-4 12 -15.5 42t-32.5 88t-41 118q-18 -55 -89 -248zM427 760h-106l-166 138h140z" />
    <glyph glyph-name="Aacute" unicode="&#xc1;" horiz-adv-x="675" 
d="M145 0h-140l270 706h124l271 -706h-136l-71 180h-249zM249 292h178q-4 12 -15.5 42t-32.5 88t-41 118q-18 -55 -89 -248zM345 760h-105l131 138h141z" />
    <glyph glyph-name="Acircumflex" unicode="&#xc2;" horiz-adv-x="675" 
d="M145 0h-140l270 706h124l271 -706h-136l-71 180h-249zM249 292h178q-4 12 -15.5 42t-32.5 88t-41 118q-18 -55 -89 -248zM261 760h-95l130 138h82l131 -138h-97l-77 62z" />
    <glyph glyph-name="Atilde" unicode="&#xc3;" horiz-adv-x="675" 
d="M143 0h-140l270 706h124l271 -706h-136l-71 180h-249zM247 292h178q-4 12 -15.5 42t-32.5 88t-41 118q-18 -55 -89 -248zM233 762h-68q3 30 14.5 62.5t35 53t51.5 20.5q32 0 78 -31q19 -12 30.5 -17.5t22.5 -5.5q27 0 36 53h69q-5 -65 -31.5 -100t-64.5 -35
q-19 0 -37 6.5t-47 24.5q-21 13 -30.5 17t-17.5 4q-14 0 -25.5 -14t-15.5 -38z" />
    <glyph glyph-name="Adieresis" unicode="&#xc4;" horiz-adv-x="675" 
d="M145 0h-140l270 706h124l271 -706h-136l-71 180h-249zM249 292h178q-4 12 -15.5 42t-32.5 88t-41 118q-18 -55 -89 -248zM305 829q0 -24 -17 -41.5t-41 -17.5q-25 0 -40.5 17t-15.5 41q0 25 16.5 42.5t41.5 17.5q24 0 40 -16.5t16 -42.5zM483 829q0 -24 -17 -41.5
t-41 -17.5q-25 0 -40.5 17t-15.5 41q0 25 16 42.5t41 17.5t41 -16.5t16 -42.5z" />
    <glyph glyph-name="Aring" unicode="&#xc5;" horiz-adv-x="675" 
d="M145 0h-140l270 706h124l271 -706h-136l-71 180h-249zM249 292h178q-4 12 -15.5 42t-32.5 88t-41 118q-18 -55 -89 -248zM430 840q0 -18 -9 -39.5t-32.5 -37t-53.5 -15.5q-38 0 -64.5 26.5t-26.5 65.5q0 41 27 67.5t68 26.5q40 0 65.5 -26.5t25.5 -67.5zM387 841
q0 25 -14.5 40t-37.5 15q-21 0 -35.5 -16t-14.5 -40q0 -23 13.5 -38.5t38.5 -15.5q22 0 36 16t14 39z" />
    <glyph glyph-name="AE" unicode="&#xc6;" horiz-adv-x="1017" 
d="M157 0h-157l476 706h488v-120h-293v-164h271v-117h-271v-185h311v-120h-442v194h-255zM355 310h185v283q-26 -45 -185 -283z" />
    <glyph glyph-name="Ccedilla" unicode="&#xc7;" horiz-adv-x="662" 
d="M268 -252v63q14 -9 35 -13.5t39 -4.5q20 0 32.5 8t16 18.5t3.5 18.5q0 19 -15.5 31t-44.5 12q-24 0 -42 -6l32 119q-29 5 -65.5 17t-73 37t-70 65.5t-54.5 102.5t-21 134q0 81 26.5 150t75 118t113.5 75.5t138 26.5q145 0 221 -55v-129q-38 34 -90 50.5t-106 16.5
q-109 0 -175.5 -67t-66.5 -184q0 -60 19 -107t53 -78.5t79 -47t95 -15.5q100 0 192 61v-120q-88 -57 -225 -57l-8 1l-16 -54l14 1q43 0 67.5 -26t24.5 -71q0 -53 -35 -81t-94 -28q-19 0 -40.5 5.5t-33.5 12.5z" />
    <glyph glyph-name="Egrave" unicode="&#xc8;" horiz-adv-x="556" 
d="M521 0h-441v706h423v-120h-292v-164h271v-117h-271v-185h310v-120zM389 760h-106l-166 138h140z" />
    <glyph glyph-name="Eacute" unicode="&#xc9;" horiz-adv-x="556" 
d="M521 0h-441v706h423v-120h-292v-164h271v-117h-271v-185h310v-120zM312 750h-105l131 138h141z" />
    <glyph glyph-name="Ecircumflex" unicode="&#xca;" horiz-adv-x="556" 
d="M521 0h-441v706h423v-120h-292v-164h271v-117h-271v-185h310v-120zM214 760h-95l130 138h82l131 -138h-97l-77 62z" />
    <glyph glyph-name="Edieresis" unicode="&#xcb;" horiz-adv-x="556" 
d="M521 0h-441v706h423v-120h-292v-164h271v-117h-271v-185h310v-120zM262 829q0 -24 -17 -41.5t-41 -17.5q-25 0 -40.5 17t-15.5 41q0 25 16.5 42.5t41.5 17.5q24 0 40 -16.5t16 -42.5zM440 829q0 -24 -17 -41.5t-41 -17.5q-25 0 -40.5 17t-15.5 41q0 25 16 42.5t41 17.5
t41 -16.5t16 -42.5z" />
    <glyph glyph-name="Igrave" unicode="&#xcc;" horiz-adv-x="291" 
d="M211 0h-131v706h131v-706zM237 760h-106l-166 138h140z" />
    <glyph glyph-name="Iacute" unicode="&#xcd;" horiz-adv-x="291" 
d="M211 0h-131v706h131v-706zM152 750h-105l131 138h141z" />
    <glyph glyph-name="Icircumflex" unicode="&#xce;" horiz-adv-x="291" 
d="M211 0h-131v706h131v-706zM68 760h-95l130 138h82l131 -138h-97l-77 62z" />
    <glyph glyph-name="Idieresis" unicode="&#xcf;" horiz-adv-x="291" 
d="M211 0h-131v706h131v-706zM113 829q0 -24 -17 -41.5t-41 -17.5q-25 0 -40.5 17t-15.5 41q0 25 16.5 42.5t41.5 17.5q24 0 40 -16.5t16 -42.5zM291 829q0 -24 -17 -41.5t-41 -17.5q-25 0 -40.5 17t-15.5 41q0 25 16 42.5t41 17.5t41 -16.5t16 -42.5z" />
    <glyph glyph-name="Eth" unicode="&#xd0;" horiz-adv-x="719" 
d="M80 0v325h-69v78h69v303h176q162 0 234 -31q189 -79 189 -315q0 -121 -52 -205.5t-156 -123.5q-86 -31 -235 -31h-156zM211 119h58q113 0 163 25q54 27 83 81t29 132q0 69 -26.5 122t-80.5 82q-45 26 -154 26h-72v-184h160v-78h-160v-206z" />
    <glyph glyph-name="Ntilde" unicode="&#xd1;" horiz-adv-x="739" 
d="M206 0h-126v706h120q9 -12 28 -38.5t143.5 -199.5t165.5 -236q-3 122 -3 474h125v-706h-110q-210 301 -263.5 378.5t-81.5 120.5q2 -62 2 -499zM270 762h-68q3 30 14.5 62.5t35 53t51.5 20.5q32 0 78 -31q19 -12 30.5 -17.5t22.5 -5.5q27 0 36 53h69q-5 -65 -31.5 -100
t-64.5 -35q-19 0 -37 6.5t-47 24.5q-21 13 -30.5 17t-17.5 4q-14 0 -25.5 -14t-15.5 -38z" />
    <glyph glyph-name="Ograve" unicode="&#xd2;" horiz-adv-x="765" 
d="M725 358q0 -83 -25 -152t-71.5 -117.5t-111 -74.5t-139.5 -26q-73 0 -135.5 26t-108 74t-70 116.5t-24.5 148.5t25.5 148t72 116.5t111 75t139.5 26.5q76 0 139.5 -26.5t107.5 -75.5t67 -115.5t23 -143.5zM590 350q0 60 -14.5 107.5t-41.5 79.5t-64.5 48.5t-82.5 16.5
q-94 0 -152.5 -65t-58.5 -183q0 -58 15 -105.5t43 -79.5t66 -48.5t83 -16.5q94 0 150.5 64.5t56.5 181.5zM491 760h-106l-166 138h140z" />
    <glyph glyph-name="Oacute" unicode="&#xd3;" horiz-adv-x="765" 
d="M725 358q0 -83 -25 -152t-71.5 -117.5t-111 -74.5t-139.5 -26q-73 0 -135.5 26t-108 74t-70 116.5t-24.5 148.5t25.5 148t72 116.5t111 75t139.5 26.5q76 0 139.5 -26.5t107.5 -75.5t67 -115.5t23 -143.5zM590 350q0 60 -14.5 107.5t-41.5 79.5t-64.5 48.5t-82.5 16.5
q-94 0 -152.5 -65t-58.5 -183q0 -58 15 -105.5t43 -79.5t66 -48.5t83 -16.5q94 0 150.5 64.5t56.5 181.5zM377 754h-105l131 138h141z" />
    <glyph glyph-name="Ocircumflex" unicode="&#xd4;" horiz-adv-x="765" 
d="M725 358q0 -83 -25 -152t-71.5 -117.5t-111 -74.5t-139.5 -26q-73 0 -135.5 26t-108 74t-70 116.5t-24.5 148.5t25.5 148t72 116.5t111 75t139.5 26.5q76 0 139.5 -26.5t107.5 -75.5t67 -115.5t23 -143.5zM590 350q0 60 -14.5 107.5t-41.5 79.5t-64.5 48.5t-82.5 16.5
q-94 0 -152.5 -65t-58.5 -183q0 -58 15 -105.5t43 -79.5t66 -48.5t83 -16.5q94 0 150.5 64.5t56.5 181.5zM312 760h-95l130 138h82l131 -138h-97l-77 62z" />
    <glyph glyph-name="Otilde" unicode="&#xd5;" horiz-adv-x="765" 
d="M725 358q0 -83 -25 -152t-71.5 -117.5t-111 -74.5t-139.5 -26q-73 0 -135.5 26t-108 74t-70 116.5t-24.5 148.5t25.5 148t72 116.5t111 75t139.5 26.5q76 0 139.5 -26.5t107.5 -75.5t67 -115.5t23 -143.5zM590 350q0 60 -14.5 107.5t-41.5 79.5t-64.5 48.5t-82.5 16.5
q-94 0 -152.5 -65t-58.5 -183q0 -58 15 -105.5t43 -79.5t66 -48.5t83 -16.5q94 0 150.5 64.5t56.5 181.5zM286 762h-68q3 30 14.5 62.5t35 53t51.5 20.5q32 0 78 -31q19 -12 30.5 -17.5t22.5 -5.5q27 0 36 53h69q-5 -65 -31.5 -100t-64.5 -35q-19 0 -37 6.5t-47 24.5
q-21 13 -30.5 17t-17.5 4q-14 0 -25.5 -14t-15.5 -38z" />
    <glyph glyph-name="Odieresis" unicode="&#xd6;" horiz-adv-x="765" 
d="M725 358q0 -83 -25 -152t-71.5 -117.5t-111 -74.5t-139.5 -26q-73 0 -135.5 26t-108 74t-70 116.5t-24.5 148.5t25.5 148t72 116.5t111 75t139.5 26.5q76 0 139.5 -26.5t107.5 -75.5t67 -115.5t23 -143.5zM590 350q0 60 -14.5 107.5t-41.5 79.5t-64.5 48.5t-82.5 16.5
q-94 0 -152.5 -65t-58.5 -183q0 -58 15 -105.5t43 -79.5t66 -48.5t83 -16.5q94 0 150.5 64.5t56.5 181.5zM355 829q0 -24 -17 -41.5t-41 -17.5q-25 0 -40.5 17t-15.5 41q0 25 16.5 42.5t41.5 17.5q24 0 40 -16.5t16 -42.5zM533 829q0 -24 -17 -41.5t-41 -17.5
q-25 0 -40.5 17t-15.5 41q0 25 16 42.5t41 17.5t41 -16.5t16 -42.5z" />
    <glyph glyph-name="multiply" unicode="&#xd7;" horiz-adv-x="701" 
d="M185 74l-55 57l165 168l-166 166l57 58l164 -168l167 167l55 -57l-166 -166l165 -166l-56 -57l-165 165z" />
    <glyph glyph-name="Oslash" unicode="&#xd8;" horiz-adv-x="765" 
d="M139 -48l-54 34l62 89q-51 48 -79 120t-28 158q0 80 25.5 148t72 116.5t111 75t139.5 26.5q100 0 176 -45l57 82l53 -35l-59 -84q25 -23 51.5 -62t42.5 -96.5t16 -120.5q0 -83 -25.5 -152t-72 -117.5t-110.5 -74.5t-139 -26q-102 0 -181 48zM590 350q0 113 -50 179
l-272 -391q22 -16 53 -25t62 -9q95 0 151 64.5t56 181.5zM176 354q0 -104 46 -171l271 390q-21 13 -49.5 21t-56.5 8q-94 0 -152.5 -65t-58.5 -183z" />
    <glyph glyph-name="Ugrave" unicode="&#xd9;" horiz-adv-x="730" 
d="M73 706h130v-406q0 -72 14 -113q11 -30 36.5 -50t55.5 -26.5t55 -6.5q124 0 152 92q11 40 11 109v401h130v-405q0 -105 -28 -170q-27 -68 -96.5 -105.5t-171.5 -37.5q-58 0 -107.5 13.5t-90 43t-62.5 80.5q-28 65 -28 170v411zM469 760h-106l-166 138h140z" />
    <glyph glyph-name="Uacute" unicode="&#xda;" horiz-adv-x="730" 
d="M73 706h130v-406q0 -72 14 -113q11 -30 36.5 -50t55.5 -26.5t55 -6.5q124 0 152 92q11 40 11 109v401h130v-405q0 -105 -28 -170q-27 -68 -96.5 -105.5t-171.5 -37.5q-58 0 -107.5 13.5t-90 43t-62.5 80.5q-28 65 -28 170v411zM374 750h-105l131 138h141z" />
    <glyph glyph-name="Ucircumflex" unicode="&#xdb;" horiz-adv-x="730" 
d="M73 706h130v-406q0 -72 14 -113q11 -30 36.5 -50t55.5 -26.5t55 -6.5q124 0 152 92q11 40 11 109v401h130v-405q0 -105 -28 -170q-27 -68 -96.5 -105.5t-171.5 -37.5q-58 0 -107.5 13.5t-90 43t-62.5 80.5q-28 65 -28 170v411zM291 760h-95l130 138h82l131 -138h-97
l-77 62z" />
    <glyph glyph-name="Udieresis" unicode="&#xdc;" horiz-adv-x="730" 
d="M73 706h130v-406q0 -72 14 -113q11 -30 36.5 -50t55.5 -26.5t55 -6.5q124 0 152 92q11 40 11 109v401h130v-405q0 -105 -28 -170q-27 -68 -96.5 -105.5t-171.5 -37.5q-58 0 -107.5 13.5t-90 43t-62.5 80.5q-28 65 -28 170v411zM336 829q0 -24 -17 -41.5t-41 -17.5
q-25 0 -40.5 17t-15.5 41q0 25 16.5 42.5t41.5 17.5q24 0 40 -16.5t16 -42.5zM514 829q0 -24 -17 -41.5t-41 -17.5q-25 0 -40.5 17t-15.5 41q0 25 16 42.5t41 17.5t41 -16.5t16 -42.5z" />
    <glyph glyph-name="Yacute" unicode="&#xdd;" horiz-adv-x="658" 
d="M393 0h-131v291l-258 415h154q108 -176 172 -291q58 102 183 291h142l-262 -415v-291zM345 759h-105l131 138h141z" />
    <glyph glyph-name="Thorn" unicode="&#xde;" horiz-adv-x="613" 
d="M211 0h-131v706h131v-118h49q101 0 152 -12q78 -17 120.5 -69.5t42.5 -140.5q0 -72 -32.5 -124.5t-91.5 -77.5q-69 -28 -186 -28h-54v-136zM211 245h54q68 0 111 15q31 12 47 37t16 61q0 43 -22 70t-63 35q-38 8 -99 8h-44v-226z" />
    <glyph glyph-name="germandbls" unicode="&#xdf;" horiz-adv-x="583" 
d="M189 0h-119v473q0 52 6 100t27 84q12 22 37 45.5t67 38.5t90 15q37 0 73.5 -10.5t65.5 -35t47 -62t18 -85.5q0 -68 -27 -111t-89 -69q26 -3 49.5 -10.5t43.5 -21t35.5 -33t26.5 -50.5t11 -75q0 -33 -8.5 -68t-33 -69t-65 -51t-85.5 -17q-78 0 -120 24v103
q17 -11 47 -18.5t50 -7.5q46 0 71 28.5t25 85.5q0 119 -148 119h-16v104h15q53 0 77.5 34t24.5 86q0 35 -13 61.5t-35.5 36.5t-43.5 10q-28 0 -50 -10.5t-34 -29.5q-20 -33 -20 -128v-486z" />
    <glyph glyph-name="agrave" unicode="&#xe0;" horiz-adv-x="515" 
d="M448 0h-113v50q-57 -60 -140 -60q-25 0 -52 7.5t-49.5 26t-38 47.5t-15.5 67q0 37 16.5 68t46.5 49q70 42 229 51v16q0 39 -15 61q-19 29 -74 29q-46 0 -91.5 -15.5t-80.5 -44.5v102q35 29 86 45.5t99 16.5q130 0 172 -87q20 -41 20 -135v-294zM332 117v111
q-108 -7 -149 -32q-14 -8 -21.5 -22.5t-7.5 -29.5q0 -27 16 -43t35 -19t27 -3q54 0 100 38zM328 578h-90l-148 170h125z" />
    <glyph glyph-name="aacute" unicode="&#xe1;" horiz-adv-x="515" 
d="M448 0h-113v50q-57 -60 -140 -60q-25 0 -52 7.5t-49.5 26t-38 47.5t-15.5 67q0 37 16.5 68t46.5 49q70 42 229 51v16q0 39 -15 61q-19 29 -74 29q-46 0 -91.5 -15.5t-80.5 -44.5v102q35 29 86 45.5t99 16.5q130 0 172 -87q20 -41 20 -135v-294zM332 117v111
q-108 -7 -149 -32q-14 -8 -21.5 -22.5t-7.5 -29.5q0 -27 16 -43t35 -19t27 -3q54 0 100 38zM264 578h-90l113 170h125z" />
    <glyph glyph-name="acircumflex" unicode="&#xe2;" horiz-adv-x="515" 
d="M448 0h-113v50q-57 -60 -140 -60q-25 0 -52 7.5t-49.5 26t-38 47.5t-15.5 67q0 37 16.5 68t46.5 49q70 42 229 51v16q0 39 -15 61q-19 29 -74 29q-46 0 -91.5 -15.5t-80.5 -44.5v102q35 29 86 45.5t99 16.5q130 0 172 -87q20 -41 20 -135v-294zM332 117v111
q-108 -7 -149 -32q-14 -8 -21.5 -22.5t-7.5 -29.5q0 -27 16 -43t35 -19t27 -3q54 0 100 38zM186 575h-87l124 168h69l124 -168h-88l-72 83z" />
    <glyph glyph-name="atilde" unicode="&#xe3;" horiz-adv-x="515" 
d="M448 0h-113v50q-57 -60 -140 -60q-25 0 -52 7.5t-49.5 26t-38 47.5t-15.5 67q0 37 16.5 68t46.5 49q70 42 229 51v16q0 39 -15 61q-19 29 -74 29q-46 0 -91.5 -15.5t-80.5 -44.5v102q35 29 86 45.5t99 16.5q130 0 172 -87q20 -41 20 -135v-294zM332 117v111
q-108 -7 -149 -32q-14 -8 -21.5 -22.5t-7.5 -29.5q0 -27 16 -43t35 -19t27 -3q54 0 100 38zM158 594h-68q5 64 33 100.5t65 36.5q7 0 21.5 -3.5t51.5 -27.5q35 -23 50 -23q29 0 35 54h64q-2 -65 -28 -101t-63 -36q-7 0 -24.5 3t-52.5 27q-22 14 -31.5 18.5t-17.5 4.5
q-26 0 -35 -53z" />
    <glyph glyph-name="adieresis" unicode="&#xe4;" horiz-adv-x="515" 
d="M448 0h-113v50q-57 -60 -140 -60q-25 0 -52 7.5t-49.5 26t-38 47.5t-15.5 67q0 37 16.5 68t46.5 49q70 42 229 51v16q0 39 -15 61q-19 29 -74 29q-46 0 -91.5 -15.5t-80.5 -44.5v102q35 29 86 45.5t99 16.5q130 0 172 -87q20 -41 20 -135v-294zM332 117v111
q-108 -7 -149 -32q-14 -8 -21.5 -22.5t-7.5 -29.5q0 -27 16 -43t35 -19t27 -3q54 0 100 38zM230 659q0 -24 -17 -41.5t-41 -17.5q-25 0 -41 17t-16 41q0 26 16.5 43t41.5 17t41 -16.5t16 -42.5zM400 659q0 -24 -17 -41.5t-41 -17.5q-25 0 -40.5 17t-15.5 41q0 26 16 43
t41 17t41 -16.5t16 -42.5z" />
    <glyph glyph-name="aring" unicode="&#xe5;" horiz-adv-x="515" 
d="M448 0h-113v50q-57 -60 -140 -60q-25 0 -52 7.5t-49.5 26t-38 47.5t-15.5 67q0 37 16.5 68t46.5 49q70 42 229 51v16q0 39 -15 61q-19 29 -74 29q-46 0 -91.5 -15.5t-80.5 -44.5v102q35 29 86 45.5t99 16.5q130 0 172 -87q20 -41 20 -135v-294zM332 117v111
q-108 -7 -149 -32q-14 -8 -21.5 -22.5t-7.5 -29.5q0 -27 16 -43t35 -19t27 -3q54 0 100 38zM353 670q0 -29 -16 -53t-39.5 -33.5t-43.5 -9.5q-19 0 -42 9.5t-38.5 33.5t-15.5 53q0 20 9 43t34 39t56 16q42 0 69 -27.5t27 -70.5zM309 671q0 26 -15.5 42.5t-39.5 16.5
q-22 0 -37 -17t-15 -43q0 -25 14.5 -42t39.5 -17q23 0 38 17.5t15 42.5z" />
    <glyph glyph-name="ae" unicode="&#xe6;" horiz-adv-x="814" 
d="M776 37q-93 -49 -189 -49q-126 0 -188 74q-84 -73 -188 -73q-52 0 -89.5 18t-59.5 51.5t-22 79.5q0 81 67 119q71 41 229 47v15q0 44 -19 67q-21 26 -73 26q-93 0 -173 -59v100q35 29 85 46t96 17q115 0 151 -70q61 70 165 70q40 0 79 -12t69 -41.5t48 -77.5t18 -117v-41
h-331q0 -14 5 -34t12 -35q35 -67 143 -67q42 0 85 14.5t80 40.5v-109zM357 127q-4 9 -10 29.5t-10 69.5q-111 -2 -153 -28q-30 -18 -30 -53q0 -19 10 -35.5t29.5 -23.5t40.5 -7q65 0 123 48zM449 306h217q-3 62 -26.5 89t-73.5 27t-82.5 -31t-34.5 -85z" />
    <glyph glyph-name="ccedilla" unicode="&#xe7;" horiz-adv-x="472" 
d="M167 -244v60q13 -8 33.5 -12.5t37.5 -4.5q27 0 39.5 13t12.5 31q0 19 -15.5 30.5t-43.5 11.5q-23 0 -41 -6l31 116q-86 20 -135 87.5t-49 168.5q0 56 19 105.5t54 85t83 55t103 19.5q90 0 143 -40v-116q-30 25 -60.5 37t-66.5 12q-70 0 -110.5 -44.5t-40.5 -110.5
q0 -47 17.5 -81.5t51.5 -55t83 -20.5q34 0 67 12t60 31v-111q-62 -41 -152 -41h-11l-14 -51l15 1q39 0 63.5 -25.5t24.5 -68.5q0 -51 -34.5 -78.5t-92.5 -27.5q-19 0 -40 5t-32 13z" />
    <glyph glyph-name="egrave" unicode="&#xe8;" horiz-adv-x="526" 
d="M488 36q-88 -48 -189 -48q-122 0 -192 70.5t-70 194.5q0 58 17.5 107t50 84t77 53.5t96.5 18.5q40 0 79.5 -12t69.5 -41.5t48 -77.5t18 -118v-42h-333q3 -68 46.5 -101t116.5 -33q39 0 85 15.5t80 41.5v-112zM161 305h216q0 117 -99 117q-24 0 -51 -11.5t-46 -40.5
t-20 -65zM356 578h-90l-148 170h125z" />
    <glyph glyph-name="eacute" unicode="&#xe9;" horiz-adv-x="526" 
d="M488 36q-88 -48 -189 -48q-122 0 -192 70.5t-70 194.5q0 58 17.5 107t50 84t77 53.5t96.5 18.5q40 0 79.5 -12t69.5 -41.5t48 -77.5t18 -118v-42h-333q3 -68 46.5 -101t116.5 -33q39 0 85 15.5t80 41.5v-112zM161 305h216q0 117 -99 117q-24 0 -51 -11.5t-46 -40.5
t-20 -65zM283 578h-90l113 170h125z" />
    <glyph glyph-name="ecircumflex" unicode="&#xea;" horiz-adv-x="526" 
d="M488 36q-88 -48 -189 -48q-122 0 -192 70.5t-70 194.5q0 58 17.5 107t50 84t77 53.5t96.5 18.5q40 0 79.5 -12t69.5 -41.5t48 -77.5t18 -118v-42h-333q3 -68 46.5 -101t116.5 -33q39 0 85 15.5t80 41.5v-112zM161 305h216q0 117 -99 117q-24 0 -51 -11.5t-46 -40.5
t-20 -65zM206 575h-87l124 168h69l124 -168h-88l-72 83z" />
    <glyph glyph-name="edieresis" unicode="&#xeb;" horiz-adv-x="526" 
d="M488 36q-88 -48 -189 -48q-122 0 -192 70.5t-70 194.5q0 58 17.5 107t50 84t77 53.5t96.5 18.5q40 0 79.5 -12t69.5 -41.5t48 -77.5t18 -118v-42h-333q3 -68 46.5 -101t116.5 -33q39 0 85 15.5t80 41.5v-112zM161 305h216q0 117 -99 117q-24 0 -51 -11.5t-46 -40.5
t-20 -65zM249 659q0 -24 -17 -41.5t-41 -17.5q-25 0 -41 17t-16 41q0 26 16.5 43t41.5 17t41 -16.5t16 -42.5zM419 659q0 -24 -17 -41.5t-41 -17.5q-25 0 -40.5 17t-15.5 41q0 26 16 43t41 17t41 -16.5t16 -42.5z" />
    <glyph glyph-name="igrave" unicode="&#xec;" horiz-adv-x="259" 
d="M214 578h-90l-148 170h125zM189 0h-119v503h119v-503z" />
    <glyph glyph-name="iacute" unicode="&#xed;" horiz-adv-x="259" 
d="M140 578h-90l113 170h125zM189 0h-119v503h119v-503z" />
    <glyph glyph-name="icircumflex" unicode="&#xee;" horiz-adv-x="259" 
d="M189 0h-119v503h119v-503zM57 575h-87l124 168h69l124 -168h-88l-72 83z" />
    <glyph glyph-name="idieresis" unicode="&#xef;" horiz-adv-x="259" 
d="M101 659q0 -24 -17 -41.5t-41 -17.5q-25 0 -41 17t-16 41q0 26 16.5 43t41.5 17t41 -16.5t16 -42.5zM271 659q0 -24 -17 -41.5t-41 -17.5q-25 0 -40.5 17t-15.5 41q0 26 16 43t41 17t41 -16.5t16 -42.5zM189 0h-119v503h119v-503z" />
    <glyph glyph-name="eth" unicode="&#xf0;" horiz-adv-x="581" 
d="M482 678l-75 -49q56 -68 88.5 -161.5t32.5 -196.5q0 -68 -18.5 -122t-52 -89.5t-78.5 -53.5t-97 -18q-50 0 -94.5 17t-78.5 50.5t-53 83t-19 110.5q0 44 12 88t40.5 79t72 57t99.5 22q41 0 76.5 -14.5t55.5 -42.5q-7 34 -25 71.5t-41 66.5l-80 -52l-32 52l69 45
q-23 21 -52 39t-57 28l36 71q42 -11 82 -34.5t71 -50.5l85 56zM410 251q0 77 -34 117t-93 40q-55 0 -90.5 -41t-35.5 -115q0 -77 34.5 -118.5t91.5 -41.5q58 0 92.5 41.5t34.5 117.5z" />
    <glyph glyph-name="ntilde" unicode="&#xf1;" horiz-adv-x="571" 
d="M189 0h-119v503h116v-58q24 30 68.5 50t90.5 20q120 0 149 -108q10 -39 10 -132v-275h-120v271q0 72 -9 98q-15 43 -74 43q-31 0 -64 -17t-48 -44v-351zM190 594h-68q5 64 33 100.5t65 36.5q7 0 21.5 -3.5t51.5 -27.5q35 -23 50 -23q29 0 35 54h64q-2 -65 -28 -101
t-63 -36q-7 0 -24.5 3t-52.5 27q-22 14 -31.5 18.5t-17.5 4.5q-26 0 -35 -53z" />
    <glyph glyph-name="ograve" unicode="&#xf2;" horiz-adv-x="566" 
d="M528 255q0 -122 -66.5 -194.5t-178.5 -72.5q-55 0 -101 18.5t-78.5 53.5t-49.5 83.5t-17 105.5t18 106.5t51 85.5t79 55.5t101 19.5t100 -19t77 -53.5t48.5 -83t16.5 -105.5zM410 252q0 78 -33 119.5t-92 41.5q-58 0 -93 -42.5t-35 -120.5q0 -76 34 -117.5t92 -41.5
q60 0 93.5 41t33.5 120zM363 578h-90l-148 170h125z" />
    <glyph glyph-name="oacute" unicode="&#xf3;" horiz-adv-x="566" 
d="M528 255q0 -122 -66.5 -194.5t-178.5 -72.5q-55 0 -101 18.5t-78.5 53.5t-49.5 83.5t-17 105.5t18 106.5t51 85.5t79 55.5t101 19.5t100 -19t77 -53.5t48.5 -83t16.5 -105.5zM410 252q0 78 -33 119.5t-92 41.5q-58 0 -93 -42.5t-35 -120.5q0 -76 34 -117.5t92 -41.5
q60 0 93.5 41t33.5 120zM280 578h-90l113 170h125z" />
    <glyph glyph-name="ocircumflex" unicode="&#xf4;" horiz-adv-x="566" 
d="M528 255q0 -122 -66.5 -194.5t-178.5 -72.5q-55 0 -101 18.5t-78.5 53.5t-49.5 83.5t-17 105.5t18 106.5t51 85.5t79 55.5t101 19.5t100 -19t77 -53.5t48.5 -83t16.5 -105.5zM410 252q0 78 -33 119.5t-92 41.5q-58 0 -93 -42.5t-35 -120.5q0 -76 34 -117.5t92 -41.5
q60 0 93.5 41t33.5 120zM210 575h-87l124 168h69l124 -168h-88l-72 83z" />
    <glyph glyph-name="otilde" unicode="&#xf5;" horiz-adv-x="566" 
d="M528 255q0 -122 -66.5 -194.5t-178.5 -72.5q-55 0 -101 18.5t-78.5 53.5t-49.5 83.5t-17 105.5t18 106.5t51 85.5t79 55.5t101 19.5t100 -19t77 -53.5t48.5 -83t16.5 -105.5zM410 252q0 78 -33 119.5t-92 41.5q-58 0 -93 -42.5t-35 -120.5q0 -76 34 -117.5t92 -41.5
q60 0 93.5 41t33.5 120zM190 594h-68q5 64 33 100.5t65 36.5q7 0 21.5 -3.5t51.5 -27.5q35 -23 50 -23q29 0 35 54h64q-2 -65 -28 -101t-63 -36q-7 0 -24.5 3t-52.5 27q-22 14 -31.5 18.5t-17.5 4.5q-26 0 -35 -53z" />
    <glyph glyph-name="odieresis" unicode="&#xf6;" horiz-adv-x="566" 
d="M528 255q0 -122 -66.5 -194.5t-178.5 -72.5q-55 0 -101 18.5t-78.5 53.5t-49.5 83.5t-17 105.5t18 106.5t51 85.5t79 55.5t101 19.5t100 -19t77 -53.5t48.5 -83t16.5 -105.5zM410 252q0 78 -33 119.5t-92 41.5q-58 0 -93 -42.5t-35 -120.5q0 -76 34 -117.5t92 -41.5
q60 0 93.5 41t33.5 120zM254 659q0 -24 -17 -41.5t-41 -17.5q-25 0 -41 17t-16 41q0 26 16.5 43t41.5 17t41 -16.5t16 -42.5zM424 659q0 -24 -17 -41.5t-41 -17.5q-25 0 -40.5 17t-15.5 41q0 26 16 43t41 17t41 -16.5t16 -42.5z" />
    <glyph glyph-name="divide" unicode="&#xf7;" horiz-adv-x="701" 
d="M601 255h-501v80h501v-80zM406 460q0 -25 -16.5 -42t-41.5 -17q-23 0 -39 17t-16 41q0 26 16.5 43t40.5 17t40 -16.5t16 -42.5zM406 129q0 -25 -16.5 -43t-41.5 -18q-23 0 -39 17.5t-16 41.5q0 25 16.5 42.5t40.5 17.5t40 -16.5t16 -41.5z" />
    <glyph glyph-name="oslash" unicode="&#xf8;" horiz-adv-x="566" 
d="M109 -54l-51 35l50 73q-34 34 -52.5 84.5t-18.5 110.5q0 57 18 106t51 85t79 55.5t101 19.5q32 0 64.5 -8t56.5 -21l50 72l51 -35l-51 -74q34 -34 52.5 -84.5t18.5 -109.5q0 -122 -66.5 -194.5t-178.5 -72.5q-33 0 -66.5 8t-58.5 21zM410 252q0 61 -21 100l-169 -245
q27 -15 63 -15q60 0 93.5 40.5t33.5 119.5zM157 250q0 -59 20 -97l168 244q-26 14 -60 14q-58 0 -93 -41.5t-35 -119.5z" />
    <glyph glyph-name="ugrave" unicode="&#xf9;" horiz-adv-x="571" 
d="M501 0h-119v57q-26 -32 -65 -50.5t-87 -18.5q-109 0 -142 81q-9 22 -15 55t-6 104v275h119v-271q0 -67 8 -89q9 -27 28 -39.5t53 -12.5q63 0 106 59v353h120v-503zM369 578h-90l-148 170h125z" />
    <glyph glyph-name="uacute" unicode="&#xfa;" horiz-adv-x="571" 
d="M501 0h-119v57q-26 -32 -65 -50.5t-87 -18.5q-109 0 -142 81q-9 22 -15 55t-6 104v275h119v-271q0 -67 8 -89q9 -27 28 -39.5t53 -12.5q63 0 106 59v353h120v-503zM296 578h-90l113 170h125z" />
    <glyph glyph-name="ucircumflex" unicode="&#xfb;" horiz-adv-x="571" 
d="M501 0h-119v57q-26 -32 -65 -50.5t-87 -18.5q-109 0 -142 81q-9 22 -15 55t-6 104v275h119v-271q0 -67 8 -89q9 -27 28 -39.5t53 -12.5q63 0 106 59v353h120v-503zM217 575h-87l124 168h69l124 -168h-88l-72 83z" />
    <glyph glyph-name="udieresis" unicode="&#xfc;" horiz-adv-x="571" 
d="M501 0h-119v57q-26 -32 -65 -50.5t-87 -18.5q-109 0 -142 81q-9 22 -15 55t-6 104v275h119v-271q0 -67 8 -89q9 -27 28 -39.5t53 -12.5q63 0 106 59v353h120v-503zM265 659q0 -24 -17 -41.5t-41 -17.5q-25 0 -41 17t-16 41q0 26 16.5 43t41.5 17t41 -16.5t16 -42.5z
M435 659q0 -24 -17 -41.5t-41 -17.5q-25 0 -40.5 17t-15.5 41q0 26 16 43t41 17t41 -16.5t16 -42.5z" />
    <glyph glyph-name="yacute" unicode="&#xfd;" horiz-adv-x="530" 
d="M244 -237h-129l98 252l-209 488h133q118 -286 137 -346q30 92 126 346h126zM287 578h-90l113 170h125z" />
    <glyph glyph-name="thorn" unicode="&#xfe;" horiz-adv-x="575" 
d="M189 -237h-119v984h119v-291q22 25 60 42t77 17q100 0 156 -69t56 -184q0 -124 -64 -198t-173 -74q-30 0 -61 7.5t-51 20.5v-255zM189 121q14 -17 42.5 -26.5t50.5 -9.5q24 0 48 8.5t45 32.5t30 60.5t9 70.5q0 77 -31.5 119.5t-90.5 42.5q-30 0 -60.5 -16.5t-42.5 -37.5
v-244z" />
    <glyph glyph-name="ydieresis" unicode="&#xff;" horiz-adv-x="530" 
d="M244 -237h-129l98 252l-209 488h133q118 -286 137 -346q30 92 126 346h126zM249 659q0 -24 -17 -41.5t-41 -17.5q-25 0 -41 17t-16 41q0 26 16.5 43t41.5 17t41 -16.5t16 -42.5zM419 659q0 -24 -17 -41.5t-41 -17.5q-25 0 -40.5 17t-15.5 41q0 26 16 43t41 17t41 -16.5
t16 -42.5z" />
    <glyph glyph-name="Amacron" unicode="&#x100;" horiz-adv-x="675" 
d="M143 0h-140l270 706h124l271 -706h-136l-71 180h-249zM247 292h178q-4 12 -15.5 42t-32.5 88t-41 118q-18 -55 -89 -248zM473 786h-275v79h275v-79z" />
    <glyph glyph-name="amacron" unicode="&#x101;" horiz-adv-x="515" 
d="M448 0h-113v50q-57 -60 -140 -60q-25 0 -52 7.5t-49.5 26t-38 47.5t-15.5 67q0 37 16.5 68t46.5 49q70 42 229 51v16q0 39 -15 61q-19 29 -74 29q-46 0 -91.5 -15.5t-80.5 -44.5v102q35 29 86 45.5t99 16.5q130 0 172 -87q20 -41 20 -135v-294zM332 117v111
q-108 -7 -149 -32q-14 -8 -21.5 -22.5t-7.5 -29.5q0 -27 16 -43t35 -19t27 -3q54 0 100 38zM391 605h-266v80h266v-80z" />
    <glyph glyph-name="Abreve" unicode="&#x102;" horiz-adv-x="675" 
d="M143 0h-140l270 706h124l271 -706h-136l-71 180h-249zM247 292h178q-4 12 -15.5 42t-32.5 88t-41 118q-18 -55 -89 -248zM188 906h69q2 -20 10.5 -38.5t26.5 -28t40 -9.5q75 0 82 76h69q-2 -66 -40.5 -107.5t-111.5 -41.5q-26 0 -52 7t-46.5 25t-33 46.5t-13.5 70.5z" />
    <glyph glyph-name="abreve" unicode="&#x103;" horiz-adv-x="515" 
d="M448 0h-113v50q-57 -60 -140 -60q-25 0 -52 7.5t-49.5 26t-38 47.5t-15.5 67q0 37 16.5 68t46.5 49q70 42 229 51v16q0 39 -15 61q-19 29 -74 29q-46 0 -91.5 -15.5t-80.5 -44.5v102q35 29 86 45.5t99 16.5q130 0 172 -87q20 -41 20 -135v-294zM332 117v111
q-108 -7 -149 -32q-14 -8 -21.5 -22.5t-7.5 -29.5q0 -27 16 -43t35 -19t27 -3q54 0 100 38zM114 721h66q3 -42 23.5 -62t49.5 -20q34 0 54.5 20.5t23.5 61.5h65q-1 -40 -16.5 -77.5t-49.5 -58t-78 -20.5q-42 0 -72 18t-47.5 52.5t-18.5 85.5z" />
    <glyph glyph-name="Aogonek" unicode="&#x104;" horiz-adv-x="675" 
d="M145 0h-140l270 706h124l271 -706h-61q-100 -70 -100 -137q0 -28 16.5 -46t45.5 -18q33 0 64 17v-60q-15 -10 -38.5 -16.5t-41.5 -6.5q-59 0 -91.5 30t-32.5 87q0 43 27.5 82.5t76.5 67.5h-1l-71 180h-249zM249 292h178q-4 12 -15.5 42t-32.5 88t-41 118
q-18 -55 -89 -248z" />
    <glyph glyph-name="aogonek" unicode="&#x105;" horiz-adv-x="515" 
d="M448 0h-44q-92 -65 -92 -130q0 -27 16 -44t44 -17q34 0 63 16v-58q-11 -7 -32 -14.5t-46 -7.5q-57 0 -89.5 28.5t-32.5 84.5q0 41 26.5 79t73.5 65v48q-57 -60 -140 -60q-25 0 -52 7.5t-49.5 26t-38 47.5t-15.5 67q0 37 16.5 68t46.5 49q70 42 229 51v12q0 39 -16 64
q-11 15 -30.5 22.5t-42.5 7.5q-46 0 -91.5 -15.5t-80.5 -44.5v102q35 29 86 45.5t99 16.5q130 0 172 -87q20 -41 20 -135v-294zM332 117v111q-108 -7 -149 -32q-14 -8 -21.5 -22.5t-7.5 -29.5q0 -27 16 -43t35 -19t27 -3q54 0 100 38z" />
    <glyph glyph-name="Cacute" unicode="&#x106;" horiz-adv-x="662" 
d="M614 45q-88 -57 -225 -57q-73 0 -137 25t-111.5 72.5t-74 115.5t-26.5 149t26.5 150t75 118t113.5 75.5t138 26.5q145 0 221 -55v-129q-38 34 -90 50.5t-106 16.5q-109 0 -175.5 -67t-66.5 -184q0 -60 19 -107t53 -78.5t79 -47t95 -15.5q100 0 192 61v-120zM380 757h-105
l131 138h141z" />
    <glyph glyph-name="cacute" unicode="&#x107;" horiz-adv-x="472" 
d="M440 29q-62 -41 -152 -41q-56 0 -103 18.5t-80 53t-50.5 83.5t-17.5 108q0 56 19 105.5t54 85t83 55t103 19.5q90 0 143 -40v-116q-30 25 -60.5 37t-66.5 12q-70 0 -110.5 -44.5t-40.5 -110.5q0 -47 17.5 -81.5t51.5 -55t83 -20.5q34 0 67 12t60 31v-111zM281 578h-90
l113 170h125z" />
    <glyph glyph-name="Ccircumflex" unicode="&#x108;" horiz-adv-x="662" 
d="M614 45q-88 -57 -225 -57q-73 0 -137 25t-111.5 72.5t-74 115.5t-26.5 149t26.5 150t75 118t113.5 75.5t138 26.5q145 0 221 -55v-129q-38 34 -90 50.5t-106 16.5q-109 0 -175.5 -67t-66.5 -184q0 -60 19 -107t53 -78.5t79 -47t95 -15.5q100 0 192 61v-120zM312 760h-95
l130 138h82l131 -138h-97l-77 62z" />
    <glyph glyph-name="ccircumflex" unicode="&#x109;" horiz-adv-x="472" 
d="M440 29q-62 -41 -152 -41q-56 0 -103 18.5t-80 53t-50.5 83.5t-17.5 108q0 56 19 105.5t54 85t83 55t103 19.5q90 0 143 -40v-116q-30 25 -60.5 37t-66.5 12q-70 0 -110.5 -44.5t-40.5 -110.5q0 -47 17.5 -81.5t51.5 -55t83 -20.5q34 0 67 12t60 31v-111zM204 575h-87
l124 168h69l124 -168h-88l-72 83z" />
    <glyph glyph-name="Cdotaccent" unicode="&#x10a;" horiz-adv-x="662" 
d="M614 45q-88 -57 -225 -57q-73 0 -137 25t-111.5 72.5t-74 115.5t-26.5 149t26.5 150t75 118t113.5 75.5t138 26.5q145 0 221 -55v-129q-38 34 -90 50.5t-106 16.5q-109 0 -175.5 -67t-66.5 -184q0 -60 19 -107t53 -78.5t79 -47t95 -15.5q100 0 192 61v-120zM416 829
q0 -24 -17 -41.5t-41 -17.5q-25 0 -41 17t-16 41q0 25 16.5 42.5t41.5 17.5t41 -16.5t16 -42.5z" />
    <glyph glyph-name="cdotaccent" unicode="&#x10b;" horiz-adv-x="472" 
d="M440 29q-62 -41 -152 -41q-56 0 -103 18.5t-80 53t-50.5 83.5t-17.5 108q0 56 19 105.5t54 85t83 55t103 19.5q90 0 143 -40v-116q-30 25 -60.5 37t-66.5 12q-70 0 -110.5 -44.5t-40.5 -110.5q0 -47 17.5 -81.5t51.5 -55t83 -20.5q34 0 67 12t60 31v-111zM332 659
q0 -24 -17 -41.5t-41 -17.5q-25 0 -40.5 17t-15.5 41q0 26 16 43t42 17q24 0 40 -16.5t16 -42.5z" />
    <glyph glyph-name="Ccaron" unicode="&#x10c;" horiz-adv-x="662" 
d="M614 45q-88 -57 -225 -57q-73 0 -137 25t-111.5 72.5t-74 115.5t-26.5 149t26.5 150t75 118t113.5 75.5t138 26.5q145 0 221 -55v-129q-38 34 -90 50.5t-106 16.5q-109 0 -175.5 -67t-66.5 -184q0 -60 19 -107t53 -78.5t79 -47t95 -15.5q100 0 192 61v-120zM435 898h96
l-130 -138h-82l-131 138h97l76 -62z" />
    <glyph glyph-name="ccaron" unicode="&#x10d;" horiz-adv-x="472" 
d="M440 29q-62 -41 -152 -41q-56 0 -103 18.5t-80 53t-50.5 83.5t-17.5 108q0 56 19 105.5t54 85t83 55t103 19.5q90 0 143 -40v-114q-30 25 -60.5 37t-66.5 12q-70 0 -110.5 -44.5t-40.5 -110.5q0 -47 17.5 -81.5t51.5 -55t83 -20.5q34 0 67 12t60 31v-113zM349 746h87
l-124 -168h-69l-124 168h87l73 -83z" />
    <glyph glyph-name="Dcaron" unicode="&#x10e;" horiz-adv-x="719" 
d="M80 0v706h176q162 0 234 -31q189 -79 189 -315q0 -121 -52 -205.5t-156 -123.5q-86 -31 -235 -31h-156zM211 119h58q113 0 163 25q54 27 83 81t29 132q0 69 -26.5 122t-80.5 82q-45 26 -154 26h-72v-468zM384 898h96l-130 -138h-82l-131 138h97l76 -62z" />
    <glyph glyph-name="dcaron" unicode="&#x10f;" horiz-adv-x="581" 
d="M511 0h-117v48q-25 -29 -64.5 -44.5t-85.5 -15.5q-95 0 -152 69t-57 183q0 59 16 110t46.5 88t75.5 57t100 20q36 0 68.5 -10t49.5 -28v270h120v-747zM391 135v241q-13 20 -39 32t-59 12q-36 0 -68 -19t-49.5 -60t-17.5 -94q0 -54 16.5 -92.5t45.5 -54.5t59 -16
q33 0 64.5 15t47.5 36zM628 513h-77q67 101 67 236h94q0 -71 -23 -132.5t-61 -103.5z" />
    <glyph glyph-name="Dcroat" unicode="&#x110;" horiz-adv-x="719" 
d="M80 0v325h-69v78h69v303h176q162 0 234 -31q189 -79 189 -315q0 -121 -52 -205.5t-156 -123.5q-86 -31 -235 -31h-156zM211 119h58q113 0 163 25q54 27 83 81t29 132q0 69 -26.5 122t-80.5 82q-45 26 -154 26h-72v-184h160v-78h-160v-206z" />
    <glyph glyph-name="dcroat" unicode="&#x111;" horiz-adv-x="581" 
d="M511 0h-117v48q-25 -29 -64.5 -44.5t-85.5 -15.5q-95 0 -152 69t-57 183q0 59 16 110t46.5 88t75.5 57t100 20q36 0 68.5 -10t49.5 -28v95h-123v75h123v100h120v-100h61v-75h-61v-572zM391 135v241q-13 20 -39 32t-59 12q-36 0 -68 -19t-49.5 -60t-17.5 -94
q0 -54 16.5 -92.5t45.5 -54.5t59 -16q33 0 64.5 15t47.5 36z" />
    <glyph glyph-name="Emacron" unicode="&#x112;" horiz-adv-x="556" 
d="M521 0h-441v706h423v-120h-292v-164h271v-117h-271v-185h310v-120zM430 786h-275v79h275v-79z" />
    <glyph glyph-name="emacron" unicode="&#x113;" horiz-adv-x="526" 
d="M488 36q-88 -48 -189 -48q-122 0 -192 70.5t-70 194.5q0 58 17.5 107t50 84t77 53.5t96.5 18.5q40 0 79.5 -12t69.5 -41.5t48 -77.5t18 -118v-42h-333q3 -68 46.5 -101t116.5 -33q39 0 85 15.5t80 41.5v-112zM161 305h216q0 117 -99 117q-24 0 -51 -11.5t-46 -40.5
t-20 -65zM408 605h-266v80h266v-80z" />
    <glyph glyph-name="Ebreve" unicode="&#x114;" horiz-adv-x="556" 
d="M521 0h-441v706h423v-120h-292v-164h271v-117h-271v-185h310v-120zM148 906h69q2 -20 10.5 -38.5t26.5 -28t40 -9.5q75 0 82 76h69q-2 -66 -40.5 -107.5t-111.5 -41.5q-26 0 -52 7t-46.5 25t-33 46.5t-13.5 70.5z" />
    <glyph glyph-name="ebreve" unicode="&#x115;" horiz-adv-x="526" 
d="M488 36q-88 -48 -189 -48q-122 0 -192 70.5t-70 194.5q0 58 17.5 107t50 84t77 53.5t96.5 18.5q40 0 79.5 -12t69.5 -41.5t48 -77.5t18 -118v-42h-333q3 -68 46.5 -101t116.5 -33q39 0 85 15.5t80 41.5v-112zM161 305h216q0 117 -99 117q-24 0 -51 -11.5t-46 -40.5
t-20 -65zM131 721h66q3 -42 23.5 -62t49.5 -20q34 0 54.5 20.5t23.5 61.5h65q-1 -40 -16.5 -77.5t-49.5 -58t-78 -20.5q-42 0 -72 18t-47.5 52.5t-18.5 85.5z" />
    <glyph glyph-name="Edotaccent" unicode="&#x116;" horiz-adv-x="556" 
d="M521 0h-441v706h423v-120h-292v-164h271v-117h-271v-185h310v-120zM355 829q0 -24 -17 -41.5t-41 -17.5q-25 0 -41 17t-16 41q0 25 16.5 42.5t41.5 17.5t41 -16.5t16 -42.5z" />
    <glyph glyph-name="edotaccent" unicode="&#x117;" horiz-adv-x="526" 
d="M488 36q-88 -48 -189 -48q-122 0 -192 70.5t-70 194.5q0 58 17.5 107t50 84t77 53.5t96.5 18.5q40 0 79.5 -12t69.5 -41.5t48 -77.5t18 -118v-42h-333q3 -68 46.5 -101t116.5 -33q39 0 85 15.5t80 41.5v-112zM161 305h216q0 117 -99 117q-24 0 -51 -11.5t-46 -40.5
t-20 -65zM329 659q0 -24 -17 -41.5t-41 -17.5q-25 0 -40.5 17t-15.5 41q0 26 16 43t42 17q24 0 40 -16.5t16 -42.5z" />
    <glyph glyph-name="Eogonek" unicode="&#x118;" horiz-adv-x="556" 
d="M521 0h-32q-100 -70 -100 -137q0 -28 16.5 -46t45.5 -18q33 0 64 17v-60q-15 -10 -38.5 -16.5t-41.5 -6.5q-59 0 -91.5 30t-32.5 87q0 43 27.5 82.5t76.5 67.5h-335v706h423v-120h-292v-164h271v-117h-271v-185h310v-120z" />
    <glyph glyph-name="eogonek" unicode="&#x119;" horiz-adv-x="526" 
d="M488 36q-43 -24 -85 -35q-94 -65 -94 -131q0 -27 16 -44t44 -17q34 0 63 16v-58q-11 -7 -32 -14.5t-46 -7.5q-57 0 -89.5 28.5t-32.5 84.5q0 36 20.5 70t56.5 60h-10q-122 0 -192 70.5t-70 194.5q0 58 17.5 107t50 84t77 53.5t96.5 18.5q40 0 79.5 -12t69.5 -41.5
t48 -77.5t18 -118v-42h-333q3 -68 46.5 -101t116.5 -33q39 0 85 15.5t80 41.5v-112zM161 305h216q0 117 -99 117q-24 0 -51 -11.5t-46 -40.5t-20 -65z" />
    <glyph glyph-name="Ecaron" unicode="&#x11a;" horiz-adv-x="556" 
d="M521 0h-441v706h423v-120h-292v-164h271v-117h-271v-185h310v-120zM364 898h96l-130 -138h-82l-131 138h97l76 -62z" />
    <glyph glyph-name="ecaron" unicode="&#x11b;" horiz-adv-x="526" 
d="M488 36q-88 -48 -189 -48q-122 0 -192 70.5t-70 194.5q0 58 17.5 107t50 84t77 53.5t96.5 18.5q40 0 79.5 -12t69.5 -41.5t48 -77.5t18 -118v-42h-333q3 -68 46.5 -101t116.5 -33q39 0 85 15.5t80 41.5v-112zM161 305h216q0 117 -99 117q-24 0 -51 -11.5t-46 -40.5
t-20 -65zM343 746h87l-124 -168h-69l-124 168h87l73 -83z" />
    <glyph glyph-name="Gcircumflex" unicode="&#x11c;" horiz-adv-x="718" 
d="M658 49q-45 -26 -117.5 -43.5t-147.5 -17.5q-77 0 -142.5 26t-112.5 74t-72.5 116t-25.5 147q0 81 26.5 150t75 117.5t113.5 75t139 26.5q156 0 235 -57v-129q-77 69 -210 69q-39 0 -81 -11.5t-82 -44.5t-60 -85.5t-20 -109.5q0 -43 12 -87.5t45 -84t81.5 -58t97.5 -18.5
q65 0 119 23v128h-133v121h260v-327zM309 760h-95l130 138h82l131 -138h-97l-77 62z" />
    <glyph glyph-name="gcircumflex" unicode="&#x11d;" horiz-adv-x="519" 
d="M158 167q-28 9 -56.5 30t-45.5 56t-17 76q0 83 58.5 134t154.5 51q53 0 87 -11h168v-97h-75q23 -30 23 -74q0 -98 -79 -140q-40 -21 -119 -39q-26 -6 -41.5 -17.5t-15.5 -26.5q0 -19 28 -25q18 -3 74 -8t81 -9q119 -18 119 -133q0 -29 -12.5 -60t-43.5 -58t-83.5 -45.5
t-125.5 -18.5q-100 0 -160 36.5t-60 100.5q0 44 31 72.5t91 47.5q-29 8 -43.5 26.5t-14.5 41.5q0 26 20 49.5t57 40.5zM341 329q0 44 -24.5 68t-69.5 24q-18 0 -40 -8.5t-38 -31t-16 -51.5q0 -40 25.5 -63.5t67.5 -23.5q30 0 53.5 13t32.5 33.5t9 39.5zM384 -82
q0 18 -10.5 28.5t-34.5 18.5q-16 5 -45 8t-55 3q-48 0 -77 -18t-29 -49q0 -14 10 -29.5t38 -25.5t67 -10q60 0 98 20t38 54zM179 575h-87l124 168h69l124 -168h-88l-72 83z" />
    <glyph glyph-name="Gbreve" unicode="&#x11e;" horiz-adv-x="718" 
d="M658 49q-45 -26 -117.5 -43.5t-147.5 -17.5q-77 0 -142.5 26t-112.5 74t-72.5 116t-25.5 147q0 81 26.5 150t75 117.5t113.5 75t139 26.5q156 0 235 -57v-129q-77 69 -210 69q-39 0 -81 -11.5t-82 -44.5t-60 -85.5t-20 -109.5q0 -43 12 -87.5t45 -84t81.5 -58t97.5 -18.5
q65 0 119 23v128h-133v121h260v-327zM223 906h69q2 -20 10.5 -38.5t26.5 -28t40 -9.5q75 0 82 76h69q-2 -66 -40.5 -107.5t-111.5 -41.5q-26 0 -52 7t-46.5 25t-33 46.5t-13.5 70.5z" />
    <glyph glyph-name="gbreve" unicode="&#x11f;" horiz-adv-x="519" 
d="M158 167q-28 9 -56.5 30t-45.5 56t-17 76q0 83 58.5 134t154.5 51q53 0 87 -11h168v-97h-75q23 -30 23 -74q0 -98 -79 -140q-40 -21 -119 -39q-26 -6 -41.5 -17.5t-15.5 -26.5q0 -19 28 -25q18 -3 74 -8t81 -9q119 -18 119 -133q0 -29 -12.5 -60t-43.5 -58t-83.5 -45.5
t-125.5 -18.5q-100 0 -160 36.5t-60 100.5q0 44 31 72.5t91 47.5q-29 8 -43.5 26.5t-14.5 41.5q0 26 20 49.5t57 40.5zM341 329q0 44 -24.5 68t-69.5 24q-18 0 -40 -8.5t-38 -31t-16 -51.5q0 -40 25.5 -63.5t67.5 -23.5q30 0 53.5 13t32.5 33.5t9 39.5zM384 -82
q0 18 -10.5 28.5t-34.5 18.5q-16 5 -45 8t-55 3q-48 0 -77 -18t-29 -49q0 -14 10 -29.5t38 -25.5t67 -10q60 0 98 20t38 54zM111 721h66q3 -42 23.5 -62t49.5 -20q34 0 54.5 20.5t23.5 61.5h65q-1 -40 -16.5 -77.5t-49.5 -58t-78 -20.5q-42 0 -72 18t-47.5 52.5t-18.5 85.5z
" />
    <glyph glyph-name="Gdotaccent" unicode="&#x120;" horiz-adv-x="718" 
d="M658 49q-45 -26 -117.5 -43.5t-147.5 -17.5q-77 0 -142.5 26t-112.5 74t-72.5 116t-25.5 147q0 81 26.5 150t75 117.5t113.5 75t139 26.5q156 0 235 -57v-129q-77 69 -210 69q-39 0 -81 -11.5t-82 -44.5t-60 -85.5t-20 -109.5q0 -43 12 -87.5t45 -84t81.5 -58t97.5 -18.5
q65 0 119 23v128h-133v121h260v-327zM438 829q0 -24 -17 -41.5t-41 -17.5q-25 0 -41 17t-16 41q0 25 16.5 42.5t41.5 17.5t41 -16.5t16 -42.5z" />
    <glyph glyph-name="gdotaccent" unicode="&#x121;" horiz-adv-x="519" 
d="M158 167q-28 9 -56.5 30t-45.5 56t-17 76q0 83 58.5 134t154.5 51q53 0 87 -11h168v-97h-75q23 -30 23 -74q0 -98 -79 -140q-40 -21 -119 -39q-26 -6 -41.5 -17.5t-15.5 -26.5q0 -19 28 -25q18 -3 74 -8t81 -9q119 -18 119 -133q0 -29 -12.5 -60t-43.5 -58t-83.5 -45.5
t-125.5 -18.5q-100 0 -160 36.5t-60 100.5q0 44 31 72.5t91 47.5q-29 8 -43.5 26.5t-14.5 41.5q0 26 20 49.5t57 40.5zM341 329q0 44 -24.5 68t-69.5 24q-18 0 -40 -8.5t-38 -31t-16 -51.5q0 -40 25.5 -63.5t67.5 -23.5q30 0 53.5 13t32.5 33.5t9 39.5zM384 -82
q0 18 -10.5 28.5t-34.5 18.5q-16 5 -45 8t-55 3q-48 0 -77 -18t-29 -49q0 -14 10 -29.5t38 -25.5t67 -10q60 0 98 20t38 54zM308 659q0 -24 -17 -41.5t-41 -17.5q-25 0 -40.5 17t-15.5 41q0 26 16 43t42 17q24 0 40 -16.5t16 -42.5z" />
    <glyph glyph-name="Gcommaaccent" unicode="&#x122;" horiz-adv-x="718" 
d="M658 49q-45 -26 -117.5 -43.5t-147.5 -17.5q-77 0 -142.5 26t-112.5 74t-72.5 116t-25.5 147q0 81 26.5 150t75 117.5t113.5 75t139 26.5q156 0 235 -57v-129q-77 69 -210 69q-39 0 -81 -11.5t-82 -44.5t-60 -85.5t-20 -109.5q0 -43 12 -87.5t45 -84t81.5 -58t97.5 -18.5
q65 0 119 23v128h-133v121h260v-327zM351 -301h-77q67 101 67 236h94q0 -71 -23 -132.5t-61 -103.5z" />
    <glyph glyph-name="gcommaaccent" unicode="&#x123;" horiz-adv-x="519" 
d="M158 167q-28 9 -56.5 30t-45.5 56t-17 76q0 83 58.5 134t154.5 51q53 0 87 -11h168v-97h-75q23 -30 23 -74q0 -98 -79 -140q-40 -21 -119 -39q-26 -6 -41.5 -17.5t-15.5 -26.5q0 -19 28 -25q18 -3 74 -8t81 -9q119 -18 119 -133q0 -29 -12.5 -60t-43.5 -58t-83.5 -45.5
t-125.5 -18.5q-100 0 -160 36.5t-60 100.5q0 44 31 72.5t91 47.5q-29 8 -43.5 26.5t-14.5 41.5q0 26 20 49.5t57 40.5zM341 329q0 44 -24.5 68t-69.5 24q-18 0 -40 -8.5t-38 -31t-16 -51.5q0 -40 25.5 -63.5t67.5 -23.5q30 0 53.5 13t32.5 33.5t9 39.5zM384 -82
q0 18 -10.5 28.5t-34.5 18.5q-16 5 -45 8t-55 3q-48 0 -77 -18t-29 -49q0 -14 10 -29.5t38 -25.5t67 -10q60 0 98 20t38 54zM295 818h74q-66 -97 -66 -236h-92q0 71 23 133t61 103z" />
    <glyph glyph-name="Hcircumflex" unicode="&#x124;" horiz-adv-x="717" 
d="M637 0h-130v303h-296v-303h-131v706h131v-282h296v282h130v-706zM278 760h-95l130 138h82l131 -138h-97l-77 62z" />
    <glyph glyph-name="hcircumflex" unicode="&#x125;" horiz-adv-x="571" 
d="M189 0h-119v747h119v-300q24 30 65.5 49.5t86.5 19.5q51 0 87.5 -20.5t53.5 -61.5q9 -22 15.5 -55.5t6.5 -103.5v-275h-120v271q0 76 -9 98q-17 43 -76 43q-33 0 -61.5 -16.5t-48.5 -44.5v-351zM72 774h-95l130 138h82l131 -138h-97l-77 62z" />
    <glyph glyph-name="Hbar" unicode="&#x126;" horiz-adv-x="717" 
d="M637 0h-130v300h-296v-300h-131v497h-68v78h68v131h131v-131h296v131h130v-131h70v-78h-70v-497zM211 411h296v86h-296v-86z" />
    <glyph glyph-name="hbar" unicode="&#x127;" horiz-adv-x="571" 
d="M189 0h-119v572h-58v75h58v100h119v-100h126v-75h-126v-125q24 30 65.5 49.5t86.5 19.5q51 0 87.5 -20.5t53.5 -61.5q9 -22 15.5 -55.5t6.5 -103.5v-275h-120v271q0 76 -9 98q-17 43 -76 43q-33 0 -61.5 -16.5t-48.5 -44.5v-351z" />
    <glyph glyph-name="Itilde" unicode="&#x128;" horiz-adv-x="291" 
d="M211 0h-131v706h131v-706zM44 762h-68q3 30 14.5 62.5t35 53t51.5 20.5q32 0 78 -31q19 -12 30.5 -17.5t22.5 -5.5q27 0 36 53h69q-5 -65 -31.5 -100t-64.5 -35q-19 0 -37 6.5t-47 24.5q-21 13 -30.5 17t-17.5 4q-14 0 -25.5 -14t-15.5 -38z" />
    <glyph glyph-name="itilde" unicode="&#x129;" horiz-adv-x="259" 
d="M35 594h-68q5 64 33 100.5t65 36.5q7 0 21.5 -3.5t51.5 -27.5q35 -23 50 -23q29 0 35 54h64q-2 -65 -28 -101t-63 -36q-7 0 -24.5 3t-52.5 27q-22 14 -31.5 18.5t-17.5 4.5q-26 0 -35 -53zM189 0h-119v503h119v-503z" />
    <glyph glyph-name="Imacron" unicode="&#x12a;" horiz-adv-x="291" 
d="M211 0h-131v706h131v-706zM283 786h-275v79h275v-79z" />
    <glyph glyph-name="imacron" unicode="&#x12b;" horiz-adv-x="259" 
d="M261 605h-266v80h266v-80zM189 0h-119v503h119v-503z" />
    <glyph glyph-name="Ibreve" unicode="&#x12c;" horiz-adv-x="291" 
d="M211 0h-131v706h131v-706zM-3 906h69q2 -20 10.5 -38.5t26.5 -28t40 -9.5q75 0 82 76h69q-2 -66 -40.5 -107.5t-111.5 -41.5q-26 0 -52 7t-46.5 25t-33 46.5t-13.5 70.5z" />
    <glyph glyph-name="ibreve" unicode="&#x12d;" horiz-adv-x="259" 
d="M-12 721h66q3 -42 23.5 -62t49.5 -20q34 0 54.5 20.5t23.5 61.5h65q-1 -40 -16.5 -77.5t-49.5 -58t-78 -20.5q-42 0 -72 18t-47.5 52.5t-18.5 85.5zM189 0h-119v503h119v-503z" />
    <glyph glyph-name="Iogonek" unicode="&#x12e;" horiz-adv-x="291" 
d="M211 0h-27q-100 -70 -100 -137q0 -28 16.5 -46t45.5 -18q33 0 64 17v-60q-15 -10 -38.5 -16.5t-41.5 -6.5q-59 0 -91.5 30t-32.5 87q0 43 27.5 82.5t76.5 67.5h-30v706h131v-706z" />
    <glyph glyph-name="iogonek" unicode="&#x12f;" horiz-adv-x="259" 
d="M189 0h-24q-92 -65 -92 -130q0 -27 16 -44t44 -17q34 0 63 16v-58q-11 -7 -32 -14.5t-46 -7.5q-57 0 -89.5 28.5t-32.5 84.5q0 40 25.5 77.5t70.5 64.5h-22v503h119v-503zM197 660q0 -29 -20 -48.5t-49 -19.5q-28 0 -46.5 19t-18.5 47q0 30 19.5 50t48.5 20
q28 0 47 -19.5t19 -48.5z" />
    <glyph glyph-name="Idotaccent" unicode="&#x130;" horiz-adv-x="291" 
d="M211 0h-131v706h131v-706zM203 829q0 -24 -17 -41.5t-41 -17.5q-25 0 -41 17t-16 41q0 25 16.5 42.5t41.5 17.5t41 -16.5t16 -42.5z" />
    <glyph glyph-name="dotlessi" unicode="&#x131;" horiz-adv-x="259" 
d="M189 0h-119v503h119v-503z" />
    <glyph glyph-name="IJ" unicode="&#x132;" horiz-adv-x="586" 
d="M211 0h-131v706h131v-706zM291 -197l-42 103q76 36 98 64q26 31 26 101v635h131v-629q0 -116 -47 -169q-52 -61 -166 -105z" />
    <glyph glyph-name="ij" unicode="&#x133;" horiz-adv-x="518" 
d="M189 0h-119v503h119v-503zM197 660q0 -29 -20 -48.5t-49 -19.5q-28 0 -46.5 19t-18.5 47q0 30 19.5 50t48.5 20q28 0 47 -19.5t19 -48.5zM264 -238l-42 95q18 7 41.5 22t33.5 26q13 14 22 36.5t9 70.5v491h119v-500q0 -97 -34 -140q-44 -55 -149 -101zM455 660
q0 -29 -20 -48.5t-49 -19.5q-28 0 -47 19.5t-19 46.5q0 30 20 50t49 20q28 0 47 -19.5t19 -48.5z" />
    <glyph glyph-name="Jcircumflex" unicode="&#x134;" horiz-adv-x="294" 
d="M1 -197l-42 103q76 36 98 64q26 31 26 101v635h131v-629q0 -116 -47 -169q-52 -61 -166 -105zM70 760h-95l130 138h82l131 -138h-97l-77 62z" />
    <glyph glyph-name="jcircumflex" unicode="&#x135;" horiz-adv-x="259" 
d="M6 -238l-41 94q19 8 42.5 23t33.5 26q12 13 20.5 34.5t8.5 69.5v494h119v-503q0 -98 -32 -137q-22 -26 -57 -50.5t-94 -50.5zM59 575h-87l124 168h69l124 -168h-88l-72 83z" />
    <glyph glyph-name="Kcommaaccent" unicode="&#x136;" horiz-adv-x="642" 
d="M211 0h-131v706h131v-303q3 3 10.5 12.5t76.5 100t158 190.5h155l-280 -330l308 -376h-163q-54 61 -104.5 123t-102 131.5t-58.5 78.5v-333zM293 -301h-77q67 101 67 236h94q0 -71 -23 -132.5t-61 -103.5z" />
    <glyph glyph-name="kcommaaccent" unicode="&#x137;" horiz-adv-x="544" 
d="M189 0h-119v747h119v-442q10 10 69 77t112 121h147l-217 -219l242 -284h-149q-49 54 -91 105.5t-76 95t-37 47.5v-248zM240 -301h-77q67 101 67 236h94q0 -71 -23 -132.5t-61 -103.5z" />
    <glyph glyph-name="kgreenlandic" unicode="&#x138;" horiz-adv-x="544" 
d="M189 0h-119v503h119v-201l184 201h144l-221 -227l246 -276h-149l-204 235v-235z" />
    <glyph glyph-name="Lacute" unicode="&#x139;" horiz-adv-x="537" 
d="M517 0h-437v706h131v-585h306v-121zM160 760h-105l131 138h141z" />
    <glyph glyph-name="lacute" unicode="&#x13a;" horiz-adv-x="259" 
d="M189 0h-119v747h119v-747zM141 780h-105l131 138h141z" />
    <glyph glyph-name="Lcommaaccent" unicode="&#x13b;" horiz-adv-x="537" 
d="M517 0h-437v706h131v-585h306v-121zM257 -301h-77q67 101 67 236h94q0 -71 -23 -132.5t-61 -103.5z" />
    <glyph glyph-name="lcommaaccent" unicode="&#x13c;" horiz-adv-x="259" 
d="M189 0h-119v747h119v-747zM94 -301h-77q67 101 67 236h94q0 -71 -23 -132.5t-61 -103.5z" />
    <glyph glyph-name="Lcaron" unicode="&#x13d;" horiz-adv-x="537" 
d="M517 0h-437v706h131v-585h306v-121zM357 473h-77q67 101 67 236h94q0 -71 -23 -132.5t-61 -103.5z" />
    <glyph glyph-name="lcaron" unicode="&#x13e;" horiz-adv-x="259" 
d="M189 0h-119v747h119v-747zM302 513h-77q67 101 67 236h94q0 -71 -23 -132.5t-61 -103.5z" />
    <glyph glyph-name="Ldot" unicode="&#x13f;" horiz-adv-x="537" 
d="M485 345q0 -32 -22.5 -55t-55.5 -23q-32 0 -53 22.5t-21 53.5q0 33 22.5 56t54.5 23t53.5 -22t21.5 -55zM517 0h-437v706h131v-585h306v-121z" />
    <glyph glyph-name="ldot" unicode="&#x140;" horiz-adv-x="378" 
d="M390 325q0 -31 -21 -53t-52 -22q-29 0 -49 21.5t-20 51.5q0 32 21 53.5t51 21.5t50 -21t20 -52zM189 0h-119v747h119v-747z" />
    <glyph glyph-name="Lslash" unicode="&#x141;" horiz-adv-x="537" 
d="M517 0h-437v257l-73 -48v84l73 48v365h131v-277l130 87v-85l-130 -87v-223h306v-121z" />
    <glyph glyph-name="lslash" unicode="&#x142;" horiz-adv-x="259" 
d="M189 0h-119v270l-67 -44v84l67 44v393h119v-314l66 44v-85l-66 -44v-348z" />
    <glyph glyph-name="Nacute" unicode="&#x143;" horiz-adv-x="739" 
d="M206 0h-126v706h120q9 -12 28 -38.5t143.5 -199.5t165.5 -236q-3 122 -3 474h125v-706h-110q-210 301 -263.5 378.5t-81.5 120.5q2 -62 2 -499zM377 760h-105l131 138h141z" />
    <glyph glyph-name="nacute" unicode="&#x144;" horiz-adv-x="571" 
d="M189 0h-119v503h116v-58q24 30 68.5 50t90.5 20q120 0 149 -108q10 -39 10 -132v-275h-120v271q0 72 -9 98q-15 43 -74 43q-31 0 -64 -17t-48 -44v-351zM301 578h-90l113 170h125z" />
    <glyph glyph-name="Ncommaaccent" unicode="&#x145;" horiz-adv-x="739" 
d="M206 0h-126v706h120q9 -12 28 -38.5t143.5 -199.5t165.5 -236q-3 122 -3 474h125v-706h-110q-210 301 -263.5 378.5t-81.5 120.5q2 -62 2 -499zM338 -301h-77q67 101 67 236h94q0 -71 -23 -132.5t-61 -103.5z" />
    <glyph glyph-name="ncommaaccent" unicode="&#x146;" horiz-adv-x="571" 
d="M189 0h-119v503h116v-58q24 30 68.5 50t90.5 20q120 0 149 -108q10 -39 10 -132v-275h-120v271q0 72 -9 98q-15 43 -74 43q-31 0 -64 -17t-48 -44v-351zM260 -301h-77q67 101 67 236h94q0 -71 -23 -132.5t-61 -103.5z" />
    <glyph glyph-name="Ncaron" unicode="&#x147;" horiz-adv-x="739" 
d="M206 0h-126v706h120q9 -12 28 -38.5t143.5 -199.5t165.5 -236q-3 122 -3 474h125v-706h-110q-210 301 -263.5 378.5t-81.5 120.5q2 -62 2 -499zM438 898h96l-130 -138h-82l-131 138h97l76 -62z" />
    <glyph glyph-name="ncaron" unicode="&#x148;" horiz-adv-x="571" 
d="M189 0h-119v503h116v-58q24 30 68.5 50t90.5 20q120 0 149 -108q10 -39 10 -132v-275h-120v271q0 72 -9 98q-15 43 -74 43q-31 0 -64 -17t-48 -44v-351zM355 746h87l-124 -168h-69l-124 168h87l73 -83z" />
    <glyph glyph-name="napostrophe" unicode="&#x149;" horiz-adv-x="571" 
d="M189 0h-119v503h116v-58q24 30 68.5 50t90.5 20q120 0 149 -108q10 -39 10 -132v-275h-120v271q0 72 -9 98q-15 43 -74 43q-31 0 -64 -17t-48 -44v-351zM95 559h-77q67 101 67 236h94q0 -71 -23 -132.5t-61 -103.5z" />
    <glyph glyph-name="Eng" unicode="&#x14a;" horiz-adv-x="739" 
d="M203 0h-126v706h120q8 -12 25.5 -36.5t144.5 -202.5t166 -239l-2 478h125v-692q0 -99 -45 -150q-19 -22 -60 -50.5t-106 -54.5l-42 104q77 37 98 63q22 28 22 63v38q-13 18 -47 65t-104.5 147.5t-170.5 262.5q2 -62 2 -502z" />
    <glyph glyph-name="eng" unicode="&#x14b;" horiz-adv-x="571" 
d="M189 0h-119v503h117l1 -57q25 30 68 49.5t90 19.5q120 0 149 -108q11 -43 11 -132v-275q0 -94 -34 -137q-41 -52 -150 -101l-41 94q19 8 42.5 23t33.5 26q17 17 23 40.5t6 63.5v262q0 71 -9 96q-9 24 -27.5 34.5t-50.5 10.5q-34 0 -64 -16.5t-46 -44.5v-351z" />
    <glyph glyph-name="Omacron" unicode="&#x14c;" horiz-adv-x="765" 
d="M725 358q0 -83 -25 -152t-71.5 -117.5t-111 -74.5t-139.5 -26q-73 0 -135.5 26t-108 74t-70 116.5t-24.5 148.5t25.5 148t72 116.5t111 75t139.5 26.5q76 0 139.5 -26.5t107.5 -75.5t67 -115.5t23 -143.5zM590 350q0 60 -14.5 107.5t-41.5 79.5t-64.5 48.5t-82.5 16.5
q-94 0 -152.5 -65t-58.5 -183q0 -58 15 -105.5t43 -79.5t66 -48.5t83 -16.5q94 0 150.5 64.5t56.5 181.5zM522 786h-275v79h275v-79z" />
    <glyph glyph-name="omacron" unicode="&#x14d;" horiz-adv-x="566" 
d="M528 255q0 -122 -66.5 -194.5t-178.5 -72.5q-55 0 -101 18.5t-78.5 53.5t-49.5 83.5t-17 105.5t18 106.5t51 85.5t79 55.5t101 19.5t100 -19t77 -53.5t48.5 -83t16.5 -105.5zM410 252q0 78 -33 119.5t-92 41.5q-58 0 -93 -42.5t-35 -120.5q0 -76 34 -117.5t92 -41.5
q60 0 93.5 41t33.5 120zM418 605h-266v80h266v-80z" />
    <glyph glyph-name="Obreve" unicode="&#x14e;" horiz-adv-x="765" 
d="M725 358q0 -83 -25 -152t-71.5 -117.5t-111 -74.5t-139.5 -26q-73 0 -135.5 26t-108 74t-70 116.5t-24.5 148.5t25.5 148t72 116.5t111 75t139.5 26.5q76 0 139.5 -26.5t107.5 -75.5t67 -115.5t23 -143.5zM590 350q0 60 -14.5 107.5t-41.5 79.5t-64.5 48.5t-82.5 16.5
q-94 0 -152.5 -65t-58.5 -183q0 -58 15 -105.5t43 -79.5t66 -48.5t83 -16.5q94 0 150.5 64.5t56.5 181.5zM236 906h69q2 -20 10.5 -38.5t26.5 -28t40 -9.5q75 0 82 76h69q-2 -66 -40.5 -107.5t-111.5 -41.5q-26 0 -52 7t-46.5 25t-33 46.5t-13.5 70.5z" />
    <glyph glyph-name="obreve" unicode="&#x14f;" horiz-adv-x="566" 
d="M528 255q0 -122 -66.5 -194.5t-178.5 -72.5q-55 0 -101 18.5t-78.5 53.5t-49.5 83.5t-17 105.5t18 106.5t51 85.5t79 55.5t101 19.5t100 -19t77 -53.5t48.5 -83t16.5 -105.5zM410 252q0 78 -33 119.5t-92 41.5q-58 0 -93 -42.5t-35 -120.5q0 -76 34 -117.5t92 -41.5
q60 0 93.5 41t33.5 120zM141 721h66q3 -42 23.5 -62t49.5 -20q34 0 54.5 20.5t23.5 61.5h65q-1 -40 -16.5 -77.5t-49.5 -58t-78 -20.5q-42 0 -72 18t-47.5 52.5t-18.5 85.5z" />
    <glyph glyph-name="Ohungarumlaut" unicode="&#x150;" horiz-adv-x="765" 
d="M725 358q0 -83 -25 -152t-71.5 -117.5t-111 -74.5t-139.5 -26q-73 0 -135.5 26t-108 74t-70 116.5t-24.5 148.5t25.5 148t72 116.5t111 75t139.5 26.5q76 0 139.5 -26.5t107.5 -75.5t67 -115.5t23 -143.5zM590 350q0 60 -14.5 107.5t-41.5 79.5t-64.5 48.5t-82.5 16.5
q-94 0 -152.5 -65t-58.5 -183q0 -58 15 -105.5t43 -79.5t66 -48.5t83 -16.5q94 0 150.5 64.5t56.5 181.5zM317 760h-97l128 138h126zM500 760h-97l127 138h126z" />
    <glyph glyph-name="ohungarumlaut" unicode="&#x151;" horiz-adv-x="566" 
d="M528 255q0 -122 -66.5 -194.5t-178.5 -72.5q-55 0 -101 18.5t-78.5 53.5t-49.5 83.5t-17 105.5t18 106.5t51 85.5t79 55.5t101 19.5t100 -19t77 -53.5t48.5 -83t16.5 -105.5zM410 252q0 78 -33 119.5t-92 41.5q-58 0 -93 -42.5t-35 -120.5q0 -76 34 -117.5t92 -41.5
q60 0 93.5 41t33.5 120zM226 578h-83l113 170h110zM388 578h-83l113 170h109z" />
    <glyph glyph-name="OE" unicode="&#x152;" horiz-adv-x="998" 
d="M962 0h-439q-77 -8 -144 -8q-73 0 -135.5 22.5t-108 67.5t-70.5 113.5t-25 156.5q0 92 28 162t76.5 114t111.5 65.5t133 21.5q71 0 134 -9h422v-117h-292v-169h271v-113h-271v-190h309v-117zM523 117v472q-52 11 -116 11q-50 0 -92.5 -15t-73.5 -45t-48 -77t-17 -108
q0 -80 27.5 -134.5t78.5 -84.5t122 -30q60 0 119 11z" />
    <glyph glyph-name="oe" unicode="&#x153;" horiz-adv-x="892" 
d="M466 78q-29 -43 -76.5 -66.5t-106.5 -23.5q-55 0 -101 18.5t-78.5 53.5t-49.5 83.5t-17 105.5t18 106.5t51 85.5t79 55.5t101 19.5q63 0 108.5 -23t71.5 -64q31 42 77.5 64.5t100.5 22.5q55 0 96.5 -17.5t67.5 -50t39 -78t13 -100.5v-44h-333q8 -135 165 -135
q40 0 82 14.5t81 40.5v-109q-90 -49 -190 -49q-135 0 -199 90zM409 252q0 78 -32.5 119.5t-91.5 41.5q-58 0 -93 -42.5t-35 -120.5q0 -76 34 -117.5t92 -41.5q60 0 93 41t33 120zM527 306h217q-2 62 -26.5 89t-73.5 27q-46 0 -79.5 -30t-37.5 -86z" />
    <glyph glyph-name="Racute" unicode="&#x154;" horiz-adv-x="641" 
d="M211 0h-131v706h173q110 0 161 -12q74 -17 111 -62t37 -121q0 -131 -132 -184q39 -17 72.5 -67t135.5 -260h-145q-74 151 -103.5 202t-55.5 68q-8 6 -25.5 9.5t-35.5 3.5h-62v-283zM211 391h79q45 0 71 9q66 25 66 98q0 27 -11 48.5t-33 32.5t-45 14q-25 4 -86 4h-41
v-206zM321 760h-105l131 138h141z" />
    <glyph glyph-name="racute" unicode="&#x155;" horiz-adv-x="392" 
d="M189 0h-119v503h116v-70q18 40 52 61.5t79 21.5q34 0 61 -12v-107q-31 20 -72 20q-37 0 -68 -20.5t-49 -59.5v-337zM233 578h-90l113 170h125z" />
    <glyph glyph-name="Rcommaaccent" unicode="&#x156;" horiz-adv-x="641" 
d="M211 0h-131v706h173q110 0 161 -12q74 -17 111 -62t37 -121q0 -131 -132 -184q39 -17 72.5 -67t135.5 -260h-145q-74 151 -103.5 202t-55.5 68q-8 6 -25.5 9.5t-35.5 3.5h-62v-283zM211 391h79q45 0 71 9q66 25 66 98q0 27 -11 48.5t-33 32.5t-45 14q-25 4 -86 4h-41
v-206zM293 -301h-77q67 101 67 236h94q0 -71 -23 -132.5t-61 -103.5z" />
    <glyph glyph-name="rcommaaccent" unicode="&#x157;" horiz-adv-x="392" 
d="M189 0h-119v503h116v-70q18 40 52 61.5t79 21.5q34 0 61 -12v-107q-31 20 -72 20q-37 0 -68 -20.5t-49 -59.5v-337zM98 -301h-77q67 101 67 236h94q0 -71 -23 -132.5t-61 -103.5z" />
    <glyph glyph-name="Rcaron" unicode="&#x158;" horiz-adv-x="641" 
d="M211 0h-131v706h173q110 0 161 -12q74 -17 111 -62t37 -121q0 -131 -132 -184q39 -17 72.5 -67t135.5 -260h-145q-74 151 -103.5 202t-55.5 68q-8 6 -25.5 9.5t-35.5 3.5h-62v-283zM211 391h79q45 0 71 9q66 25 66 98q0 27 -11 48.5t-33 32.5t-45 14q-25 4 -86 4h-41
v-206zM359 898h96l-130 -138h-82l-131 138h97l76 -62z" />
    <glyph glyph-name="rcaron" unicode="&#x159;" horiz-adv-x="392" 
d="M189 0h-119v503h116v-70q18 40 52 61.5t79 21.5q34 0 61 -12v-107q-31 20 -72 20q-37 0 -68 -20.5t-49 -59.5v-337zM281 746h87l-124 -168h-69l-124 168h87l73 -83z" />
    <glyph glyph-name="Sacute" unicode="&#x15a;" horiz-adv-x="559" 
d="M42 57v134q46 -40 113.5 -64t123.5 -24q60 0 88.5 22t28.5 61q0 28 -22 50t-73 44l-90 38q-89 37 -127.5 84t-38.5 120q0 90 64.5 143.5t184.5 53.5q52 0 106.5 -14t89.5 -37v-131q-40 31 -97.5 49.5t-107.5 18.5q-25 0 -51.5 -7.5t-41.5 -27t-15 -44.5q0 -24 13.5 -44
t68.5 -44l90 -38q53 -23 93 -48.5t63.5 -62t23.5 -98.5q0 -43 -15.5 -80t-47.5 -64.5t-81 -43t-112 -15.5q-67 0 -129 20t-102 49zM290 760h-105l131 138h141z" />
    <glyph glyph-name="sacute" unicode="&#x15b;" horiz-adv-x="434" 
d="M39 38v118q36 -32 86 -49.5t93 -17.5q40 0 56.5 10.5t16.5 33.5q0 12 -7 21.5t-26 20t-42 20.5l-57 25q-117 51 -117 151q0 65 49 105t134 40q41 0 84.5 -11.5t76.5 -34.5v-111q-38 27 -82 42.5t-81 15.5q-25 0 -43.5 -10t-18.5 -33q0 -17 13 -30.5t56 -32.5l58 -25
q63 -26 92.5 -60t29.5 -88q0 -69 -51.5 -109.5t-137.5 -40.5q-99 0 -182 50zM237 578h-90l113 170h125z" />
    <glyph glyph-name="Scircumflex" unicode="&#x15c;" horiz-adv-x="559" 
d="M42 57v134q46 -40 113.5 -64t123.5 -24q60 0 88.5 22t28.5 61q0 28 -22 50t-73 44l-90 38q-89 37 -127.5 84t-38.5 120q0 90 64.5 143.5t184.5 53.5q52 0 106.5 -14t89.5 -37v-131q-40 31 -97.5 49.5t-107.5 18.5q-25 0 -51.5 -7.5t-41.5 -27t-15 -44.5q0 -24 13.5 -44
t68.5 -44l90 -38q53 -23 93 -48.5t63.5 -62t23.5 -98.5q0 -43 -15.5 -80t-47.5 -64.5t-81 -43t-112 -15.5q-67 0 -129 20t-102 49zM211 760h-95l130 138h82l131 -138h-97l-77 62z" />
    <glyph glyph-name="scircumflex" unicode="&#x15d;" horiz-adv-x="434" 
d="M39 38v118q36 -32 86 -49.5t93 -17.5q40 0 56.5 10.5t16.5 33.5q0 12 -7 21.5t-26 20t-42 20.5l-57 25q-117 51 -117 151q0 65 49 105t134 40q41 0 84.5 -11.5t76.5 -34.5v-111q-38 27 -82 42.5t-81 15.5q-25 0 -43.5 -10t-18.5 -33q0 -17 13 -30.5t56 -32.5l58 -25
q63 -26 92.5 -60t29.5 -88q0 -69 -51.5 -109.5t-137.5 -40.5q-99 0 -182 50zM158 575h-87l124 168h69l124 -168h-88l-72 83z" />
    <glyph glyph-name="Scedilla" unicode="&#x15e;" horiz-adv-x="559" 
d="M181 -252v63q14 -9 35 -13.5t39 -4.5q20 0 32.5 8t16 18.5t3.5 18.5q0 19 -15.5 31t-44.5 12q-24 0 -42 -6l31 115q-57 5 -109 23.5t-85 43.5v134q46 -40 113.5 -64t123.5 -24q60 0 88.5 22t28.5 61q0 28 -22 50t-73 44l-90 38q-89 37 -127.5 84t-38.5 120
q0 90 64.5 143.5t184.5 53.5q52 0 106.5 -14t89.5 -37v-131q-40 31 -97.5 49.5t-107.5 18.5q-25 0 -51.5 -7.5t-41.5 -27t-15 -44.5q0 -24 13.5 -44t68.5 -44l90 -38q53 -23 93 -48.5t63.5 -62t23.5 -98.5q0 -41 -14.5 -76.5t-43.5 -63t-74 -43.5t-103 -19l-16 -54l14 1
q43 0 67.5 -26t24.5 -71q0 -53 -35 -81t-94 -28q-19 0 -40.5 5.5t-33.5 12.5z" />
    <glyph glyph-name="scedilla" unicode="&#x15f;" horiz-adv-x="434" 
d="M123 -244v60q13 -8 33.5 -12.5t37.5 -4.5q27 0 39.5 13t12.5 31q0 19 -15.5 30.5t-43.5 11.5q-23 0 -41 -6l30 112q-36 4 -72.5 17t-64.5 30v118q36 -32 86 -49.5t93 -17.5q40 0 56.5 10.5t16.5 33.5q0 12 -7 21.5t-26 20t-42 20.5l-57 25q-117 51 -117 151q0 65 49 105
t134 40q41 0 84.5 -11.5t76.5 -34.5v-111q-38 27 -82 42.5t-81 15.5q-25 0 -43.5 -10t-18.5 -33q0 -17 13 -30.5t56 -32.5l58 -25q63 -26 92.5 -60t29.5 -88q0 -67 -48 -107t-129 -43l-14 -51l15 1q39 0 63.5 -25.5t24.5 -68.5q0 -51 -34.5 -78.5t-92.5 -27.5q-19 0 -40 5
t-32 13z" />
    <glyph glyph-name="Scaron" unicode="&#x160;" horiz-adv-x="559" 
d="M42 57v134q46 -40 113.5 -64t123.5 -24q60 0 88.5 22t28.5 61q0 28 -22 50t-73 44l-90 38q-89 37 -127.5 84t-38.5 120q0 90 64.5 143.5t184.5 53.5q52 0 106.5 -14t89.5 -37v-131q-40 31 -97.5 49.5t-107.5 18.5q-25 0 -51.5 -7.5t-41.5 -27t-15 -44.5q0 -24 13.5 -44
t68.5 -44l90 -38q53 -23 93 -48.5t63.5 -62t23.5 -98.5q0 -43 -15.5 -80t-47.5 -64.5t-81 -43t-112 -15.5q-67 0 -129 20t-102 49zM359 898h96l-130 -138h-82l-131 138h97l76 -62z" />
    <glyph glyph-name="scaron" unicode="&#x161;" horiz-adv-x="434" 
d="M39 38v118q36 -32 86 -49.5t93 -17.5q40 0 56.5 10.5t16.5 33.5q0 12 -7 21.5t-26 20t-42 20.5l-57 25q-117 51 -117 151q0 65 49 105t134 40q41 0 84.5 -11.5t76.5 -34.5v-111q-38 27 -82 42.5t-81 15.5q-25 0 -43.5 -10t-18.5 -33q0 -17 13 -30.5t56 -32.5l58 -25
q63 -26 92.5 -60t29.5 -88q0 -69 -51.5 -109.5t-137.5 -40.5q-99 0 -182 50zM292 746h87l-124 -168h-69l-124 168h87l73 -83z" />
    <glyph glyph-name="Tcommaaccent" unicode="&#x162;" horiz-adv-x="588" 
d="M203 -252v63q14 -9 35 -13.5t39 -4.5q20 0 32.5 8t16 18.5t3.5 18.5q0 19 -15.5 31t-44.5 12q-24 0 -42 -6l34 125h-35v586h-201v120h537v-120h-204v-586h-38l-20 -65l14 1q43 0 67.5 -26t24.5 -71q0 -53 -35 -81t-94 -28q-19 0 -40.5 5.5t-33.5 12.5z" />
    <glyph glyph-name="tcommaaccent" unicode="&#x163;" horiz-adv-x="374" 
d="M109 -244v60q13 -8 33.5 -12.5t37.5 -4.5q27 0 39.5 13t12.5 31q0 19 -15.5 30.5t-43.5 11.5q-23 0 -41 -6l33 122q-50 23 -65 73q-13 37 -13 128v204h-64v97h65v143h118v-143h133v-97h-133v-208q0 -47 9 -71q6 -17 22.5 -26.5t40.5 -9.5q44 0 81 22v-99
q-51 -26 -124 -26l-16 1l-14 -52l15 1q39 0 63.5 -25.5t24.5 -68.5q0 -51 -34.5 -78.5t-92.5 -27.5q-19 0 -40 5t-32 13z" />
    <glyph glyph-name="Tcaron" unicode="&#x164;" horiz-adv-x="588" 
d="M352 0h-132v586h-201v120h537v-120h-204v-586zM361 898h96l-130 -138h-82l-131 138h97l76 -62z" />
    <glyph glyph-name="tcaron" unicode="&#x165;" horiz-adv-x="374" 
d="M359 14q-51 -26 -124 -26q-35 0 -65 12t-46.5 32.5t-23.5 41.5q-13 37 -13 128v204h-64v97h65v143h118v-143h133v-97h-133v-208q0 -47 9 -71q6 -17 22.5 -26.5t40.5 -9.5q44 0 81 22v-99zM342 578h-77q67 101 67 236h94q0 -71 -23 -132.5t-61 -103.5z" />
    <glyph glyph-name="Tbar" unicode="&#x166;" horiz-adv-x="588" 
d="M358 0h-132v327h-123v78h123v181h-201v120h537v-120h-204v-181h127v-78h-127v-327z" />
    <glyph glyph-name="tbar" unicode="&#x167;" horiz-adv-x="374" 
d="M359 14q-51 -26 -124 -26q-35 0 -65 12t-46.5 32.5t-23.5 41.5q-13 37 -13 128v39h-58v75h58v90h-64v97h65v143h118v-143h133v-97h-133v-90h124v-75h-124v-43q0 -47 9 -71q6 -17 22.5 -26.5t40.5 -9.5q44 0 81 22v-99z" />
    <glyph glyph-name="Utilde" unicode="&#x168;" horiz-adv-x="730" 
d="M73 706h130v-406q0 -72 14 -113q11 -30 36.5 -50t55.5 -26.5t55 -6.5q124 0 152 92q11 40 11 109v401h130v-405q0 -105 -28 -170q-27 -68 -96.5 -105.5t-171.5 -37.5q-58 0 -107.5 13.5t-90 43t-62.5 80.5q-28 65 -28 170v411zM262 762h-68q3 30 14.5 62.5t35 53
t51.5 20.5q32 0 78 -31q19 -12 30.5 -17.5t22.5 -5.5q27 0 36 53h69q-5 -65 -31.5 -100t-64.5 -35q-19 0 -37 6.5t-47 24.5q-21 13 -30.5 17t-17.5 4q-14 0 -25.5 -14t-15.5 -38z" />
    <glyph glyph-name="utilde" unicode="&#x169;" horiz-adv-x="571" 
d="M501 0h-119v57q-26 -32 -65 -50.5t-87 -18.5q-109 0 -142 81q-9 22 -15 55t-6 104v275h119v-271q0 -67 8 -89q9 -27 28 -39.5t53 -12.5q63 0 106 59v353h120v-503zM196 594h-68q5 64 33 100.5t65 36.5q7 0 21.5 -3.5t51.5 -27.5q35 -23 50 -23q29 0 35 54h64
q-2 -65 -28 -101t-63 -36q-7 0 -24.5 3t-52.5 27q-22 14 -31.5 18.5t-17.5 4.5q-26 0 -35 -53z" />
    <glyph glyph-name="Umacron" unicode="&#x16a;" horiz-adv-x="730" 
d="M73 706h130v-406q0 -72 14 -113q11 -30 36.5 -50t55.5 -26.5t55 -6.5q124 0 152 92q11 40 11 109v401h130v-405q0 -105 -28 -170q-27 -68 -96.5 -105.5t-171.5 -37.5q-58 0 -107.5 13.5t-90 43t-62.5 80.5q-28 65 -28 170v411zM502 786h-275v79h275v-79z" />
    <glyph glyph-name="umacron" unicode="&#x16b;" horiz-adv-x="571" 
d="M501 0h-119v57q-26 -32 -65 -50.5t-87 -18.5q-109 0 -142 81q-9 22 -15 55t-6 104v275h119v-271q0 -67 8 -89q9 -27 28 -39.5t53 -12.5q63 0 106 59v353h120v-503zM418 605h-266v80h266v-80z" />
    <glyph glyph-name="Ubreve" unicode="&#x16c;" horiz-adv-x="730" 
d="M73 706h130v-406q0 -72 14 -113q11 -30 36.5 -50t55.5 -26.5t55 -6.5q124 0 152 92q11 40 11 109v401h130v-405q0 -105 -28 -170q-27 -68 -96.5 -105.5t-171.5 -37.5q-58 0 -107.5 13.5t-90 43t-62.5 80.5q-28 65 -28 170v411zM215 906h69q2 -20 10.5 -38.5t26.5 -28
t40 -9.5q75 0 82 76h69q-2 -66 -40.5 -107.5t-111.5 -41.5q-26 0 -52 7t-46.5 25t-33 46.5t-13.5 70.5z" />
    <glyph glyph-name="ubreve" unicode="&#x16d;" horiz-adv-x="571" 
d="M501 0h-119v57q-26 -32 -65 -50.5t-87 -18.5q-109 0 -142 81q-9 22 -15 55t-6 104v275h119v-271q0 -67 8 -89q9 -27 28 -39.5t53 -12.5q63 0 106 59v353h120v-503zM147 721h66q3 -42 23.5 -62t49.5 -20q34 0 54.5 20.5t23.5 61.5h65q-1 -40 -16.5 -77.5t-49.5 -58
t-78 -20.5q-42 0 -72 18t-47.5 52.5t-18.5 85.5z" />
    <glyph glyph-name="Uring" unicode="&#x16e;" horiz-adv-x="730" 
d="M73 706h130v-406q0 -72 14 -113q11 -30 36.5 -50t55.5 -26.5t55 -6.5q124 0 152 92q11 40 11 109v401h130v-405q0 -105 -28 -170q-27 -68 -96.5 -105.5t-171.5 -37.5q-58 0 -107.5 13.5t-90 43t-62.5 80.5q-28 65 -28 170v411zM454 840q0 -18 -9 -39.5t-32.5 -37
t-53.5 -15.5q-38 0 -64.5 26.5t-26.5 65.5q0 41 27 67.5t68 26.5q40 0 65.5 -26.5t25.5 -67.5zM411 841q0 25 -14.5 40t-37.5 15q-21 0 -35.5 -16t-14.5 -40q0 -23 13.5 -38.5t38.5 -15.5q22 0 36 16t14 39z" />
    <glyph glyph-name="uring" unicode="&#x16f;" horiz-adv-x="571" 
d="M501 0h-119v57q-26 -32 -65 -50.5t-87 -18.5q-109 0 -142 81q-9 22 -15 55t-6 104v275h119v-271q0 -67 8 -89q9 -27 28 -39.5t53 -12.5q63 0 106 59v353h120v-503zM385 670q0 -29 -16 -53t-39.5 -33.5t-43.5 -9.5q-19 0 -42 9.5t-38.5 33.5t-15.5 53q0 20 9 43t34 39
t56 16q42 0 69 -27.5t27 -70.5zM341 671q0 26 -15.5 42.5t-39.5 16.5q-22 0 -37 -17t-15 -43q0 -25 14.5 -42t39.5 -17q23 0 38 17.5t15 42.5z" />
    <glyph glyph-name="Uhungarumlaut" unicode="&#x170;" horiz-adv-x="730" 
d="M73 706h130v-406q0 -72 14 -113q11 -30 36.5 -50t55.5 -26.5t55 -6.5q124 0 152 92q11 40 11 109v401h130v-405q0 -105 -28 -170q-27 -68 -96.5 -105.5t-171.5 -37.5q-58 0 -107.5 13.5t-90 43t-62.5 80.5q-28 65 -28 170v411zM287 760h-97l128 138h126zM470 760h-97
l127 138h126z" />
    <glyph glyph-name="uhungarumlaut" unicode="&#x171;" horiz-adv-x="571" 
d="M501 0h-119v57q-26 -32 -65 -50.5t-87 -18.5q-109 0 -142 81q-9 22 -15 55t-6 104v275h119v-271q0 -67 8 -89q9 -27 28 -39.5t53 -12.5q63 0 106 59v353h120v-503zM222 578h-83l113 170h110zM384 578h-83l113 170h109z" />
    <glyph glyph-name="Uogonek" unicode="&#x172;" horiz-adv-x="730" 
d="M73 706h130v-406q0 -72 14 -113q11 -30 36.5 -50t55.5 -26.5t55 -6.5q124 0 152 92q11 40 11 109v401h130v-405q0 -105 -28 -170q-25 -61 -84 -97.5t-146 -43.5q-85 -66 -85 -127q0 -28 16.5 -46t45.5 -18q33 0 64 17v-60q-15 -10 -38.5 -16.5t-41.5 -6.5q-59 0 -91.5 30
t-32.5 87q0 39 23 75.5t64 64.5q-80 6 -138 40.5t-84 94.5q-28 65 -28 170v411z" />
    <glyph glyph-name="uogonek" unicode="&#x173;" horiz-adv-x="571" 
d="M501 0h-50q-92 -65 -92 -130q0 -27 16 -44t44 -17q34 0 63 16v-58q-11 -7 -32 -14.5t-46 -7.5q-57 0 -89.5 28.5t-32.5 84.5q0 41 26.5 79t73.5 65v55q-26 -32 -65 -50.5t-87 -18.5q-109 0 -142 81q-9 22 -15 55t-6 104v275h119v-271q0 -67 8 -89q9 -27 28 -39.5
t53 -12.5q63 0 106 59v353h120v-503z" />
    <glyph glyph-name="Wcircumflex" unicode="&#x174;" horiz-adv-x="998" 
d="M334 0h-118l-205 706h137q116 -409 143 -517q3 13 9 35t25 88t124 394h107q4 -13 15.5 -48.5t68 -210t78.5 -260.5q2 11 8 37t27 107t103 375h133l-208 -706h-117q-71 217 -108.5 334t-56.5 189q-20 -75 -165 -523zM426 760h-95l130 138h82l131 -138h-97l-77 62z" />
    <glyph glyph-name="wcircumflex" unicode="&#x175;" horiz-adv-x="789" 
d="M271 0h-97l-161 503h133q76 -274 89 -337q17 55 115 337h91q98 -278 104.5 -299t11.5 -38q2 8 5.5 25t13.5 57t70 255h130l-162 -503h-98q-110 307 -124 350q-2 -7 -7 -23.5t-19 -59.5t-95 -267zM320 575h-87l124 168h69l124 -168h-88l-72 83z" />
    <glyph glyph-name="Ycircumflex" unicode="&#x176;" horiz-adv-x="658" 
d="M393 0h-131v291l-258 415h154q108 -176 172 -291q58 102 183 291h142l-262 -415v-291zM251 760h-95l130 138h82l131 -138h-97l-77 62z" />
    <glyph glyph-name="ycircumflex" unicode="&#x177;" horiz-adv-x="530" 
d="M244 -237h-129l98 252l-209 488h133q118 -286 137 -346q30 92 126 346h126zM201 575h-87l124 168h69l124 -168h-88l-72 83z" />
    <glyph glyph-name="Ydieresis" unicode="&#x178;" horiz-adv-x="658" 
d="M393 0h-131v291l-258 415h154q108 -176 172 -291q58 102 183 291h142l-262 -415v-291zM298 829q0 -24 -17 -41.5t-41 -17.5q-25 0 -40.5 17t-15.5 41q0 25 16.5 42.5t41.5 17.5q24 0 40 -16.5t16 -42.5zM476 829q0 -24 -17 -41.5t-41 -17.5q-25 0 -40.5 17t-15.5 41
q0 25 16 42.5t41 17.5t41 -16.5t16 -42.5z" />
    <glyph glyph-name="Zacute" unicode="&#x179;" horiz-adv-x="642" 
d="M613 0h-607q341 523 380 587l-332 -1v120h563l-377 -587q48 1 373 1v-120zM348 760h-105l131 138h141z" />
    <glyph glyph-name="zacute" unicode="&#x17a;" horiz-adv-x="492" 
d="M474 0h-468q228 351 266 407l-230 -1v97h429l-267 -407q37 1 270 1v-97zM279 578h-90l113 170h125z" />
    <glyph glyph-name="Zdotaccent" unicode="&#x17b;" horiz-adv-x="642" 
d="M613 0h-607q341 523 380 587l-332 -1v120h563l-377 -587q48 1 373 1v-120zM382 829q0 -24 -17 -41.5t-41 -17.5q-25 0 -41 17t-16 41q0 25 16.5 42.5t41.5 17.5t41 -16.5t16 -42.5z" />
    <glyph glyph-name="zdotaccent" unicode="&#x17c;" horiz-adv-x="492" 
d="M474 0h-468q228 351 266 407l-230 -1v97h429l-267 -407q37 1 270 1v-97zM317 659q0 -24 -17 -41.5t-41 -17.5q-25 0 -40.5 17t-15.5 41q0 26 16 43t42 17q24 0 40 -16.5t16 -42.5z" />
    <glyph glyph-name="Zcaron" unicode="&#x17d;" horiz-adv-x="642" 
d="M613 0h-607q341 523 380 587l-332 -1v120h563l-377 -587q48 1 373 1v-120zM402 898h96l-130 -138h-82l-131 138h97l76 -62z" />
    <glyph glyph-name="zcaron" unicode="&#x17e;" horiz-adv-x="492" 
d="M474 0h-468q228 351 266 407l-230 -1v97h429l-267 -407q37 1 270 1v-97zM318 746h87l-124 -168h-69l-124 168h87l73 -83z" />
    <glyph glyph-name="longs" unicode="&#x17f;" horiz-adv-x="284" 
d="M189 0h-119v556q0 81 19 123q19 40 60 60t98 20q49 0 87 -16v-103q-31 17 -65 17q-24 0 -42.5 -9t-26.5 -25q-11 -20 -11 -72v-551z" />
    <glyph glyph-name="florin" unicode="&#x192;" horiz-adv-x="509" 
d="M17 -115v109q15 -10 36 -16t36 -6q49 0 63 38q9 23 12 70l21 265h-93v78h97l8 83q7 82 33 124q19 32 58 51.5t89 19.5q28 0 58.5 -7t45.5 -19v-109q-15 12 -38.5 18t-40.5 6q-45 0 -65 -27q-15 -20 -20 -72l-5 -68h112v-78h-119l-20 -273q-5 -70 -20 -111
q-9 -27 -31 -50.5t-58.5 -35t-72.5 -11.5q-20 0 -46 6t-40 15z" />
    <glyph glyph-name="Aringacute" unicode="&#x1fa;" horiz-adv-x="675" 
d="M424 763q0 -17 -6.5 -33.5t-17.5 -27.5l270 -702h-136l-71 180h-249l-69 -180h-140l268 701q-11 11 -17 27.5t-6 34.5q0 38 24.5 63t62.5 25t62.5 -25t24.5 -63zM249 292h178q-4 12 -15.5 42t-32.5 88t-41 118q-18 -55 -89 -248zM370 877h-87l97 122h120zM386 764
q0 24 -14 38.5t-37 14.5q-22 0 -35.5 -15t-13.5 -39q0 -23 13.5 -38.5t37.5 -15.5q22 0 35.5 15.5t13.5 39.5z" />
    <glyph glyph-name="aringacute" unicode="&#x1fb;" horiz-adv-x="515" 
d="M448 0h-113v50q-57 -60 -140 -60q-25 0 -52 7.5t-49.5 26t-38 47.5t-15.5 67q0 37 16.5 68t46.5 49q70 42 229 51v16q0 39 -15 61q-19 29 -74 29q-46 0 -91.5 -15.5t-80.5 -44.5v102q35 29 86 45.5t99 16.5q130 0 172 -87q20 -41 20 -135v-294zM332 117v111
q-108 -7 -149 -32q-14 -8 -21.5 -22.5t-7.5 -29.5q0 -27 16 -43t35 -19t27 -3q54 0 100 38zM361 670q0 -18 -9.5 -40.5t-34 -39t-55.5 -16.5q-19 0 -42 9.5t-39 33.5t-16 53q0 20 9.5 43.5t34 39t56.5 15.5q42 0 69 -27.5t27 -70.5zM316 671q0 27 -15 43t-39 16
q-23 0 -38 -17t-15 -43q0 -25 15 -42t41 -17q22 0 36.5 17.5t14.5 42.5zM286 801h-88l105 155h121z" />
    <glyph glyph-name="AEacute" unicode="&#x1fc;" horiz-adv-x="1017" 
d="M157 0h-157l476 706h488v-120h-293v-164h271v-117h-271v-185h311v-120h-442v194h-255zM355 310h185v283q-26 -45 -185 -283zM676 757h-105l131 138h141z" />
    <glyph glyph-name="aeacute" unicode="&#x1fd;" horiz-adv-x="814" 
d="M776 37q-93 -49 -189 -49q-126 0 -188 74q-84 -73 -188 -73q-52 0 -89.5 18t-59.5 51.5t-22 79.5q0 81 67 119q71 41 229 47v15q0 44 -19 67q-21 26 -73 26q-93 0 -173 -59v100q35 29 85 46t96 17q115 0 151 -70q61 70 165 70q40 0 79 -12t69 -41.5t48 -77.5t18 -117v-41
h-331q0 -14 5 -34t12 -35q35 -67 143 -67q42 0 85 14.5t80 40.5v-109zM357 127q-4 9 -10 29.5t-10 69.5q-111 -2 -153 -28q-30 -18 -30 -53q0 -19 10 -35.5t29.5 -23.5t40.5 -7q65 0 123 48zM449 306h217q-3 62 -26.5 89t-73.5 27t-82.5 -31t-34.5 -85zM442 578h-90l113 170
h125z" />
    <glyph glyph-name="Oslashacute" unicode="&#x1fe;" horiz-adv-x="765" 
d="M139 -48l-54 34l62 89q-51 48 -79 120t-28 158q0 80 25.5 148t72 116.5t111 75t139.5 26.5q100 0 176 -45l57 82l53 -35l-59 -84q25 -23 51.5 -62t42.5 -96.5t16 -120.5q0 -83 -25.5 -152t-72 -117.5t-110.5 -74.5t-139 -26q-102 0 -181 48zM590 350q0 113 -50 179
l-272 -391q22 -16 53 -25t62 -9q95 0 151 64.5t56 181.5zM176 354q0 -104 46 -171l271 390q-21 13 -49.5 21t-56.5 8q-94 0 -152.5 -65t-58.5 -183zM392 760h-105l131 138h141z" />
    <glyph glyph-name="oslashacute" unicode="&#x1ff;" horiz-adv-x="566" 
d="M109 -54l-51 35l50 73q-34 34 -52.5 84.5t-18.5 110.5q0 57 18 106t51 85t79 55.5t101 19.5q32 0 64.5 -8t56.5 -21l50 72l51 -35l-51 -74q34 -34 52.5 -84.5t18.5 -109.5q0 -122 -66.5 -194.5t-178.5 -72.5q-33 0 -66.5 8t-58.5 21zM410 252q0 61 -21 100l-169 -245
q27 -15 63 -15q60 0 93.5 40.5t33.5 119.5zM157 250q0 -59 20 -97l168 244q-26 14 -60 14q-58 0 -93 -41.5t-35 -119.5zM300 578h-90l113 170h125z" />
    <glyph glyph-name="Scommaaccent" unicode="&#x218;" horiz-adv-x="559" 
d="M42 57v134q46 -40 113.5 -64t123.5 -24q60 0 88.5 22t28.5 61q0 28 -22 50t-73 44l-90 38q-89 37 -127.5 84t-38.5 120q0 90 64.5 143.5t184.5 53.5q52 0 106.5 -14t89.5 -37v-131q-40 31 -97.5 49.5t-107.5 18.5q-25 0 -51.5 -7.5t-41.5 -27t-15 -44.5q0 -24 13.5 -44
t68.5 -44l90 -38q53 -23 93 -48.5t63.5 -62t23.5 -98.5q0 -43 -15.5 -80t-47.5 -64.5t-81 -43t-112 -15.5q-67 0 -129 20t-102 49zM241 -301h-77q67 101 67 236h94q0 -71 -23 -132.5t-61 -103.5z" />
    <glyph glyph-name="scommaaccent" unicode="&#x219;" horiz-adv-x="434" 
d="M39 38v118q36 -32 86 -49.5t93 -17.5q40 0 56.5 10.5t16.5 33.5q0 12 -7 21.5t-26 20t-42 20.5l-57 25q-117 51 -117 151q0 65 49 105t134 40q41 0 84.5 -11.5t76.5 -34.5v-111q-38 27 -82 42.5t-81 15.5q-25 0 -43.5 -10t-18.5 -33q0 -17 13 -30.5t56 -32.5l58 -25
q63 -26 92.5 -60t29.5 -88q0 -69 -51.5 -109.5t-137.5 -40.5q-99 0 -182 50zM187 -301h-77q67 101 67 236h94q0 -71 -23 -132.5t-61 -103.5z" />
    <glyph glyph-name="uni021A" unicode="&#x21a;" horiz-adv-x="588" 
d="M352 0h-132v586h-201v120h537v-120h-204v-586zM252 -301h-77q67 101 67 236h94q0 -71 -23 -132.5t-61 -103.5z" />
    <glyph glyph-name="uni021B" unicode="&#x21b;" horiz-adv-x="374" 
d="M359 14q-51 -26 -124 -26q-35 0 -65 12t-46.5 32.5t-23.5 41.5q-13 37 -13 128v204h-64v97h65v143h118v-143h133v-97h-133v-208q0 -47 9 -71q6 -17 22.5 -26.5t40.5 -9.5q44 0 81 22v-99zM171 -301h-77q67 101 67 236h94q0 -71 -23 -132.5t-61 -103.5z" />
    <glyph glyph-name="circumflex" unicode="&#x2c6;" horiz-adv-x="166" 
d="M11 575h-87l124 168h69l124 -168h-88l-72 83z" />
    <glyph glyph-name="caron" unicode="&#x2c7;" horiz-adv-x="166" 
d="M154 746h87l-124 -168h-69l-124 168h87l73 -83z" />
    <glyph glyph-name="breve" unicode="&#x2d8;" horiz-adv-x="166" 
d="M-58 721h66q3 -42 23.5 -62t49.5 -20q34 0 54.5 20.5t23.5 61.5h65q-1 -40 -16.5 -77.5t-49.5 -58t-78 -20.5q-42 0 -72 18t-47.5 52.5t-18.5 85.5z" />
    <glyph glyph-name="dotaccent" unicode="&#x2d9;" horiz-adv-x="166" 
d="M140 659q0 -24 -17 -41.5t-41 -17.5q-25 0 -40.5 17t-15.5 41q0 26 16 43t42 17q24 0 40 -16.5t16 -42.5z" />
    <glyph glyph-name="ring" unicode="&#x2da;" horiz-adv-x="166" 
d="M180 670q0 -29 -16 -53t-39.5 -33.5t-43.5 -9.5q-19 0 -42 9.5t-38.5 33.5t-15.5 53q0 20 9 43t34 39t56 16q42 0 69 -27.5t27 -70.5zM136 671q0 26 -15.5 42.5t-39.5 16.5q-22 0 -37 -17t-15 -43q0 -25 14.5 -42t39.5 -17q23 0 38 17.5t15 42.5z" />
    <glyph glyph-name="ogonek" unicode="&#x2db;" horiz-adv-x="166" 
d="M175 17q-118 -75 -118 -147q0 -27 16 -44t44 -17q34 0 63 16v-58q-11 -7 -32 -14.5t-46 -7.5q-57 0 -89.5 28.5t-32.5 84.5q0 22 11.5 51.5t43 59t75.5 49.5z" />
    <glyph glyph-name="tilde" unicode="&#x2dc;" horiz-adv-x="179" 
d="M-3 594h-68q5 64 33 100.5t65 36.5q7 0 21.5 -3.5t51.5 -27.5q35 -23 50 -23q29 0 35 54h64q-2 -65 -28 -101t-63 -36q-7 0 -24.5 3t-52.5 27q-22 14 -31.5 18.5t-17.5 4.5q-26 0 -35 -53z" />
    <glyph glyph-name="hungarumlaut" unicode="&#x2dd;" horiz-adv-x="166" 
d="M-26 578h-83l113 170h110zM136 578h-83l113 170h109z" />
    <glyph glyph-name="Delta" unicode="&#x394;" horiz-adv-x="743" 
d="M733 0h-724l295 707h140zM373 576q-35 -97 -190 -460h376q-130 313 -186 460z" />
    <glyph glyph-name="Omega" unicode="&#x3a9;" horiz-adv-x="732" 
d="M330 0h-275v112h191q-86 35 -135 109.5t-49 176.5q0 73 23 133.5t65 102.5t99 64t121 22q66 0 121.5 -22.5t95 -64t60.5 -100.5t21 -130q0 -103 -48 -176.5t-136 -114.5h192v-112h-273v147q70 29 109 93.5t39 139.5q0 52 -14 94.5t-39 71t-58.5 43t-71.5 14.5t-72 -14
t-60 -42.5t-40.5 -71.5t-14.5 -98q0 -36 13 -83t49 -88t87 -60v-146z" />
    <glyph glyph-name="mu" unicode="&#x3bc;" horiz-adv-x="593" 
d="M195 -237h-119v740h119v-271q0 -64 8 -89q18 -52 84 -52q32 0 61 17t49 44v351h119v-503h-118v58q-14 -28 -46 -47t-69 -19q-66 0 -88 49v-278z" />
    <glyph glyph-name="pi" unicode="&#x3c0;" horiz-adv-x="622" 
d="M583 408h-63v-222q0 -115 21 -186h-119q-17 72 -17 184v224h-177v-408h-115v408h-60v95h530v-95z" />
    <glyph glyph-name="Wgrave" unicode="&#x1e80;" horiz-adv-x="998" 
d="M334 0h-118l-205 706h137q116 -409 143 -517q3 13 9 35t25 88t124 394h107q4 -13 15.5 -48.5t68 -210t78.5 -260.5q2 11 8 37t27 107t103 375h133l-208 -706h-117q-71 217 -108.5 334t-56.5 189q-20 -75 -165 -523zM588 760h-106l-166 138h140z" />
    <glyph glyph-name="wgrave" unicode="&#x1e81;" horiz-adv-x="789" 
d="M271 0h-97l-161 503h133q76 -274 89 -337q17 55 115 337h91q98 -278 104.5 -299t11.5 -38q2 8 5.5 25t13.5 57t70 255h130l-162 -503h-98q-110 307 -124 350q-2 -7 -7 -23.5t-19 -59.5t-95 -267zM469 578h-90l-148 170h125z" />
    <glyph glyph-name="Wacute" unicode="&#x1e82;" horiz-adv-x="998" 
d="M334 0h-118l-205 706h137q116 -409 143 -517q3 13 9 35t25 88t124 394h107q4 -13 15.5 -48.5t68 -210t78.5 -260.5q2 11 8 37t27 107t103 375h133l-208 -706h-117q-71 217 -108.5 334t-56.5 189q-20 -75 -165 -523zM517 760h-105l131 138h141z" />
    <glyph glyph-name="wacute" unicode="&#x1e83;" horiz-adv-x="789" 
d="M271 0h-97l-161 503h133q76 -274 89 -337q17 55 115 337h91q98 -278 104.5 -299t11.5 -38q2 8 5.5 25t13.5 57t70 255h130l-162 -503h-98q-110 307 -124 350q-2 -7 -7 -23.5t-19 -59.5t-95 -267zM413 578h-90l113 170h125z" />
    <glyph glyph-name="Wdieresis" unicode="&#x1e84;" horiz-adv-x="998" 
d="M334 0h-118l-205 706h137q116 -409 143 -517q3 13 9 35t25 88t124 394h107q4 -13 15.5 -48.5t68 -210t78.5 -260.5q2 11 8 37t27 107t103 375h133l-208 -706h-117q-71 217 -108.5 334t-56.5 189q-20 -75 -165 -523zM469 829q0 -24 -17 -41.5t-41 -17.5q-25 0 -40.5 17
t-15.5 41q0 25 16.5 42.5t41.5 17.5q24 0 40 -16.5t16 -42.5zM647 829q0 -24 -17 -41.5t-41 -17.5q-25 0 -40.5 17t-15.5 41q0 25 16 42.5t41 17.5t41 -16.5t16 -42.5z" />
    <glyph glyph-name="wdieresis" unicode="&#x1e85;" horiz-adv-x="789" 
d="M271 0h-97l-161 503h133q76 -274 89 -337q17 55 115 337h91q98 -278 104.5 -299t11.5 -38q2 8 5.5 25t13.5 57t70 255h130l-162 -503h-98q-110 307 -124 350q-2 -7 -7 -23.5t-19 -59.5t-95 -267zM366 659q0 -24 -17 -41.5t-41 -17.5q-25 0 -41 17t-16 41q0 26 16.5 43
t41.5 17t41 -16.5t16 -42.5zM536 659q0 -24 -17 -41.5t-41 -17.5q-25 0 -40.5 17t-15.5 41q0 26 16 43t41 17t41 -16.5t16 -42.5z" />
    <glyph glyph-name="Ygrave" unicode="&#x1ef2;" horiz-adv-x="658" 
d="M393 0h-131v291l-258 415h154q108 -176 172 -291q58 102 183 291h142l-262 -415v-291zM411 760h-106l-166 138h140z" />
    <glyph glyph-name="ygrave" unicode="&#x1ef3;" horiz-adv-x="530" 
d="M244 -237h-129l98 252l-209 488h133q118 -286 137 -346q30 92 126 346h126zM340 578h-90l-148 170h125z" />
    <glyph glyph-name="endash" unicode="&#x2013;" horiz-adv-x="552" 
d="M507 215h-461v87h461v-87z" />
    <glyph glyph-name="emdash" unicode="&#x2014;" horiz-adv-x="870" 
d="M825 215h-779v87h779v-87z" />
    <glyph glyph-name="quoteleft" unicode="&#x2018;" horiz-adv-x="181" 
d="M112 747h80q-74 -115 -75 -276h-98q0 82 25.5 154t67.5 122z" />
    <glyph glyph-name="quoteright" unicode="&#x2019;" horiz-adv-x="181" 
d="M68 471h-78q73 119 73 276h99q0 -82 -25.5 -154.5t-68.5 -121.5z" />
    <glyph glyph-name="quotesinglbase" unicode="&#x201a;" horiz-adv-x="181" 
d="M68 -135h-78q73 121 73 277h99q0 -82 -25.5 -155t-68.5 -122z" />
    <glyph glyph-name="quotedblleft" unicode="&#x201c;" horiz-adv-x="353" 
d="M284 747h79q-73 -116 -74 -276h-98q0 82 25.5 154.5t67.5 121.5zM112 747h80q-74 -115 -75 -276h-98q0 82 25.5 154t67.5 122z" />
    <glyph glyph-name="quotedblright" unicode="&#x201d;" horiz-adv-x="353" 
d="M68 471h-78q73 119 73 276h99q0 -82 -25.5 -154.5t-68.5 -121.5zM240 471h-79q74 118 74 276h99q0 -82 -26 -154.5t-68 -121.5z" />
    <glyph glyph-name="quotedblbase" unicode="&#x201e;" horiz-adv-x="353" 
d="M68 -135h-78q73 121 73 277h99q0 -82 -25.5 -155t-68.5 -122zM240 -135h-79q74 120 74 277h99q0 -82 -26 -155t-68 -122z" />
    <glyph glyph-name="dagger" unicode="&#x2020;" horiz-adv-x="495" 
d="M292 -84h-89v508h-175v90h175v209h89v-209h175v-90h-175v-508z" />
    <glyph glyph-name="daggerdbl" unicode="&#x2021;" horiz-adv-x="495" 
d="M292 -84h-89v217h-175v89h175v212h-175v89h175v200h89v-200h175v-89h-175v-212h175v-89h-175v-217z" />
    <glyph glyph-name="bullet" unicode="&#x2022;" horiz-adv-x="350" 
d="M307 262q0 -42 -22.5 -76.5t-53 -47.5t-58.5 -13q-25 0 -55.5 13t-52.5 46.5t-22 74.5q0 31 13 63t47 54t74 22q39 0 72 -21.5t45.5 -52.5t12.5 -62z" />
    <glyph glyph-name="ellipsis" unicode="&#x2026;" horiz-adv-x="910" 
d="M242 70q0 -32 -22.5 -55t-55.5 -23q-32 0 -53 22t-21 54q0 33 22.5 56t54.5 23q31 0 53 -22t22 -55zM532 70q0 -32 -23 -55t-56 -23q-32 0 -53 22t-21 54q0 33 22.5 56t55.5 23q31 0 53 -22t22 -55zM820 70q0 -32 -22.5 -55t-55.5 -23q-32 0 -53 22t-21 54q0 33 22.5 56
t54.5 23t53.5 -22t21.5 -55z" />
    <glyph glyph-name="perthousand" unicode="&#x2030;" horiz-adv-x="1204" 
d="M343 482q0 -53 -16.5 -102.5t-54.5 -77t-88 -27.5q-51 0 -86 25t-54 71t-19 111q0 68 20.5 115.5t56 73t85.5 25.5q156 0 156 -214zM257 483q0 69 -16.5 102.5t-55.5 33.5q-35 0 -53.5 -35.5t-18.5 -102.5t19 -99.5t53 -32.5q72 0 72 134zM272 -12h-61l347 713h60z
M800 200q0 -53 -16.5 -102.5t-54 -77t-87.5 -27.5q-52 0 -87 25t-54 71t-19 111q0 68 20.5 115.5t56 73t85.5 25.5q156 0 156 -214zM714 201q0 69 -16.5 102.5t-54.5 33.5q-13 0 -30 -8.5t-29.5 -40t-12.5 -89.5q0 -132 72 -132q71 0 71 134zM1179 200q0 -53 -16.5 -102.5
t-54.5 -77t-88 -27.5q-52 0 -87 25t-54 71t-19 111q0 68 20.5 115.5t56 73t85.5 25.5q75 0 116 -52t41 -162zM1092 201q0 69 -16.5 102.5t-54.5 33.5q-13 0 -30 -8.5t-29.5 -40t-12.5 -89.5q0 -67 19 -99.5t53 -32.5q71 0 71 134z" />
    <glyph glyph-name="guilsinglleft" unicode="&#x2039;" horiz-adv-x="262" 
d="M240 74h-93l-126 184l125 184h94l-121 -184z" />
    <glyph glyph-name="guilsinglright" unicode="&#x203a;" horiz-adv-x="262" 
d="M23 442h95l124 -184l-123 -184h-95l120 184z" />
    <glyph glyph-name="fraction" unicode="&#x2044;" horiz-adv-x="89" 
d="M-99 -12h-59l347 713h58z" />
    <glyph glyph-name="uni2070" unicode="&#x2070;" 
d="M343 620q0 -53 -16.5 -102.5t-54.5 -77t-88 -27.5q-51 0 -86 25t-54 71t-19 111q0 68 20.5 115.5t56 73t85.5 25.5q156 0 156 -214zM257 621q0 69 -16.5 102.5t-55.5 33.5q-35 0 -53.5 -35.5t-18.5 -102.5t19 -99.5t53 -32.5q72 0 72 134z" />
    <glyph glyph-name="uni2074" unicode="&#x2074;" 
d="M291 420h-87v104h-183v52l193 251h77v-240h56v-63h-56v-104zM204 587q0 114 1 140l-104 -140h103z" />
    <glyph glyph-name="uni2075" unicode="&#x2075;" 
d="M42 438v77q51 -29 112 -29q40 0 62.5 18t22.5 48q0 29 -22 44.5t-60 15.5q-26 0 -54.5 -4.5t-47.5 -13.5l22 233h224v-74h-162l-9 -88q21 9 61 9q56 0 94.5 -30.5t38.5 -90.5q0 -67 -43.5 -103.5t-120.5 -36.5q-71 0 -118 25z" />
    <glyph glyph-name="uni2076" unicode="&#x2076;" 
d="M116 633q11 21 38.5 36t59.5 15q53 0 89 -33t36 -97q0 -65 -40.5 -103t-106.5 -38q-73 0 -117 50.5t-44 149.5q0 55 14.5 97.5t40 69.5t59 40.5t71.5 13.5q63 0 97 -22v-79q-37 24 -89 24q-54 0 -80 -31.5t-28 -92.5zM120 573q2 -33 11 -52q17 -37 59 -37q28 0 46.5 18.5
t18.5 53.5q0 33 -17 48.5t-47 15.5q-26 0 -45 -13t-26 -34z" />
    <glyph glyph-name="uni2077" unicode="&#x2077;" 
d="M176 420h-88l141 333h-199v74h312z" />
    <glyph glyph-name="uni2078" unicode="&#x2078;" 
d="M101 631q-30 12 -45.5 36t-15.5 54q0 32 18 57t50.5 40.5t75.5 15.5q45 0 77 -14.5t48.5 -38.5t16.5 -58q0 -29 -16.5 -54.5t-48.5 -36.5q19 -5 37 -17.5t28 -33.5t10 -45q0 -55 -43 -89t-113 -34q-29 0 -65 9.5t-61.5 37t-25.5 70.5q0 35 19.5 62t53.5 39zM251 713
q0 25 -18.5 39.5t-49.5 14.5q-28 0 -47.5 -15t-19.5 -39t17.5 -40t49.5 -16t50 15t18 41zM257 543q0 28 -20.5 42.5t-54.5 14.5q-33 0 -53 -16t-20 -43q0 -15 7.5 -29t25 -22t39.5 -8q32 0 54 16t22 45z" />
    <glyph glyph-name="uni2079" unicode="&#x2079;" 
d="M248 612q-11 -20 -39 -34t-61 -14q-53 0 -88 32t-35 96q0 65 41 103.5t109 38.5q35 0 64.5 -12.5t50 -37t32 -63t11.5 -87.5q0 -69 -22 -117.5t-63.5 -76t-100.5 -27.5q-66 0 -99 21v80q38 -25 93 -25q28 0 52.5 9.5t39 38.5t15.5 75zM243 674q0 30 -9 51
q-7 18 -22.5 27.5t-36.5 9.5q-28 0 -47.5 -18.5t-19.5 -52.5q0 -33 18 -49t47 -16q26 0 45.5 13.5t24.5 34.5z" />
    <glyph glyph-name="uni207D" unicode="&#x207d;" horiz-adv-x="224" 
d="M165 326q-24 18 -51.5 47t-47 67t-27.5 77t-8 75q0 49 13 100.5t46 96.5t74 73h54q-124 -101 -124 -269q0 -38 11 -85.5t41 -95.5t72 -86h-53z" />
    <glyph glyph-name="uni207E" unicode="&#x207e;" horiz-adv-x="224" 
d="M6 862h53q65 -45 99.5 -115t34.5 -153q0 -48 -13.5 -99t-47 -95.5t-73.5 -73.5h-53q60 52 92.5 119.5t32.5 148.5q0 83 -33 151t-92 117z" />
    <glyph glyph-name="uni207F" unicode="&#x207f;" horiz-adv-x="360" 
d="M125 282h-82v298h81v-33q16 18 40.5 29t52.5 11q76 0 95 -65q6 -20 6 -78v-162h-83v159q0 41 -4 53q-8 25 -44 25q-19 0 -36 -9t-26 -24v-204z" />
    <glyph glyph-name="uni2080" unicode="&#x2080;" 
d="M343 74q0 -53 -16.5 -102.5t-54.5 -77t-88 -27.5q-51 0 -86 25t-54 71t-19 111q0 68 20.5 115.5t56 73t85.5 25.5q156 0 156 -214zM257 75q0 69 -16.5 102.5t-55.5 33.5q-35 0 -53.5 -35.5t-18.5 -102.5t19 -99.5t53 -32.5q72 0 72 134z" />
    <glyph glyph-name="uni2081" unicode="&#x2081;" 
d="M241 -126h-92v307l-76 -30v78l168 62v-417z" />
    <glyph glyph-name="uni2082" unicode="&#x2082;" 
d="M331 -126h-315q124 131 165 185q39 50 39 88q0 32 -19 48t-52 16q-26 0 -56 -10.5t-54 -28.5v73q27 20 61.5 31.5t69.5 11.5q25 0 49.5 -6t46 -22t31.5 -42t10 -52q0 -67 -53 -128q-27 -33 -84 -91q32 1 161 1v-74z" />
    <glyph glyph-name="uni2083" unicode="&#x2083;" 
d="M38 -108v77q24 -15 57.5 -22.5t61.5 -7.5q38 0 55.5 15.5t17.5 41.5q0 19 -12.5 31.5t-36.5 16.5q-25 5 -60 5h-14v66h14q41 0 56 5q38 12 38 46q0 21 -16 34.5t-50 13.5q-24 0 -52 -8.5t-50 -22.5v71q22 15 56.5 24.5t63.5 9.5q64 0 98.5 -29t34.5 -78q0 -31 -21 -57
t-62 -36q37 -5 60.5 -21.5t31 -37.5t7.5 -40q0 -55 -42.5 -88.5t-119.5 -33.5q-29 0 -62.5 6.5t-53.5 18.5z" />
    <glyph glyph-name="uni2084" unicode="&#x2084;" 
d="M291 -126h-87v104h-183v52l193 251h77v-240h56v-63h-56v-104zM204 41q0 114 1 140l-104 -140h103z" />
    <glyph glyph-name="uni2085" unicode="&#x2085;" 
d="M42 -108v77q51 -29 112 -29q40 0 62.5 18t22.5 48q0 29 -22 44.5t-60 15.5q-26 0 -54.5 -4.5t-47.5 -13.5l22 233h224v-74h-162l-9 -88q21 9 61 9q56 0 94.5 -30.5t38.5 -90.5q0 -67 -43.5 -103.5t-120.5 -36.5q-71 0 -118 25z" />
    <glyph glyph-name="uni2086" unicode="&#x2086;" 
d="M116 87q11 21 38.5 36t59.5 15q53 0 89 -33t36 -97q0 -65 -40.5 -103t-106.5 -38q-73 0 -117 50.5t-44 149.5q0 55 14.5 97.5t40 69.5t59 40.5t71.5 13.5q63 0 97 -22v-79q-37 24 -89 24q-54 0 -80 -31.5t-28 -92.5zM120 27q2 -33 11 -52q17 -37 59 -37q28 0 46.5 18.5
t18.5 53.5q0 33 -17 48.5t-47 15.5q-26 0 -45 -13t-26 -34z" />
    <glyph glyph-name="uni2087" unicode="&#x2087;" 
d="M176 -126h-88l141 333h-199v74h312z" />
    <glyph glyph-name="uni2088" unicode="&#x2088;" 
d="M101 85q-30 12 -45.5 36t-15.5 54q0 32 18 57t50.5 40.5t75.5 15.5q45 0 77 -14.5t48.5 -38.5t16.5 -58q0 -29 -16.5 -54.5t-48.5 -36.5q19 -5 37 -17.5t28 -33.5t10 -45q0 -55 -43 -89t-113 -34q-29 0 -65 9.5t-61.5 37t-25.5 70.5q0 35 19.5 62t53.5 39zM251 167
q0 25 -18.5 39.5t-49.5 14.5q-28 0 -47.5 -15t-19.5 -39t17.5 -40t49.5 -16t50 15t18 41zM257 -3q0 28 -20.5 42.5t-54.5 14.5q-33 0 -53 -16t-20 -43q0 -15 7.5 -29t25 -22t39.5 -8q32 0 54 16t22 45z" />
    <glyph glyph-name="uni2089" unicode="&#x2089;" 
d="M248 66q-11 -20 -39 -34t-61 -14q-53 0 -88 32t-35 96q0 65 41 103.5t109 38.5q35 0 64.5 -12.5t50 -37t32 -63t11.5 -87.5q0 -69 -22 -117.5t-63.5 -76t-100.5 -27.5q-66 0 -99 21v80q38 -25 93 -25q28 0 52.5 9.5t39 38.5t15.5 75zM243 128q0 30 -9 51
q-7 18 -22.5 27.5t-36.5 9.5q-28 0 -47.5 -18.5t-19.5 -52.5q0 -33 18 -49t47 -16q26 0 45.5 13.5t24.5 34.5z" />
    <glyph glyph-name="uni208D" unicode="&#x208d;" horiz-adv-x="224" 
d="M165 -220q-24 18 -51.5 47t-47 67t-27.5 77t-8 75q0 49 13 100.5t46 96.5t74 73h54q-124 -101 -124 -269q0 -38 11 -85.5t41 -95.5t72 -86h-53z" />
    <glyph glyph-name="uni208E" unicode="&#x208e;" horiz-adv-x="224" 
d="M6 316h53q65 -45 99.5 -115t34.5 -153q0 -48 -13.5 -99t-47 -95.5t-73.5 -73.5h-53q60 52 92.5 119.5t32.5 148.5q0 83 -33 151t-92 117z" />
    <glyph glyph-name="Euro" unicode="&#x20ac;" horiz-adv-x="682" 
d="M491 246h-212q9 -36 30 -71t60.5 -55.5t89.5 -20.5q95 0 169 50v-113q-37 -24 -82 -35.5t-105 -11.5q-42 0 -86.5 11.5t-84.5 40.5t-71.5 79.5t-45.5 125.5h-73v62h66l-1 37l1 40h-66v62h74q12 60 38 109t63.5 83.5t86 53t104.5 18.5q120 0 183 -47v-123q-60 57 -171 57
q-70 0 -116 -39t-64 -112h213v-62h-222l-1 -38l1 -39h222v-62z" />
    <glyph glyph-name="afii61289" unicode="&#x2113;" horiz-adv-x="485" 
d="M437 31q-30 -21 -68 -32t-74 -11q-72 0 -120 42t-67 128q-25 -18 -74 -48v101q39 26 55 40q-8 82 -8 132q0 160 52 239t148 79q71 0 110 -42t39 -108q0 -76 -42.5 -151t-178.5 -182q13 -130 106 -130q31 0 63.5 13t58.5 32v-102zM193 324q58 50 88.5 95t39 74.5t8.5 51.5
q0 31 -15 48t-38 17q-41 0 -63.5 -48.5t-22.5 -142.5q0 -54 3 -95z" />
    <glyph glyph-name="trademark" unicode="&#x2122;" horiz-adv-x="882" 
d="M244 328h-77v308h-108v70h293v-70h-108v-308zM489 328h-75v378h80q100 -149 106 -159q65 101 105 159h78v-378h-74q0 181 2 267l-113 -164q-93 136 -110 164q1 -43 1 -267z" />
    <glyph glyph-name="uni2126" unicode="&#x2126;" horiz-adv-x="732" 
d="M330 0h-275v112h191q-86 35 -135 109.5t-49 176.5q0 73 23 133.5t65 102.5t99 64t121 22q66 0 121.5 -22.5t95 -64t60.5 -100.5t21 -130q0 -103 -48 -176.5t-136 -114.5h192v-112h-273v147q70 29 109 93.5t39 139.5q0 52 -14 94.5t-39 71t-58.5 43t-71.5 14.5t-72 -14
t-60 -42.5t-40.5 -71.5t-14.5 -98q0 -36 13 -83t49 -88t87 -60v-146z" />
    <glyph glyph-name="estimated" unicode="&#x212e;" horiz-adv-x="878" 
d="M838 336h-644q-6 0 -6 -5v-195q0 -10 10 -22q46 -48 109.5 -75.5t134.5 -27.5q74 0 141.5 31t113.5 84h59q-40 -46 -98 -79.5t-115.5 -46t-101.5 -12.5q-80 0 -153.5 27.5t-128.5 77t-86 115t-31 137.5q0 71 31 136.5t86 115t128.5 77t153.5 27.5q59 0 125.5 -18.5
t126.5 -63t92.5 -98t42.5 -98t10 -78.5v-9zM693 361v195q0 13 -11 24q-46 46 -109 72t-131 26q-70 0 -133 -27t-110 -75q-11 -11 -11 -24v-191q0 -2 2 -3.5t4 -1.5h494q2 0 3.5 1.5t1.5 3.5z" />
    <glyph glyph-name="onethird" unicode="&#x2153;" horiz-adv-x="815" 
d="M233 -12h-59l347 713h58zM241 282h-92v307l-76 -30v78l168 62v-417zM471 18v77q24 -15 57.5 -22.5t61.5 -7.5q38 0 55.5 15.5t17.5 41.5q0 19 -12.5 31.5t-36.5 16.5q-25 5 -60 5h-14v66h14q41 0 56 5q38 12 38 46q0 21 -16 34.5t-50 13.5q-24 0 -52 -8.5t-50 -22.5v71
q22 15 56.5 24.5t63.5 9.5q64 0 98.5 -29t34.5 -78q0 -31 -21 -57t-62 -36q37 -5 60.5 -21.5t31 -37.5t7.5 -40q0 -55 -42.5 -88.5t-119.5 -33.5q-29 0 -62.5 6.5t-53.5 18.5z" />
    <glyph glyph-name="twothirds" unicode="&#x2154;" horiz-adv-x="815" 
d="M301 -12h-59l347 713h58zM349 282h-315q124 131 165 185q39 50 39 88q0 32 -19 48t-52 16q-26 0 -56 -10.5t-54 -28.5v73q27 20 61.5 31.5t69.5 11.5q25 0 49.5 -6t46 -22t31.5 -42t10 -52q0 -67 -53 -128q-28 -33 -84 -91q32 1 161 1v-74zM524 18v77q24 -15 57.5 -22.5
t61.5 -7.5q38 0 55.5 15.5t17.5 41.5q0 19 -12.5 31.5t-36.5 16.5q-25 5 -60 5h-14v66h14q41 0 56 5q38 12 38 46q0 21 -16 34.5t-50 13.5q-24 0 -52 -8.5t-50 -22.5v71q22 15 56.5 24.5t63.5 9.5q64 0 98.5 -29t34.5 -78q0 -31 -21 -57t-62 -36q37 -5 60.5 -21.5t31 -37.5
t7.5 -40q0 -55 -42.5 -88.5t-119.5 -33.5q-29 0 -62.5 6.5t-53.5 18.5z" />
    <glyph glyph-name="oneeighth" unicode="&#x215b;" horiz-adv-x="815" 
d="M233 -12h-59l347 713h58zM231 282h-92v307l-76 -30v78l168 62v-417zM536 211q-30 12 -45.5 36t-15.5 54q0 32 18 57t50.5 40.5t75.5 15.5q45 0 77 -14.5t48.5 -38.5t16.5 -58q0 -29 -16.5 -54.5t-48.5 -36.5q19 -5 37 -17.5t28 -33.5t10 -45q0 -55 -43 -89t-113 -34
q-29 0 -65 9.5t-61.5 37t-25.5 70.5q0 35 19.5 62t53.5 39zM686 293q0 25 -18.5 39.5t-49.5 14.5q-28 0 -47.5 -15t-19.5 -39t17.5 -40t49.5 -16t50 15t18 41zM692 123q0 28 -20.5 42.5t-54.5 14.5q-33 0 -53 -16t-20 -43q0 -15 7.5 -29t25 -22t39.5 -8q32 0 54 16t22 45z
" />
    <glyph glyph-name="threeeighths" unicode="&#x215c;" horiz-adv-x="815" 
d="M270 -12h-59l347 713h58zM58 300v77q24 -15 57.5 -22.5t61.5 -7.5q38 0 55.5 15.5t17.5 41.5q0 19 -12.5 31.5t-36.5 16.5q-25 5 -60 5h-14v66h14q41 0 56 5q38 12 38 46q0 21 -16 34.5t-50 13.5q-24 0 -52 -8.5t-50 -22.5v71q22 15 56.5 24.5t63.5 9.5q64 0 98.5 -29
t34.5 -78q0 -31 -21 -57t-62 -36q37 -5 60.5 -21.5t31 -37.5t7.5 -40q0 -55 -42.5 -88.5t-119.5 -33.5q-29 0 -62.5 6.5t-53.5 18.5zM554 211q-30 12 -45.5 36t-15.5 54q0 32 18 57t50.5 40.5t75.5 15.5q45 0 77 -14.5t48.5 -38.5t16.5 -58q0 -29 -16.5 -54.5t-48.5 -36.5
q19 -5 37 -17.5t28 -33.5t10 -45q0 -55 -43 -89t-113 -34q-29 0 -65 9.5t-61.5 37t-25.5 70.5q0 35 19.5 62t53.5 39zM704 293q0 25 -18.5 39.5t-49.5 14.5q-28 0 -47.5 -15t-19.5 -39t17.5 -40t49.5 -16t50 15t18 41zM710 123q0 28 -20.5 42.5t-54.5 14.5q-33 0 -53 -16
t-20 -43q0 -15 7.5 -29t25 -22t39.5 -8q32 0 54 16t22 45z" />
    <glyph glyph-name="fiveeighths" unicode="&#x215d;" horiz-adv-x="815" 
d="M261 -12h-59l347 713h58zM49 300v77q51 -29 112 -29q40 0 62.5 18t22.5 48q0 29 -22 44.5t-60 15.5q-26 0 -54.5 -4.5t-47.5 -13.5l22 233h224v-74h-162l-9 -88q21 9 61 9q56 0 94.5 -30.5t38.5 -90.5q0 -67 -43.5 -103.5t-120.5 -36.5q-71 0 -118 25zM544 211
q-30 12 -45.5 36t-15.5 54q0 32 18 57t50.5 40.5t75.5 15.5q45 0 77 -14.5t48.5 -38.5t16.5 -58q0 -29 -16.5 -54.5t-48.5 -36.5q19 -5 37 -17.5t28 -33.5t10 -45q0 -55 -43 -89t-113 -34q-29 0 -65 9.5t-61.5 37t-25.5 70.5q0 35 19.5 62t53.5 39zM694 293q0 25 -18.5 39.5
t-49.5 14.5q-28 0 -47.5 -15t-19.5 -39t17.5 -40t49.5 -16t50 15t18 41zM700 123q0 28 -20.5 42.5t-54.5 14.5q-33 0 -53 -16t-20 -43q0 -15 7.5 -29t25 -22t39.5 -8q32 0 54 16t22 45z" />
    <glyph glyph-name="seveneighths" unicode="&#x215e;" horiz-adv-x="815" 
d="M232 -12h-59l347 713h58zM197 282h-88l141 333h-199v74h312zM522 211q-30 12 -45.5 36t-15.5 54q0 32 18 57t50.5 40.5t75.5 15.5q45 0 77 -14.5t48.5 -38.5t16.5 -58q0 -29 -16.5 -54.5t-48.5 -36.5q19 -5 37 -17.5t28 -33.5t10 -45q0 -55 -43 -89t-113 -34
q-29 0 -65 9.5t-61.5 37t-25.5 70.5q0 35 19.5 62t53.5 39zM672 293q0 25 -18.5 39.5t-49.5 14.5q-28 0 -47.5 -15t-19.5 -39t17.5 -40t49.5 -16t50 15t18 41zM678 123q0 28 -20.5 42.5t-54.5 14.5q-33 0 -53 -16t-20 -43q0 -15 7.5 -29t25 -22t39.5 -8q32 0 54 16t22 45z
" />
    <glyph glyph-name="arrowleft" unicode="&#x2190;" horiz-adv-x="783" 
d="M749 410v-114q-446 0 -527 1q37 -31 231 -226l-71 -74l-355 356l355 355l71 -75q-11 -11 -38 -37t-102.5 -100.5t-90.5 -86.5z" />
    <glyph glyph-name="arrowup" unicode="&#x2191;" horiz-adv-x="783" 
d="M448 0h-112q0 445 1 525q-3 -3 -9.5 -10.5t-29 -31t-188.5 -188.5l-74 73l356 355l355 -355l-74 -73l-226 230q1 -84 1 -525z" />
    <glyph glyph-name="arrowright" unicode="&#x2192;" horiz-adv-x="783" 
d="M34 296v114l527 -1q-8 7 -23.5 21.5t-84.5 82t-123 120.5l71 75l355 -355l-355 -356l-71 74q194 195 231 226q-81 -1 -527 -1z" />
    <glyph glyph-name="arrowdown" unicode="&#x2193;" horiz-adv-x="783" 
d="M336 706h112q0 -441 -1 -525l226 230l74 -73l-355 -355l-356 355l74 73q130 -129 171.5 -171t55.5 -59q-1 80 -1 525z" />
    <glyph glyph-name="uni2196" unicode="&#x2196;" horiz-adv-x="783" 
d="M688 132l-80 -80q-331 331 -368 370l1 -322h-104v503h503v-101q-298 0 -328 1q148 -142 376 -371z" />
    <glyph glyph-name="uni2197" unicode="&#x2197;" horiz-adv-x="783" 
d="M175 52l-80 80q229 229 376 371q-30 -1 -328 -1v101h503v-503h-104l1 322q-37 -39 -368 -370z" />
    <glyph glyph-name="uni2198" unicode="&#x2198;" horiz-adv-x="783" 
d="M96 574l79 80l32.5 -32.5t166 -165.5t170.5 -172q-2 64 -2 322h104v-503h-503v101q299 0 329 -1q-120 114 -376 371z" />
    <glyph glyph-name="uni2199" unicode="&#x2199;" horiz-adv-x="783" 
d="M608 659l80 -80q-233 -232 -286 -284.5t-90 -86.5q30 1 328 1v-102h-503v504h104l-1 -322q37 39 368 370z" />
    <glyph glyph-name="partialdiff" unicode="&#x2202;" horiz-adv-x="570" 
d="M399 307q-20 22 -51.5 34t-62.5 12q-36 0 -67 -20t-43.5 -52t-12.5 -65q0 -34 11 -65t39 -49t62 -18q39 0 66 21t36.5 43.5t11.5 32.5q11 51 11 126zM129 584l-23 83q38 18 83 25.5t87 7.5q121 0 177 -92.5t56 -301.5q0 -106 -28 -175.5t-80 -106t-131 -36.5
q-46 0 -85 14.5t-68 43t-45 70t-16 92.5q0 43 11.5 85t38 74t68.5 51.5t100 19.5q71 0 118 -38q-6 212 -136 212q-27 0 -65 -7.5t-62 -20.5z" />
    <glyph glyph-name="uni2206" unicode="&#x2206;" horiz-adv-x="743" 
d="M733 0h-724l295 706h140zM373 576q-35 -97 -190 -460h376q-130 313 -186 460z" />
    <glyph glyph-name="product" unicode="&#x220f;" horiz-adv-x="714" 
d="M635 -98h-127v684h-302v-684h-127v804h556v-804z" />
    <glyph glyph-name="summation" unicode="&#x2211;" horiz-adv-x="599" 
d="M574 -99h-560l277 423l-257 382h523v-120h-297l180 -262l-203 -303h337v-120z" />
    <glyph glyph-name="minus" unicode="&#x2212;" horiz-adv-x="701" 
d="M601 255h-501v80h501v-80z" />
    <glyph glyph-name="uni2215" unicode="&#x2215;" horiz-adv-x="89" 
d="M-99 -12h-59l347 713h58z" />
    <glyph glyph-name="uni2219" unicode="&#x2219;" horiz-adv-x="234" 
d="M200 260q0 -32 -23 -55.5t-56 -23.5q-32 0 -53 22.5t-21 54.5q0 33 22.5 55.5t55.5 22.5q31 0 53 -22t22 -54z" />
    <glyph glyph-name="radical" unicode="&#x221a;" horiz-adv-x="647" 
d="M376 -178h-71l-153 272l-63 -34l-28 56l142 77l136 -252l171 765h74z" />
    <glyph glyph-name="infinity" unicode="&#x221e;" horiz-adv-x="730" 
d="M366 348q40 50 81 75t89 25q63 0 102.5 -43.5t39.5 -110.5q0 -68 -40 -112t-106 -44q-34 0 -72 17.5t-93 80.5q-57 -63 -96 -80.5t-75 -17.5q-64 0 -104.5 40t-40.5 110q0 71 42 115.5t108 44.5q46 0 83.5 -24t81.5 -76zM320 292q-39 47 -63 66t-56 19q-34 0 -56.5 -24
t-22.5 -61q0 -36 22 -59.5t55 -23.5q25 0 52.5 15t68.5 68zM412 292q26 -33 55 -58t64 -25q33 0 55 22.5t22 58.5q0 40 -21 63.5t-56 23.5q-55 0 -119 -85z" />
    <glyph glyph-name="integral" unicode="&#x222b;" horiz-adv-x="346" 
d="M140 -13l-2 80l-18 418l-3 84q0 65 34.5 102t103.5 37q44 0 66 -7v-82q-29 9 -52 9q-27 0 -40.5 -13.5t-16 -33t-2.5 -27.5l2 -65l16 -418l4 -97q0 -71 -35.5 -102.5t-103.5 -31.5q-27 0 -59 8v84q28 -10 51 -10q27 0 41 14t14 51z" />
    <glyph glyph-name="approxequal" unicode="&#x2248;" horiz-adv-x="701" 
d="M138 316l-57 42q80 123 163 123q17 0 40.5 -6.5t77.5 -38.5q59 -36 95 -36q30 0 52.5 19t51.5 65l60 -39q-27 -46 -55 -76t-57 -41t-54 -11q-48 0 -116 40q-64 38 -96 38q-27 0 -52 -18.5t-53 -60.5zM138 110l-57 42q79 122 163 122q17 0 40.5 -6.5t77.5 -38.5
q57 -35 95 -35q30 0 52.5 18.5t51.5 64.5l60 -37q-27 -46 -55 -76.5t-57 -41.5t-54 -11q-48 0 -116 40q-64 38 -96 38q-26 0 -51.5 -18.5t-53.5 -60.5z" />
    <glyph glyph-name="notequal" unicode="&#x2260;" horiz-adv-x="701" 
d="M242 3h-69l73 146h-146v81h185l65 130h-250v81h288l67 134h68l-66 -134h144v-81h-183l-65 -130h248v-81h-286z" />
    <glyph glyph-name="lessequal" unicode="&#x2264;" horiz-adv-x="701" 
d="M571 144l-454 205v78l454 210v-91l-365 -157l365 -152v-93zM571 0h-454v80h454v-80z" />
    <glyph glyph-name="greaterequal" unicode="&#x2265;" horiz-adv-x="701" 
d="M129 637l454 -205v-79l-454 -209v91l366 157l-366 152v93zM584 0h-454v80h454v-80z" />
    <glyph glyph-name="lozenge" unicode="&#x25ca;" horiz-adv-x="716" 
d="M317 706h85l179 -351l-179 -355h-85l-184 354zM226 354l135 -262l130 263l-132 261z" />
    <glyph glyph-name="uniF6C3" unicode="&#xf6c3;" horiz-adv-x="168" 
d="M84 -301h-77q67 101 67 236h94q0 -71 -23 -132.5t-61 -103.5z" />
    <glyph glyph-name="dotlessi.case" horiz-adv-x="291" 
d="M211 0h-131v706h131v-706z" />
    <glyph glyph-name="Euro.dnom" horiz-adv-x="439" 
d="M318 144h-128q12 -38 40 -58t68 -20q27 0 55.5 7.5t49.5 20.5v-72q-43 -28 -118 -28q-72 0 -120.5 39.5t-62.5 110.5h-46v38h40v22l1 22h-41v39h46q16 71 65.5 112.5t120.5 41.5q77 0 114 -26v-80q-20 17 -49.5 24t-55.5 7q-40 0 -68 -20.5t-39 -58.5h128v-39h-136v-22
l1 -22h135v-38z" />
    <glyph glyph-name="Euro.sinf" horiz-adv-x="439" 
d="M318 18h-128q12 -38 40 -58t68 -20q27 0 55.5 7.5t49.5 20.5v-72q-43 -28 -118 -28q-72 0 -120.5 39.5t-62.5 110.5h-46v38h40v22l1 22h-41v39h46q16 71 65.5 112.5t120.5 41.5q77 0 114 -26v-80q-20 17 -49.5 24t-55.5 7q-40 0 -68 -20.5t-39 -58.5h128v-39h-136v-22
l1 -22h135v-38z" />
    <glyph glyph-name="Euro.numr" horiz-adv-x="439" 
d="M318 426h-128q12 -38 40 -58t68 -20q27 0 55.5 7.5t49.5 20.5v-72q-43 -28 -118 -28q-72 0 -120.5 39.5t-62.5 110.5h-46v38h40v22l1 22h-41v39h46q16 71 65.5 112.5t120.5 41.5q77 0 114 -26v-80q-20 17 -49.5 24t-55.5 7q-40 0 -68 -20.5t-39 -58.5h128v-39h-136v-22
l1 -22h135v-38z" />
    <glyph glyph-name="Euro.oldstyle" horiz-adv-x="670" 
d="M478 210h-194q18 -57 60.5 -86t103.5 -29q89 0 160 44v-110q-70 -40 -176 -40t-178 58.5t-94 162.5h-70v59h62l-1 32l1 37h-62v61h71q24 104 97 164t178 60q112 0 173 -39v-117q-57 46 -161 46q-61 0 -103 -30t-61 -84h194v-61h-206l-1 -34l1 -35h206v-59z" />
    <glyph glyph-name="Euro.superior" horiz-adv-x="439" 
d="M318 564h-128q12 -38 40 -58t68 -20q27 0 55.5 7.5t49.5 20.5v-72q-43 -28 -118 -28q-72 0 -120.5 39.5t-62.5 110.5h-46v38h40v22l1 22h-41v39h46q16 71 65.5 112.5t120.5 41.5q77 0 114 -26v-80q-20 17 -49.5 24t-55.5 7q-40 0 -68 -20.5t-39 -58.5h128v-39h-136v-22
l1 -22h135v-38z" />
    <glyph glyph-name="kgreenlandic.case" horiz-adv-x="712" 
d="M702 747h80q-74 -115 -75 -276h-98q0 82 25.5 154t67.5 122zM211 0h-131v706h131v-303q3 3 10.5 12.5t76.5 100t158 190.5h155l-280 -330l308 -376h-163q-54 61 -104.5 123t-102 131.5t-58.5 78.5v-333z" />
    <glyph glyph-name="germandbls.case" horiz-adv-x="1118" 
d="M42 57v134q46 -40 113.5 -64t123.5 -24q60 0 88.5 22t28.5 61q0 28 -22 50t-73 44l-90 38q-89 37 -127.5 84t-38.5 120q0 90 64.5 143.5t184.5 53.5q52 0 106.5 -14t89.5 -37v-131q-40 31 -97.5 49.5t-107.5 18.5q-25 0 -51.5 -7.5t-41.5 -27t-15 -44.5q0 -24 13.5 -44
t68.5 -44l90 -38q53 -23 93 -48.5t63.5 -62t23.5 -98.5q0 -43 -15.5 -80t-47.5 -64.5t-81 -43t-112 -15.5q-67 0 -129 20t-102 49zM601 57v134q46 -40 113.5 -64t123.5 -24q60 0 88.5 22t28.5 61q0 28 -22 50t-73 44l-90 38q-89 37 -127.5 84t-38.5 120q0 90 64.5 143.5
t184.5 53.5q52 0 106.5 -14t89.5 -37v-131q-40 31 -97.5 49.5t-107.5 18.5q-25 0 -51.5 -7.5t-41.5 -27t-15 -44.5q0 -24 13.5 -44t68.5 -44l90 -38q53 -23 93 -48.5t63.5 -62t23.5 -98.5q0 -43 -15.5 -80t-47.5 -64.5t-81 -43t-112 -15.5q-67 0 -129 20t-102 49z" />
    <glyph glyph-name="glyph137" horiz-adv-x="323" 
d="M282 282h-76l-1 30q-14 -16 -35.5 -26t-49.5 -10q-43 0 -68 24t-25 61q0 47 38 69q42 23 138 31v9q0 22 -8 32q-6 8 -18 12.5t-26 4.5q-27 0 -56 -9.5t-50 -25.5v65q22 19 55 28.5t61 9.5q83 0 109 -53q12 -22 12 -80v-172zM203 354v60q-60 -5 -82 -17q-18 -10 -18 -31
q0 -14 11 -23.5t33 -9.5q30 0 56 21z" />
    <glyph glyph-name="glyph142" horiz-adv-x="179" 
d="M59 760h-105l131 138h141z" />
    <glyph glyph-name="b.ordn" horiz-adv-x="361" 
d="M43 297v426h79v-169q16 14 41 23.5t48 9.5q62 0 94 -39.5t32 -108.5q0 -32 -9 -62.5t-29.5 -53t-52.5 -35.5t-76 -13q-64 0 -127 22zM125 346q24 -10 55 -10q32 0 52 24.5t20 71.5q0 45 -18.5 68t-47.5 23q-13 0 -30.5 -6t-30.5 -22v-149z" />
    <glyph glyph-name="braceleft.case" horiz-adv-x="324" 
d="M317 -77h-37q-77 0 -115 28q-25 17 -36 50t-11 85v81q0 72 -21 102q-20 31 -78 36v69q63 8 81 38q18 29 18 99v86q0 84 38 124q36 37 124 37h37v-63h-28q-43 0 -64 -27q-9 -11 -14.5 -32t-5.5 -47v-82q0 -98 -33 -133q-19 -20 -61 -34q38 -7 57 -27q37 -37 37 -142v-83
q0 -57 24 -83q21 -22 62 -22h26v-60z" />
    <glyph glyph-name="braceright.case" horiz-adv-x="324" 
d="M7 758h38q77 0 114 -29q25 -18 36.5 -51t11.5 -85v-80q0 -70 21 -102q21 -31 77 -37v-67q-61 -8 -81 -39q-17 -28 -17 -98v-88q0 -86 -39 -123q-36 -36 -123 -36h-38v62h26q43 0 64 25q20 23 20 79v83q0 95 34 134q5 5 15 12t45 21q-36 7 -56 27q-38 38 -38 141v83
q0 61 -22 84q-10 11 -27.5 16.5t-35.5 5.5h-25v62z" />
    <glyph glyph-name="bracketleft.case" horiz-adv-x="272" 
d="M261 -66h-190v824h190v-63h-98v-697h98v-64z" />
    <glyph glyph-name="bracketright.case" horiz-adv-x="272" 
d="M10 754h190v-825h-190v63h99v697h-99v65z" />
    <glyph glyph-name="glyph176" horiz-adv-x="179" 
d="M-57 906h69q2 -20 10.5 -38.5t26.5 -28t40 -9.5q75 0 82 76h69q-2 -66 -40.5 -107.5t-111.5 -41.5q-26 0 -52 7t-46.5 25t-33 46.5t-13.5 70.5z" />
    <glyph glyph-name="bullet.case" horiz-adv-x="350" 
d="M307 332q0 -42 -22.5 -76.5t-53 -47.5t-58.5 -13q-25 0 -55.5 13t-52.5 46.5t-22 74.5q0 31 13 63t47 54t74 22q39 0 72 -21.5t45.5 -52.5t12.5 -62z" />
    <glyph glyph-name="glyph183" horiz-adv-x="171" 
d="M84 546h-77q67 101 67 236h94q0 -71 -23 -132.5t-61 -103.5z" />
    <glyph glyph-name="glyph184" horiz-adv-x="179" 
d="M166 898h96l-130 -138h-82l-131 138h97l76 -62z" />
    <glyph glyph-name="glyph190" horiz-adv-x="179" 
d="M-12 -252v63q14 -9 35 -13.5t39 -4.5q20 0 32.5 8t16 18.5t3.5 18.5q0 19 -15.5 31t-44.5 12q-24 0 -42 -6l36 132h59l-22 -72l14 1q43 0 67.5 -26t24.5 -71q0 -53 -35 -81t-94 -28q-19 0 -40.5 5.5t-33.5 12.5z" />
    <glyph glyph-name="cent.dnom" horiz-adv-x="330" 
d="M219 -51h-45v49q-59 7 -93 46t-34 101q0 27 11.5 59t42.5 56.5t73 31.5v52h45v-49q44 -3 75 -21v-74q-34 26 -75 28v-164q38 0 77 26v-69q-32 -21 -77 -24v-48zM131 147q0 -58 43 -76v149q-43 -17 -43 -73z" />
    <glyph glyph-name="cent.sinf" horiz-adv-x="330" 
d="M219 -177h-45v49q-59 8 -93 46.5t-34 100.5q0 27 11.5 59t42.5 56.5t73 31.5v52h45v-49q44 -3 75 -21v-74q-34 26 -75 28v-164q18 1 38.5 8t38.5 18v-69q-32 -21 -77 -24v-48zM131 21q0 -58 43 -75v148q-43 -17 -43 -73z" />
    <glyph glyph-name="cent.numr" horiz-adv-x="330" 
d="M219 231h-45v48q-59 8 -93 47t-34 101q0 27 11.5 59t42.5 56.5t73 31.5v52h45v-49q44 -3 75 -21v-74q-34 26 -75 28v-164q38 0 77 26v-69q-34 -22 -77 -25v-47zM131 429q0 -58 43 -76v149q-43 -17 -43 -73z" />
    <glyph glyph-name="cent.oldstyle" horiz-adv-x="495" 
d="M342 -86h-65v80q-99 7 -154.5 69t-55.5 164q0 97 56 161t154 74v87h65v-87q59 -6 103 -32v-109q-23 18 -50 29.5t-53 13.5v-268q10 1 39.5 8.5t65.5 31.5v-105q-49 -30 -105 -36v-81zM188 231q0 -54 23.5 -86.5t65.5 -43.5v258q-21 -6 -42.5 -20.5t-34 -43.5t-12.5 -64z
" />
    <glyph glyph-name="cent.superior" horiz-adv-x="330" 
d="M219 369h-45v48q-59 8 -93 47t-34 101q0 27 11.5 59t42.5 56.5t73 31.5v52h45v-49q44 -3 75 -21v-74q-34 26 -75 28v-164q38 0 77 26v-69q-34 -22 -77 -25v-47zM131 567q0 -58 43 -76v149q-43 -17 -43 -73z" />
    <glyph glyph-name="glyph198" horiz-adv-x="179" 
d="M14 760h-95l130 138h82l131 -138h-97l-77 62z" />
    <glyph glyph-name="comma.dnom" horiz-adv-x="164" 
d="M65 -95h-64q52 82 52 186h79q0 -55 -18.5 -104t-48.5 -82z" />
    <glyph glyph-name="comma.sinf" horiz-adv-x="164" 
d="M65 -221h-64q52 82 52 186h79q0 -55 -18.5 -104t-48.5 -82z" />
    <glyph glyph-name="comma.numr" horiz-adv-x="164" 
d="M62 187h-61q51 82 51 190h78q0 -56 -19 -106t-49 -84z" />
    <glyph glyph-name="comma.superior" horiz-adv-x="164" 
d="M65 325h-64q52 82 52 186h79q0 -55 -18.5 -104t-48.5 -82z" />
    <glyph glyph-name="d.ordn" horiz-adv-x="364" 
d="M319 282h-79v27q-15 -16 -39 -25t-51 -9q-59 0 -93 40.5t-34 108.5q0 44 16.5 83t51 59t77.5 20q22 0 42 -5.5t29 -15.5v158h80v-441zM238 366v135q-7 10 -22 16.5t-34 6.5q-33 0 -54 -25t-21 -71q0 -22 7 -44t23.5 -34t37.5 -12q17 0 35.5 8.5t27.5 19.5z" />
    <glyph glyph-name="glyph216" horiz-adv-x="179" 
d="M58 829q0 -24 -17 -41.5t-41 -17.5q-25 0 -40.5 17t-15.5 41q0 25 16.5 42.5t41.5 17.5q24 0 40 -16.5t16 -42.5zM236 829q0 -24 -17 -41.5t-41 -17.5q-25 0 -40.5 17t-15.5 41q0 25 16 42.5t41 17.5t41 -16.5t16 -42.5z" />
    <glyph glyph-name="dollar.dnom" horiz-adv-x="372" 
d="M215 -55h-46v51q-27 1 -61.5 10t-61.5 29v83q25 -22 59 -34t64 -15v102l-22 8q-52 19 -75.5 47.5t-23.5 70.5q0 46 31 76t90 36v51h46v-50q28 -1 55 -9t44 -19v-81q-19 14 -46.5 24t-52.5 13v-98l16 -6q61 -22 84 -50.5t23 -68.5q0 -34 -17 -61t-45.5 -40.5t-60.5 -16.5
v-52zM250 112q0 26 -35 41v-83q18 4 26.5 16t8.5 26zM135 298q0 -28 34 -41v79q-18 -4 -26 -14.5t-8 -23.5z" />
    <glyph glyph-name="dollar.sinf" horiz-adv-x="372" 
d="M215 -181h-46v51q-27 1 -61.5 10t-61.5 29v83q25 -21 59.5 -33.5t63.5 -15.5v102l-22 8q-52 19 -75.5 47.5t-23.5 70.5q0 46 31 76t90 36v51h46v-50q28 -1 55 -9t44 -19v-81q-19 14 -46.5 24t-52.5 13v-98l16 -6q61 -22 84 -50.5t23 -68.5q0 -34 -17 -61t-45.5 -40.5
t-60.5 -16.5v-52zM250 -14q0 26 -35 41v-82q18 5 26.5 16t8.5 25zM135 172q0 -28 34 -41v79q-18 -4 -26 -14.5t-8 -23.5z" />
    <glyph glyph-name="dollar.numr" horiz-adv-x="372" 
d="M215 227h-46v50q-27 2 -61.5 11t-61.5 29v83q25 -22 59 -34t64 -15v102l-22 8q-52 19 -75.5 47.5t-23.5 70.5q0 46 31 76t90 36v51h46v-50q28 -1 55 -9t44 -19v-81q-19 14 -46.5 24t-52.5 13v-98l16 -6q61 -22 84 -50.5t23 -68.5q0 -46 -31 -79t-92 -40v-51zM250 394
q0 26 -35 41v-83q18 4 26.5 16t8.5 26zM135 580q0 -28 34 -41v79q-18 -4 -26 -14.5t-8 -23.5z" />
    <glyph glyph-name="dollar.oldstyle" horiz-adv-x="540" 
d="M304 -86h-66v79q-53 3 -101 18.5t-79 38.5v121q35 -30 84.5 -49t95.5 -23v160l-32 13q-80 31 -113 74.5t-33 104.5q0 70 45.5 114.5t132.5 53.5v86h66v-85q38 -3 78 -14.5t67 -29.5v-115q-28 20 -68.5 35.5t-76.5 19.5v-159l22 -8q80 -31 118.5 -71.5t38.5 -107.5
q0 -52 -23 -89t-62 -58.5t-94 -27.5v-81zM365 165q0 16 -10 33t-51 36v-133q61 13 61 64zM178 452q0 -19 10.5 -35.5t49.5 -33.5v132q-31 -6 -45.5 -23.5t-14.5 -39.5z" />
    <glyph glyph-name="dollar.superior" horiz-adv-x="372" 
d="M215 365h-46v50q-27 2 -61.5 11t-61.5 29v83q25 -22 59 -34t64 -15v102l-22 8q-52 19 -75.5 47.5t-23.5 70.5q0 46 31 76t90 36v51h46v-50q28 -1 55 -9t44 -19v-81q-19 14 -46.5 24t-52.5 13v-98l16 -6q61 -22 84 -50.5t23 -68.5q0 -46 -31 -79t-92 -40v-51zM250 532
q0 26 -35 41v-83q18 4 26.5 16t8.5 26zM135 718q0 -28 34 -41v79q-18 -4 -26 -14.5t-8 -23.5z" />
    <glyph glyph-name="glyph225" horiz-adv-x="179" 
d="M148 829q0 -24 -17 -41.5t-41 -17.5q-25 0 -41 17t-16 41q0 25 16.5 42.5t41.5 17.5t41 -16.5t16 -42.5z" />
    <glyph glyph-name="e.ordn" horiz-adv-x="328" 
d="M304 305q-57 -30 -118 -30q-76 0 -119 41.5t-43 114.5q0 70 40.5 113t108.5 43q67 0 100.5 -39t33.5 -107v-25h-199q3 -37 28.5 -55.5t66.5 -18.5q26 0 52.5 7.5t48.5 21.5v-66zM109 468h124q-2 27 -17 43t-43 16q-26 0 -44 -15.5t-20 -43.5z" />
    <glyph glyph-name="egrave.ordn" horiz-adv-x="332" 
d="M226 623h-64l-91 100h85zM304 305q-57 -30 -118 -30q-76 0 -119 41.5t-43 114.5q0 70 40.5 113t108.5 43q67 0 100.5 -39t33.5 -107v-25h-199q3 -37 28.5 -55.5t66.5 -18.5q26 0 52.5 7.5t48.5 21.5v-66zM109 468h124q-2 26 -17 42t-43 16q-26 0 -44 -15t-20 -43z" />
    <glyph glyph-name="eight.dnom" 
d="M101 211q-30 12 -45.5 36t-15.5 54q0 32 18 57t50.5 40.5t75.5 15.5q45 0 77 -14.5t48.5 -38.5t16.5 -58q0 -29 -16.5 -54.5t-48.5 -36.5q19 -5 37 -17.5t28 -33.5t10 -45q0 -55 -43 -89t-113 -34q-29 0 -65 9.5t-61.5 37t-25.5 70.5q0 35 19.5 62t53.5 39zM251 293
q0 25 -18.5 39.5t-49.5 14.5q-28 0 -47.5 -15t-19.5 -39t17.5 -40t49.5 -16t50 15t18 41zM257 123q0 28 -20.5 42.5t-54.5 14.5q-33 0 -53 -16t-20 -43q0 -15 7.5 -29t25 -22t39.5 -8q32 0 54 16t22 45z" />
    <glyph glyph-name="eight.pnum" horiz-adv-x="559" 
d="M161 357q-50 21 -75.5 61.5t-25.5 92.5q0 54 30 99.5t83.5 68t108.5 22.5q72 0 121.5 -24.5t75 -65.5t25.5 -98q0 -36 -15 -69.5t-40.5 -54.5t-50.5 -30q61 -17 91.5 -63t30.5 -104q0 -45 -17 -83t-49.5 -65t-78 -41.5t-99.5 -14.5q-47 0 -90 12t-75.5 37t-51.5 63
t-19 87q0 58 32 104t89 66zM395 501q0 46 -30.5 73t-82.5 27q-34 0 -62.5 -15.5t-40 -39t-11.5 -45.5q0 -44 29.5 -73.5t83.5 -29.5q53 0 83.5 28t30.5 75zM406 203q0 53 -34 80t-90 27q-27 0 -57 -10t-49.5 -37t-19.5 -62q0 -54 36.5 -82t86.5 -28q54 0 90.5 29t36.5 83z
" />
    <glyph glyph-name="eight.frac" 
d="M101 493q-30 12 -45.5 36t-15.5 54q0 32 18 57t50.5 40.5t75.5 15.5q45 0 77 -14.5t48.5 -38.5t16.5 -58q0 -29 -16.5 -54.5t-48.5 -36.5q19 -5 37 -17.5t28 -33.5t10 -45q0 -55 -43 -89t-113 -34q-29 0 -65 9.5t-61.5 37t-25.5 70.5q0 35 19.5 62t53.5 39zM251 575
q0 25 -18.5 39.5t-49.5 14.5q-28 0 -47.5 -15t-19.5 -39t17.5 -40t49.5 -16t50 15t18 41zM257 405q0 28 -20.5 42.5t-54.5 14.5q-33 0 -53 -16t-20 -43q0 -15 7.5 -29t25 -22t39.5 -8q32 0 54 16t22 45z" />
    <glyph glyph-name="eight.pnum.oldstyle" horiz-adv-x="538" 
d="M153 347q-48 20 -73 59.5t-25 90.5q0 52 26.5 92.5t75.5 66t113 25.5q70 0 118 -23.5t72.5 -63.5t24.5 -95q0 -35 -14 -68t-38.5 -53t-49.5 -29q44 -13 72 -42.5t37 -62.5t9 -58q0 -32 -11 -66t-42 -67t-80.5 -49t-101.5 -16q-46 0 -87.5 12t-73.5 36t-50.5 61t-18.5 85
q0 41 17.5 77.5t45.5 57.5t54 30zM379 486q0 44 -29 70t-79 26q-34 0 -61 -14.5t-38 -37.5t-11 -44q0 -30 15.5 -54t41.5 -33.5t51 -9.5q52 0 81 26.5t29 70.5zM390 196q0 50 -33 76t-87 26q-56 0 -88.5 -27.5t-32.5 -74.5q0 -52 35.5 -79t84.5 -27q51 0 86 27.5t35 78.5z
" />
    <glyph glyph-name="eight.oldstyle" horiz-adv-x="538" 
d="M153 347q-48 20 -73 59.5t-25 90.5q0 52 26.5 92.5t75.5 66t113 25.5q70 0 118 -23.5t72.5 -63.5t24.5 -95q0 -35 -14 -68t-38.5 -53t-49.5 -29q44 -13 72 -42.5t37 -62.5t9 -58q0 -32 -11 -66t-42 -67t-80.5 -49t-101.5 -16q-46 0 -87.5 12t-73.5 36t-50.5 61t-18.5 85
q0 41 17.5 77.5t45.5 57.5t54 30zM379 486q0 44 -29 70t-79 26q-34 0 -61 -14.5t-38 -37.5t-11 -44q0 -30 15.5 -54t41.5 -33.5t51 -9.5q52 0 81 26.5t29 70.5zM390 196q0 50 -33 76t-87 26q-56 0 -88.5 -27.5t-32.5 -74.5q0 -52 35.5 -79t84.5 -27q51 0 86 27.5t35 78.5z
" />
    <glyph glyph-name="emdash.case" horiz-adv-x="870" 
d="M825 285h-779v87h779v-87z" />
    <glyph glyph-name="endash.case" horiz-adv-x="552" 
d="M507 285h-461v87h461v-87z" />
    <glyph glyph-name="estimated.salt" horiz-adv-x="840" 
d="M770 56q-133 -68 -294 -68q-93 0 -169 24t-129.5 70t-81.5 114.5t-28 153.5q0 78 27 143.5t76 112t118 71t149 24.5q85 0 150.5 -25t107 -70t61.5 -106t20 -133v-53h-584q3 -44 19 -85.5t51 -72t91 -47.5t141 -17q68 0 144 20t131 55v-111zM194 411h463q-2 55 -26 98
t-71.5 69t-122.5 26q-104 0 -169 -53.5t-74 -139.5z" />
    <glyph glyph-name="exclamdown.case" horiz-adv-x="283" 
d="M76 471h99q17 -325 17 -471h-132q0 146 16 471zM50 636q0 32 22.5 55t56.5 23q31 0 52.5 -22.5t21.5 -53.5q0 -33 -22.5 -56t-55.5 -23q-31 0 -53 22t-22 55z" />
    <glyph glyph-name="five.dnom" 
d="M42 18v77q51 -29 112 -29q40 0 62.5 18t22.5 48q0 29 -22 44.5t-60 15.5q-26 0 -54.5 -4.5t-47.5 -13.5l22 233h224v-74h-162l-9 -88q21 9 61 9q56 0 94.5 -30.5t38.5 -90.5q0 -67 -43.5 -103.5t-120.5 -36.5q-71 0 -118 25z" />
    <glyph glyph-name="five.pnum" horiz-adv-x="539" 
d="M52 29v123q81 -52 176 -52q41 0 74.5 14.5t49.5 44t16 63.5q0 56 -37 83t-98 27q-38 0 -82.5 -8t-77.5 -23l36 388h346v-113h-256l-17 -164q17 8 44.5 12.5t53.5 4.5q68 0 115 -25.5t71.5 -70t24.5 -109.5q0 -112 -67.5 -174t-187.5 -62q-114 0 -184 41z" />
    <glyph glyph-name="five.frac" 
d="M42 300v77q51 -29 112 -29q40 0 62.5 18t22.5 48q0 29 -22 44.5t-60 15.5q-26 0 -54.5 -4.5t-47.5 -13.5l22 233h224v-74h-162l-9 -88q21 9 61 9q56 0 94.5 -30.5t38.5 -90.5q0 -67 -43.5 -103.5t-120.5 -36.5q-71 0 -118 25z" />
    <glyph glyph-name="five.pnum.oldstyle" horiz-adv-x="506" 
d="M41 -95v118q76 -52 173 -52q66 0 102.5 31.5t36.5 87.5t-37 83.5t-98 27.5q-38 0 -82.5 -9t-74.5 -22l36 374h340v-111h-255l-15 -158q18 8 45.5 12.5t51.5 4.5q66 0 112.5 -25t71 -69t24.5 -107q0 -110 -66 -170.5t-184 -60.5q-110 0 -181 45z" />
    <glyph glyph-name="five.oldstyle" horiz-adv-x="538" 
d="M65 -95v118q77 -52 174 -52q66 0 102.5 31.5t36.5 87.5t-37 83.5t-98 27.5q-38 0 -82.5 -9t-74.5 -22l36 374h340v-111h-255l-16 -158q18 8 45.5 12.5t52.5 4.5q66 0 112.5 -25t71 -69t24.5 -107q0 -110 -66 -170.5t-184 -60.5q-109 0 -182 45z" />
    <glyph glyph-name="florin.dnom" horiz-adv-x="329" 
d="M13 -68v71q19 -12 46 -12q33 0 40 24q5 12 7 41l13 142h-58v54h61l4 44q2 20 8 41t13 32q14 20 39.5 32.5t59.5 12.5q19 0 38.5 -4.5t29.5 -11.5v-72q-4 3 -18 9t-32 6q-5 0 -19 -2.5t-22 -13.5q-4 -5 -7.5 -16t-4.5 -24l-3 -33h71v-54h-76l-11 -149q-4 -42 -13 -68
q-6 -17 -21.5 -32t-40 -22t-48.5 -7q-14 0 -30.5 3.5t-25.5 8.5z" />
    <glyph glyph-name="florin.sinf" horiz-adv-x="329" 
d="M13 -194v71q19 -12 46 -12q33 0 40 24q5 12 7 41l13 142h-58v54h61l4 44q2 20 8 41t13 32q14 20 39.5 32.5t59.5 12.5q19 0 38.5 -4.5t29.5 -11.5v-72q-4 3 -18 9t-32 6q-5 0 -19 -2.5t-22 -13.5q-4 -5 -7.5 -16t-4.5 -24l-3 -33h71v-54h-76l-11 -149q-4 -42 -13 -68
q-6 -17 -21.5 -32t-40 -22t-48.5 -7q-14 0 -30.5 3.5t-25.5 8.5z" />
    <glyph glyph-name="florin.numr" horiz-adv-x="329" 
d="M13 214v71q19 -12 46 -12q32 0 40 24q4 11 7 41l13 142h-58v54h61l4 44q2 21 8 41.5t13 31.5q13 20 38.5 32.5t60.5 12.5q19 0 38.5 -4.5t29.5 -11.5v-72q-4 3 -18 9t-32 6q-5 0 -19 -2.5t-22 -13.5q-4 -5 -7.5 -16t-4.5 -24l-3 -33h71v-54h-76l-11 -149q-4 -42 -13 -68
q-6 -17 -21.5 -32t-40 -22t-48.5 -7q-14 0 -30.5 3.5t-25.5 8.5z" />
    <glyph glyph-name="florin.oldstyle" horiz-adv-x="498" 
d="M22 -99v107q11 -8 30 -14t41 -6q47 0 60 35q9 23 12 64l16 216h-89v77h94l6 59q7 76 33 116q21 29 57 48t83 19q69 0 101 -21v-104q-15 11 -37.5 16.5t-38.5 5.5q-21 0 -37 -6t-25 -18q-13 -16 -18 -68l-4 -47h107v-77h-114l-17 -228q-5 -63 -20 -103q-13 -36 -43.5 -57
t-61 -27t-51.5 -6q-20 0 -45 5.5t-39 13.5z" />
    <glyph glyph-name="florin.superior" horiz-adv-x="329" 
d="M13 352v71q19 -12 46 -12q33 0 40 24q5 12 7 41l13 142h-58v54h61l4 44q2 20 8 41t13 32q14 20 39.5 32.5t59.5 12.5q19 0 38.5 -4.5t29.5 -11.5v-72q-4 3 -18 9t-32 6q-5 0 -19 -2.5t-22 -13.5q-4 -5 -7.5 -16t-4.5 -24l-3 -33h71v-54h-76l-11 -149q-4 -42 -13 -68
q-6 -17 -21.5 -32t-40 -22t-48.5 -7q-14 0 -30.5 3.5t-25.5 8.5z" />
    <glyph glyph-name="four.dnom" 
d="M291 0h-87v104h-183v52l193 251h77v-240h56v-63h-56v-104zM204 167q0 114 1 140l-104 -140h103z" />
    <glyph glyph-name="four.pnum" horiz-adv-x="577" 
d="M463 0h-122v182h-305v80l320 427h107v-411h91v-96h-91v-182zM341 278q0 216 2 262q-49 -72 -189 -262h187z" />
    <glyph glyph-name="four.frac" 
d="M291 282h-87v104h-183v52l193 251h77v-240h56v-63h-56v-104zM204 449q0 114 1 140l-104 -140h103z" />
    <glyph glyph-name="four.pnum.oldstyle" horiz-adv-x="551" 
d="M447 -137h-120v181h-303v79l318 426h105v-410h91v-95h-91v-181zM327 139q0 221 2 268q-29 -43 -193 -268h191z" />
    <glyph glyph-name="four.oldstyle" horiz-adv-x="538" 
d="M435 -137h-120v181h-291v79l306 426h105v-410h92v-95h-92v-181zM315 139q0 212 2 258q-54 -81 -180 -258h178z" />
    <glyph glyph-name="four_fraction_five.frac" horiz-adv-x="815" 
d="M288 -12h-59l347 713h58zM295 282h-87v104h-183v52l193 251h77v-240h56v-63h-56v-104zM208 449q0 114 1 140l-104 -140h103zM508 18v77q51 -29 112 -29q40 0 62.5 18t22.5 48q0 29 -22 44.5t-60 15.5q-26 0 -54.5 -4.5t-47.5 -13.5l22 233h224v-74h-162l-9 -88q21 9 61 9
q56 0 94.5 -30.5t38.5 -90.5q0 -67 -43.5 -103.5t-120.5 -36.5q-71 0 -118 25z" />
    <glyph glyph-name="glyph306" horiz-adv-x="179" 
d="M226 760h-106l-166 138h140z" />
    <glyph glyph-name="guillemotleft.case" horiz-adv-x="445" 
d="M240 144h-93l-126 184l125 184h94l-121 -184zM422 144h-95l-125 184l124 184h95l-121 -184z" />
    <glyph glyph-name="guillemotright.case" horiz-adv-x="445" 
d="M204 512h94l125 -184l-124 -184h-94l121 184zM23 512h95l124 -184l-123 -184h-95l120 184z" />
    <glyph glyph-name="guilsinglleft.case" horiz-adv-x="262" 
d="M240 144h-93l-126 184l125 184h94l-121 -184z" />
    <glyph glyph-name="guilsinglright.case" horiz-adv-x="264" 
d="M23 512h95l124 -184l-123 -184h-95l120 184z" />
    <glyph glyph-name="h.ordn" horiz-adv-x="360" 
d="M125 282h-82v441h81v-176q16 18 41 29.5t53 11.5q64 0 86 -48q14 -32 14 -96v-162h-83v159q0 41 -4 53q-10 25 -45 25q-17 0 -33.5 -9t-27.5 -24v-204z" />
    <glyph glyph-name="glyph322" horiz-adv-x="179" 
d="M-31 760h-97l128 138h126zM152 760h-97l127 138h126z" />
    <glyph glyph-name="hyphen.case" horiz-adv-x="346" 
d="M302 282h-256v94h256v-94z" />
    <glyph glyph-name="hyphen.dnom" horiz-adv-x="225" 
d="M193 161h-161v63h161v-63z" />
    <glyph glyph-name="hyphen.sinf" horiz-adv-x="225" 
d="M193 35h-161v63h161v-63z" />
    <glyph glyph-name="hyphen.numr" horiz-adv-x="225" 
d="M193 443h-161v63h161v-63z" />
    <glyph glyph-name="hyphen.superior" horiz-adv-x="225" 
d="M193 581h-161v63h161v-63z" />
    <glyph glyph-name="i.ordn" horiz-adv-x="168" 
d="M126 282h-83v298h83v-298zM129 672q0 -18 -13 -31t-33 -13q-18 0 -30.5 13t-12.5 30q0 20 13 33t32 13t31.5 -13t12.5 -32z" />
    <glyph glyph-name="i.locl" horiz-adv-x="259" 
d="M189 0h-119v503h119v-503zM197 660q0 -29 -20 -48.5t-49 -19.5q-28 0 -46.5 19t-18.5 47q0 30 19.5 50t48.5 20q28 0 47 -19.5t19 -48.5z" />
    <glyph glyph-name="l.ordn" horiz-adv-x="168" 
d="M126 282h-83v441h83v-441z" />
    <glyph glyph-name="m.ordn" horiz-adv-x="543" 
d="M125 282h-82v298h81v-33q37 40 92 40q60 0 84 -49q19 22 46 35.5t57 13.5q63 0 85 -48q13 -30 13 -95v-162h-82v159q0 37 -4 49q-9 29 -43 29q-18 0 -34 -9t-26 -24l1 -42v-162h-81v159q0 35 -5 50q-4 13 -16 20.5t-28 7.5q-17 0 -32.5 -9t-25.5 -24v-204z" />
    <glyph glyph-name="glyph363" horiz-adv-x="179" 
d="M227 786h-275v79h275v-79z" />
    <glyph glyph-name="nine.dnom" 
d="M248 192q-11 -20 -39 -34t-61 -14q-53 0 -88 32t-35 96q0 65 41 103.5t109 38.5q35 0 64.5 -12.5t50 -37t32 -63t11.5 -87.5q0 -69 -22 -117.5t-63.5 -76t-100.5 -27.5q-66 0 -99 21v80q38 -25 93 -25q28 0 52.5 9.5t39 38.5t15.5 75zM243 254q0 30 -9 51
q-7 18 -22.5 27.5t-36.5 9.5q-28 0 -47.5 -18.5t-19.5 -52.5q0 -33 18 -49t47 -16q26 0 45.5 13.5t24.5 34.5z" />
    <glyph glyph-name="nine.pnum" horiz-adv-x="570" 
d="M398 331q-20 -35 -66.5 -59.5t-97.5 -24.5q-64 0 -107.5 27.5t-65.5 74t-22 112.5q0 111 64 175.5t169 64.5q54 0 99.5 -20t78.5 -61.5t51 -106.5t18 -151q0 -96 -22.5 -168.5t-62 -117.5t-92 -66.5t-113.5 -21.5q-50 0 -88 8t-66 28v123q57 -44 144 -44q93 0 135 55.5
t44 172.5zM391 432q-2 57 -18 93q-13 32 -39 50t-62 18q-29 0 -57 -14.5t-43 -46t-15 -72.5q0 -61 30 -91.5t80 -30.5q45 0 79.5 27t44.5 67z" />
    <glyph glyph-name="nine.frac" 
d="M248 474q-11 -20 -39 -34t-61 -14q-53 0 -88 32t-35 96q0 65 41 103.5t109 38.5q35 0 64.5 -12.5t50 -37t32 -63t11.5 -87.5q0 -69 -22 -117.5t-63.5 -76t-100.5 -27.5q-66 0 -99 21v80q38 -25 93 -25q28 0 52.5 9.5t39 38.5t15.5 75zM243 536q0 30 -9 51
q-7 18 -22.5 27.5t-36.5 9.5q-28 0 -47.5 -18.5t-19.5 -52.5q0 -33 18 -49t47 -16q26 0 45.5 13.5t24.5 34.5z" />
    <glyph glyph-name="nine.pnum.oldstyle" horiz-adv-x="548" 
d="M385 192q-22 -34 -64 -56t-93 -22q-84 0 -135.5 53t-51.5 155q0 54 16 97.5t45.5 74t71.5 46.5t91 16q53 0 97 -19.5t75.5 -59.5t48.5 -103t17 -147q0 -93 -21.5 -163.5t-59.5 -115.5t-88.5 -66.5t-108.5 -21.5q-97 0 -150 35v121q56 -42 142 -42t126 55t42 163zM379 297
q-2 57 -15 88q-14 31 -39.5 49t-59.5 18q-45 0 -76.5 -34.5t-31.5 -96.5q0 -60 27.5 -89t76.5 -29q33 0 60 16t40 38t18 40z" />
    <glyph glyph-name="nine.oldstyle" horiz-adv-x="538" 
d="M378 192q-22 -34 -64 -56t-93 -22q-40 0 -74.5 13t-59.5 38.5t-39 65.5t-14 91q0 108 61.5 171t162.5 63q54 0 98 -19.5t75 -59.5t48 -103t17 -147q0 -93 -21.5 -163.5t-59.5 -115.5t-88.5 -66.5t-108.5 -21.5q-48 0 -84 8t-65 27v121q54 -42 141 -42t126.5 55t41.5 163z
M372 297q-2 57 -15 88t-38.5 49t-60.5 18q-45 0 -76.5 -34.5t-31.5 -96.5q0 -60 27.5 -89t76.5 -29q33 0 60 16t40 38t18 40z" />
    <glyph glyph-name="glyph384" horiz-adv-x="535" 
d="M161 -25h-50l22 165h-91v93h104l13 95h-97v93h109l21 150h47l-20 -150h126l20 150h48l-20 -150h100v-93h-113l-13 -95h106v-93h-118l-22 -165h-48l22 165h-125zM207 328l-13 -95h125l13 95h-125z" />
    <glyph glyph-name="glyph386" horiz-adv-x="353" 
d="M329 434q0 -74 -41.5 -116.5t-112.5 -42.5q-70 0 -110.5 42t-40.5 112t42.5 114t111.5 44q70 0 110.5 -42t40.5 -111zM247 431q0 43 -18.5 65.5t-51.5 22.5q-32 0 -51.5 -23.5t-19.5 -66.5q0 -41 19 -63t51 -22q71 0 71 87z" />
    <glyph glyph-name="glyph393" horiz-adv-x="179" 
d="M184 15q-62 -41 -92 -78t-30 -74q0 -28 16.5 -46t45.5 -18q33 0 64 17v-60q-15 -10 -38.5 -16.5t-41.5 -6.5q-59 0 -91.5 30t-32.5 87q0 23 11.5 53t44 60.5t77.5 51.5h67z" />
    <glyph glyph-name="one.dnom" 
d="M241 0h-92v307l-76 -30v78l168 62v-417z" />
    <glyph glyph-name="one.pnum" horiz-adv-x="417" 
d="M294 0h-129v540l-125 -55v120l254 102v-707z" />
    <glyph glyph-name="one.frac" 
d="M241 282h-92v307l-76 -30v78l168 62v-417z" />
    <glyph glyph-name="one.pnum.oldstyle" horiz-adv-x="396" 
d="M295 0h-128v396l-126 -55v119l254 102v-562z" />
    <glyph glyph-name="one.oldstyle" horiz-adv-x="538" 
d="M355 0h-129v394l-125 -54v120l254 102v-562z" />
    <glyph glyph-name="one_fraction_five.frac" horiz-adv-x="815" 
d="M234 -12h-59l347 713h58zM244 282h-92v307l-76 -30v78l168 62v-417zM470 18v77q51 -29 112 -29q40 0 62.5 18t22.5 48q0 29 -22 44.5t-60 15.5q-26 0 -54.5 -4.5t-47.5 -13.5l22 233h224v-74h-162l-9 -88q21 9 61 9q56 0 94.5 -30.5t38.5 -90.5q0 -67 -43.5 -103.5
t-120.5 -36.5q-71 0 -118 25z" />
    <glyph glyph-name="parenleft.case" horiz-adv-x="331" 
d="M252 -74q-122 97 -167.5 197.5t-45.5 213.5q0 130 51 233t161 185h83q-49 -43 -85.5 -87t-62 -93.5t-38.5 -108.5t-13 -128q0 -111 44.5 -209t154.5 -203h-82z" />
    <glyph glyph-name="parenleft.dnom" horiz-adv-x="224" 
d="M165 -94q-24 18 -51.5 47t-47 67t-27.5 77t-8 75q0 49 13 100.5t46 96.5t74 73h54q-124 -101 -124 -269q0 -38 11 -85.5t41 -95.5t72 -86h-53z" />
    <glyph glyph-name="parenleft.numr" horiz-adv-x="224" 
d="M165 188q-24 18 -51.5 47t-47 67t-27.5 77t-8 75q0 49 13 100.5t46 96.5t74 73h54q-124 -101 -124 -269q0 -38 11 -85.5t41 -95.5t72 -86h-53z" />
    <glyph glyph-name="parenright.case" horiz-adv-x="331" 
d="M-2 755h82q121 -97 166.5 -197.5t45.5 -213.5q0 -130 -51.5 -234t-160.5 -184h-82q48 43 80 81t56.5 80.5t43 106t18.5 149.5q0 110 -44 208t-154 204z" />
    <glyph glyph-name="parenright.dnom" horiz-adv-x="224" 
d="M6 442h53q65 -45 99.5 -115t34.5 -153q0 -48 -13.5 -99t-47 -95.5t-73.5 -73.5h-53q60 52 92.5 119.5t32.5 148.5q0 83 -33 151t-92 117z" />
    <glyph glyph-name="parenright.numr" horiz-adv-x="224" 
d="M6 724h53q65 -45 99.5 -115t34.5 -153q0 -48 -13.5 -99t-47 -95.5t-73.5 -73.5h-53q60 52 92.5 119.5t32.5 148.5q0 83 -33 151t-92 117z" />
    <glyph glyph-name="glyph431" horiz-adv-x="812" 
d="M335 417q0 -63 -19.5 -107t-53.5 -67.5t-83 -23.5q-39 0 -65.5 13.5t-45.5 35t-32.5 59.5t-13.5 89q0 53 18 102.5t56 76t86 26.5q73 0 113 -49.5t40 -154.5zM250 417q0 64 -16.5 95.5t-52.5 31.5q-34 0 -53 -33.5t-19 -95.5q0 -61 19.5 -91.5t52.5 -30.5t51 30.5
t18 93.5zM279 -16h-58l316 647h56zM790 191q0 -63 -19.5 -107t-53.5 -67.5t-82 -23.5q-29 0 -58 10.5t-51 35t-35.5 62.5t-13.5 89q0 53 18 102.5t56.5 76t86.5 26.5q72 0 112 -49.5t40 -154.5zM705 191q0 37 -6.5 67.5t-23 45t-38.5 14.5q-35 0 -54 -33.5t-19 -95.5
q0 -61 19.5 -91.5t53.5 -30.5q32 0 50 30.5t18 93.5z" />
    <glyph glyph-name="period.dnom" horiz-adv-x="156" 
d="M134 47q0 -23 -14.5 -38t-37.5 -15q-22 0 -35.5 14.5t-13.5 36.5q0 23 14.5 38t36.5 15q21 0 35.5 -14.5t14.5 -36.5z" />
    <glyph glyph-name="period.sinf" horiz-adv-x="156" 
d="M134 -79q0 -23 -14.5 -38t-37.5 -15q-22 0 -35.5 14.5t-13.5 36.5q0 23 14.5 38t36.5 15q21 0 35.5 -14.5t14.5 -36.5z" />
    <glyph glyph-name="period.numr" horiz-adv-x="156" 
d="M133 329q0 -21 -14 -36.5t-37 -15.5q-21 0 -34.5 14.5t-13.5 35.5q0 23 14 37.5t36 14.5q21 0 35 -14t14 -36z" />
    <glyph glyph-name="period.superior" horiz-adv-x="156" 
d="M134 467q0 -23 -14.5 -38t-37.5 -15q-22 0 -35.5 14.5t-13.5 36.5q0 23 14.5 38t36.5 15q21 0 35.5 -14.5t14.5 -36.5z" />
    <glyph glyph-name="periodcentered.case" horiz-adv-x="234" 
d="M194 331q0 -33 -22.5 -56t-55.5 -23q-32 0 -53 22.5t-21 54.5q0 33 22 55.5t55 22.5q32 0 53.5 -22t21.5 -54z" />
    <glyph glyph-name="glyph440" horiz-adv-x="1175" 
d="M335 417q0 -63 -19.5 -107t-53.5 -67.5t-83 -23.5q-39 0 -65.5 13.5t-45.5 35t-32.5 59.5t-13.5 89q0 53 18 102.5t56 76t86 26.5q73 0 113 -49.5t40 -154.5zM250 417q0 64 -16.5 95.5t-52.5 31.5q-34 0 -53 -33.5t-19 -95.5q0 -61 19.5 -91.5t52.5 -30.5t51 30.5
t18 93.5zM279 -16h-58l316 647h56zM790 191q0 -63 -19.5 -107t-53.5 -67.5t-82 -23.5q-29 0 -58 10.5t-51 35t-35.5 62.5t-13.5 89q0 53 18 102.5t56.5 76t86.5 26.5q72 0 112 -49.5t40 -154.5zM705 191q0 37 -6.5 67.5t-23 45t-38.5 14.5q-35 0 -54 -33.5t-19 -95.5
q0 -61 19.5 -91.5t53.5 -30.5q32 0 50 30.5t18 93.5zM1153 191q0 -63 -19.5 -107t-53.5 -67.5t-83 -23.5q-29 0 -58 10.5t-51 35t-35.5 62.5t-13.5 89q0 53 18 102.5t56.5 76t86.5 26.5q73 0 113 -49.5t40 -154.5zM1068 191q0 64 -16.5 95.5t-52.5 31.5q-34 0 -53 -33.5
t-19 -95.5q0 -61 19.5 -91.5t52.5 -30.5t51 30.5t18 93.5z" />
    <glyph glyph-name="questiondown.case" horiz-adv-x="430" 
d="M195 471h100q0 -47 -9 -79.5t-37 -59.5q-37 -36 -62.5 -69t-25.5 -71q0 -36 22.5 -62.5t69.5 -26.5q36 0 71.5 12.5t62.5 36.5v-115q-31 -24 -74.5 -37t-90.5 -13q-86 0 -139 43t-53 126q0 51 27 99.5t88 101.5q20 17 33.5 40.5t16.5 73.5zM169 636q0 33 22 55.5t56 22.5
q32 0 53 -22t21 -54q0 -33 -22.5 -56t-54.5 -23t-53.5 22t-21.5 55z" />
    <glyph glyph-name="r.ordn" horiz-adv-x="256" 
d="M125 282h-82v298h82v-43q29 51 85 51q20 0 37 -8v-79q-22 12 -47 12q-46 0 -75 -46v-185z" />
    <glyph glyph-name="glyph465" horiz-adv-x="179" 
d="M183 840q0 -18 -9 -39.5t-32.5 -37t-53.5 -15.5q-38 0 -64.5 26.5t-26.5 65.5q0 41 27 67.5t68 26.5q40 0 65.5 -26.5t25.5 -67.5zM140 841q0 25 -14.5 40t-37.5 15q-21 0 -35.5 -16t-14.5 -40q0 -23 13.5 -38.5t38.5 -15.5q22 0 36 16t14 39z" />
    <glyph glyph-name="s.ordn" horiz-adv-x="283" 
d="M27 303v75q24 -19 56.5 -28.5t58.5 -9.5q42 0 42 22q0 10 -8.5 17.5t-37.5 17.5l-36 12q-74 26 -74 90q0 40 32 64t86 24q24 0 52.5 -7.5t49.5 -19.5v-70q-17 12 -44.5 23t-58.5 11q-37 0 -37 -23q0 -9 9 -16.5t36 -17.5l34 -12q39 -13 58 -33t19 -54q0 -20 -11 -42
t-40.5 -36.5t-70.5 -14.5q-31 0 -61.5 8t-53.5 20z" />
    <glyph glyph-name="seven.dnom" 
d="M176 0h-88l141 333h-199v74h312z" />
    <glyph glyph-name="seven.pnum" horiz-adv-x="515" 
d="M229 0h-126l232 576h-317v113h477z" />
    <glyph glyph-name="seven.frac" 
d="M176 282h-88l141 333h-199v74h312z" />
    <glyph glyph-name="seven.pnum.oldstyle" horiz-adv-x="487" 
d="M217 -135h-124l220 568h-300v111h453z" />
    <glyph glyph-name="seven.oldstyle" horiz-adv-x="538" 
d="M251 -135h-122l221 568h-307v111h460z" />
    <glyph glyph-name="six.dnom" 
d="M116 213q11 21 38.5 36t59.5 15q53 0 89 -33t36 -97q0 -65 -40.5 -103t-106.5 -38q-73 0 -117 50.5t-44 149.5q0 55 14.5 97.5t40 69.5t59 40.5t71.5 13.5q63 0 97 -22v-79q-37 24 -89 24q-54 0 -80 -31.5t-28 -92.5zM120 153q2 -33 11 -52q17 -37 59 -37q28 0 46.5 18.5
t18.5 53.5q0 33 -17 48.5t-47 15.5q-26 0 -45 -13t-26 -34z" />
    <glyph glyph-name="six.pnum" horiz-adv-x="570" 
d="M172 357q23 39 66 62.5t97 23.5q64 0 108 -27.5t66.5 -74.5t22.5 -113q0 -55 -16.5 -100t-47 -76t-73 -47.5t-93.5 -16.5q-54 0 -100 20t-79.5 61.5t-52 107t-18.5 150.5q0 94 23 166t62.5 118t92 68t111.5 22q49 0 85 -8t65 -28v-123q-57 44 -140 44q-91 0 -134 -58.5
t-45 -170.5zM179 257q2 -53 20 -94q13 -31 39.5 -49t61.5 -18q47 0 80 33.5t33 99.5q0 63 -30.5 91.5t-79.5 28.5q-46 0 -80 -26.5t-44 -65.5z" />
    <glyph glyph-name="six.frac" 
d="M116 495q11 21 38.5 36t59.5 15q53 0 89 -33t36 -97q0 -65 -40.5 -103t-106.5 -38q-73 0 -117 50.5t-44 149.5q0 55 14.5 97.5t40 69.5t59 40.5t71.5 13.5q63 0 97 -22v-79q-37 24 -89 24q-54 0 -80 -31.5t-28 -92.5zM120 435q2 -33 11 -52q17 -37 59 -37q28 0 46.5 18.5
t18.5 53.5q0 33 -17 48.5t-47 15.5q-26 0 -45 -13t-26 -34z" />
    <glyph glyph-name="six.pnum.oldstyle" horiz-adv-x="548" 
d="M164 346q16 36 59 60t95 24q41 0 76 -13t60.5 -39t40 -66t14.5 -91q0 -108 -61 -170.5t-161 -62.5q-52 0 -96 19.5t-76 60t-50 103.5t-18 146q0 92 22 162t60 114.5t88 66t107 21.5q48 0 82.5 -7.5t62.5 -27.5v-120q-54 42 -135 42q-87 0 -127 -55t-43 -167zM170 247
q2 -47 19 -88q12 -31 37.5 -48.5t59.5 -17.5q46 0 76 33.5t30 95.5q0 60 -28 89t-75 29q-42 0 -76 -27.5t-43 -65.5z" />
    <glyph glyph-name="six.oldstyle" horiz-adv-x="538" 
d="M158 346q17 36 60 60t95 24q40 0 75 -13t61 -39t40.5 -66t14.5 -91q0 -39 -10.5 -80t-40.5 -79t-76 -56t-95 -18q-52 0 -96 19.5t-76 60t-50 103.5t-18 146q0 92 21.5 162t60 114.5t88.5 66t106 21.5q48 0 82.5 -7.5t62.5 -27.5v-120q-54 42 -135 42q-87 0 -127 -55.5
t-43 -166.5zM164 247q3 -51 19 -88q13 -31 38.5 -48.5t59.5 -17.5q46 0 76 33.5t30 95.5q0 60 -28 89t-76 29q-42 0 -75.5 -27.5t-43.5 -65.5z" />
    <glyph glyph-name="sterling.dnom" horiz-adv-x="422" 
d="M296 167h-92l-18 -93h189v-74h-327v74h47l18 93h-41v55h51l10 48q9 52 28 84q21 33 56 46.5t71 13.5q58 0 89 -19l-10 -75q-28 18 -70 18q-18 0 -33.5 -8t-23.5 -21q-10 -17 -19 -57l-6 -30h81v-55z" />
    <glyph glyph-name="sterling.sinf" horiz-adv-x="422" 
d="M296 41h-92l-18 -93h189v-74h-327v74h47l18 93h-41v55h51l10 48q9 52 28 84q21 33 56 46.5t71 13.5q58 0 89 -19l-10 -75q-28 18 -70 18q-18 0 -33.5 -8t-23.5 -21q-10 -17 -19 -57l-6 -30h81v-55z" />
    <glyph glyph-name="sterling.numr" horiz-adv-x="422" 
d="M296 449h-92l-18 -93h189v-74h-327v74h47l18 93h-41v55h51l10 48q9 52 28 84q21 33 56 46.5t71 13.5q58 0 89 -19l-10 -75q-28 18 -70 18q-18 0 -33.5 -8t-23.5 -21q-10 -17 -19 -57l-6 -30h81v-55z" />
    <glyph glyph-name="sterling.oldstyle" horiz-adv-x="611" 
d="M445 253h-151l-28 -144h297v-109h-496v109h73l29 144h-63v78h78l16 78q16 83 44 127q16 26 45.5 47.5t67 30.5t71.5 9q79 0 124 -26v-107q-22 13 -51 21.5t-56 8.5q-67 0 -94 -42q-18 -27 -30 -92l-11 -55h135v-78z" />
    <glyph glyph-name="sterling.superior" horiz-adv-x="422" 
d="M296 587h-92l-18 -93h189v-74h-327v74h47l18 93h-41v55h51l10 48q9 52 28 84q21 33 56 46.5t71 13.5q58 0 89 -19l-10 -75q-28 18 -70 18q-18 0 -33.5 -8t-23.5 -21q-10 -17 -19 -57l-6 -30h81v-55z" />
    <glyph glyph-name="t.ordn" horiz-adv-x="240" 
d="M229 290q-34 -15 -80 -15q-22 0 -41.5 7.5t-30.5 20t-15 25.5q-8 24 -8 79v108h-39v65h40v85h81v-85h82v-65h-82v-112q0 -24 5 -41q4 -9 14.5 -14.5t24.5 -5.5q23 0 49 13v-65z" />
    <glyph glyph-name="three.dnom" 
d="M38 18v77q24 -15 57.5 -22.5t61.5 -7.5q38 0 55.5 15.5t17.5 41.5q0 19 -12.5 31.5t-36.5 16.5q-25 5 -60 5h-14v66h14q41 0 56 5q38 12 38 46q0 21 -16 34.5t-50 13.5q-24 0 -52 -8.5t-50 -22.5v71q22 15 56.5 24.5t63.5 9.5q64 0 98.5 -29t34.5 -78q0 -31 -21 -57
t-62 -36q37 -5 60.5 -21.5t31 -37.5t7.5 -40q0 -55 -42.5 -88.5t-119.5 -33.5q-29 0 -62.5 6.5t-53.5 18.5z" />
    <glyph glyph-name="three.pnum" horiz-adv-x="536" 
d="M44 31v118q40 -26 89 -38t96 -12q67 0 96 30t29 77q0 34 -21.5 58t-63.5 32q-34 6 -94 6h-21v103h22q63 0 89 9q65 24 65 84q0 29 -14 50.5t-39.5 30.5t-55.5 9q-42 0 -84.5 -13t-77.5 -38v107q33 24 84.5 40.5t102.5 16.5q100 0 152 -47.5t52 -132.5q0 -53 -30.5 -96
t-96.5 -62q79 -13 116.5 -56.5t37.5 -110.5q0 -46 -16.5 -84.5t-49 -66t-80 -42.5t-107.5 -15q-48 0 -98.5 12t-81.5 31z" />
    <glyph glyph-name="three.frac" 
d="M38 300v77q24 -15 57.5 -22.5t61.5 -7.5q38 0 55.5 15.5t17.5 41.5q0 19 -12.5 31.5t-36.5 16.5q-25 5 -60 5h-14v66h14q41 0 56 5q38 12 38 46q0 21 -16 34.5t-50 13.5q-24 0 -52 -8.5t-50 -22.5v71q22 15 56.5 24.5t63.5 9.5q64 0 98.5 -29t34.5 -78q0 -31 -21 -57
t-62 -36q37 -5 60.5 -21.5t31 -37.5t7.5 -40q0 -55 -42.5 -88.5t-119.5 -33.5q-29 0 -62.5 6.5t-53.5 18.5z" />
    <glyph glyph-name="three.pnum.oldstyle" horiz-adv-x="495" 
d="M33 -97v117q29 -19 75.5 -34.5t105.5 -15.5q61 0 91.5 28.5t30.5 71.5q0 35 -21.5 58t-61.5 30q-28 6 -92 6h-20v102h20q58 0 88 9q30 10 47 32.5t17 51.5q0 40 -27 63.5t-82 23.5q-40 0 -81 -14t-77 -39v107q33 23 84 39.5t100 16.5q98 0 149.5 -45.5t51.5 -128.5
q0 -53 -32 -96.5t-97 -60.5q79 -12 117 -53.5t38 -107.5q0 -92 -65 -148t-183 -56q-47 0 -97 12t-79 31z" />
    <glyph glyph-name="three.oldstyle" horiz-adv-x="538" 
d="M60 -97v117q29 -19 76 -34.5t106 -15.5q61 0 91 28.5t30 71.5q0 35 -21 58t-61 30q-28 6 -93 6h-20v102h21q57 0 87 9q31 10 47.5 32.5t16.5 51.5q0 40 -26.5 63.5t-81.5 23.5q-40 0 -82 -14t-77 -39v107q34 24 84.5 40t100.5 16q98 0 149.5 -45.5t51.5 -128.5
q0 -53 -32 -96.5t-97 -60.5q79 -12 117 -53.5t38 -107.5q0 -92 -65.5 -148t-183.5 -56q-46 0 -96 12t-80 31z" />
    <glyph glyph-name="three_fraction_five.frac" horiz-adv-x="815" 
d="M275 -12h-59l347 713h58zM61 300v77q24 -15 57.5 -22.5t61.5 -7.5q38 0 55.5 15.5t17.5 41.5q0 19 -12.5 31.5t-36.5 16.5q-25 5 -60 5h-14v66h14q41 0 56 5q38 12 38 46q0 21 -16 34.5t-50 13.5q-24 0 -52 -8.5t-50 -22.5v71q22 15 56.5 24.5t63.5 9.5q64 0 98.5 -29
t34.5 -78q0 -31 -21 -57t-62 -36q37 -5 60.5 -21.5t31 -37.5t7.5 -40q0 -55 -42.5 -88.5t-119.5 -33.5q-29 0 -62.5 6.5t-53.5 18.5zM498 18v77q51 -29 112 -29q40 0 62.5 18t22.5 48q0 29 -22 44.5t-60 15.5q-26 0 -54.5 -4.5t-47.5 -13.5l22 233h224v-74h-162l-9 -88
q21 9 61 9q56 0 94.5 -30.5t38.5 -90.5q0 -67 -43.5 -103.5t-120.5 -36.5q-71 0 -118 25z" />
    <glyph glyph-name="glyph517" horiz-adv-x="179" 
d="M-10 762h-68q3 30 14.5 62.5t35 53t51.5 20.5q32 0 78 -31q19 -12 30.5 -17.5t22.5 -5.5q27 0 36 53h69q-5 -65 -31.5 -100t-64.5 -35q-19 0 -37 6.5t-47 24.5q-21 13 -30.5 17t-17.5 4q-14 0 -25.5 -14t-15.5 -38z" />
    <glyph glyph-name="two.dnom" 
d="M331 0h-315q124 131 165 185q39 50 39 88q0 32 -19 48t-52 16q-26 0 -56 -10.5t-54 -28.5v73q27 20 61.5 31.5t69.5 11.5q25 0 49.5 -6t46 -22t31.5 -42t10 -52q0 -67 -53 -128q-27 -33 -84 -91q32 1 161 1v-74z" />
    <glyph glyph-name="two.pnum" horiz-adv-x="533" 
d="M497 0h-489q117 135 172 200t90 114q31 43 48.5 84.5t17.5 74.5q0 56 -32 85t-88 29q-87 0 -175 -71v114q93 71 205 71q104 0 158 -54.5t54 -148.5q0 -54 -19 -106t-63 -109q-58 -76 -147 -172q21 2 268 2v-113z" />
    <glyph glyph-name="two.frac" 
d="M331 282h-315q124 131 165 185q39 50 39 88q0 32 -19 48t-52 16q-26 0 -56 -10.5t-54 -28.5v73q27 20 61.5 31.5t69.5 11.5q25 0 49.5 -6t46 -22t31.5 -42t10 -52q0 -67 -53 -128q-28 -33 -84 -91q32 1 161 1v-74z" />
    <glyph glyph-name="two.pnum.oldstyle" horiz-adv-x="510" 
d="M477 0h-466q180 168 238 233q60 69 60 123q0 42 -26 65.5t-76 23.5q-40 0 -86 -16t-85 -45v108q40 30 92 47t107 17q99 0 149.5 -46t50.5 -122q0 -94 -70 -172q-13 -14 -33.5 -35.5t-78.5 -72.5q31 1 224 1v-109z" />
    <glyph glyph-name="two.oldstyle" horiz-adv-x="538" 
d="M496 0h-465q102 96 151.5 144.5t85.5 88.5q22 25 41.5 58t19.5 65q0 42 -26 65.5t-76 23.5q-40 0 -86 -16t-86 -45v108q41 30 93 47t107 17q98 0 148.5 -46t50.5 -122q0 -94 -69 -172q-37 -40 -112 -108q30 1 223 1v-109z" />
    <glyph glyph-name="two_fraction_five.frac" horiz-adv-x="815" 
d="M295 -12h-59l347 713h58zM343 282h-315q124 131 165 185q39 50 39 88q0 32 -19 48t-52 16q-26 0 -56 -10.5t-54 -28.5v73q27 20 61.5 31.5t69.5 11.5q25 0 49.5 -6t46 -22t31.5 -42t10 -52q0 -67 -53 -128q-28 -33 -84 -91q32 1 161 1v-74zM513 18v77q51 -29 112 -29
q40 0 62.5 18t22.5 48q0 29 -22 44.5t-60 15.5q-26 0 -54.5 -4.5t-47.5 -13.5l22 233h224v-74h-162l-9 -88q21 9 61 9q56 0 94.5 -30.5t38.5 -90.5q0 -67 -43.5 -103.5t-120.5 -36.5q-71 0 -118 25z" />
    <glyph glyph-name="yen.dnom" horiz-adv-x="439" 
d="M379 198h-92l-20 -30v-13h112v-39h-112v-116h-91v116h-110v39h110v13l-20 30h-90v40h64l-111 169h108q12 -18 27 -42t29.5 -47.5t26 -43t14.5 -24.5q40 66 104 157h98l-113 -169h66v-40z" />
    <glyph glyph-name="yen.sinf" horiz-adv-x="439" 
d="M379 72h-92l-20 -30v-13h112v-39h-112v-116h-91v116h-110v39h110v13l-20 30h-90v40h64l-111 169h108q12 -18 27 -42t29.5 -47.5t26 -43t14.5 -24.5q40 66 104 157h98l-113 -169h66v-40z" />
    <glyph glyph-name="yen.numr" horiz-adv-x="439" 
d="M379 480h-92l-20 -30v-13h112v-39h-112v-116h-91v116h-110v39h110v13l-20 30h-90v40h64l-111 169h108q12 -18 27 -42t29.5 -47.5t26 -43t14.5 -24.5q40 66 104 157h98l-113 -169h66v-40z" />
    <glyph glyph-name="yen.oldstyle" horiz-adv-x="638" 
d="M552 305h-142l-32 -49v-23h174v-58h-174v-175h-123v175h-169v58h169v23l-32 49h-137v61h98l-161 250h145q112 -176 153 -246q74 119 157 246h137l-165 -250h102v-61z" />
    <glyph glyph-name="yen.superior" horiz-adv-x="439" 
d="M379 618h-92l-20 -30v-13h112v-39h-112v-116h-91v116h-110v39h110v13l-20 30h-90v40h64l-111 169h108q12 -18 27 -42t29.5 -47.5t26 -43t14.5 -24.5q40 66 104 157h98l-113 -169h66v-40z" />
    <glyph glyph-name="zero.dnom" 
d="M343 200q0 -53 -16.5 -102.5t-54.5 -77t-88 -27.5q-51 0 -86 25t-54 71t-19 111q0 68 20.5 115.5t56 73t85.5 25.5q156 0 156 -214zM257 201q0 69 -16.5 102.5t-55.5 33.5q-35 0 -53.5 -35.5t-18.5 -102.5t19 -99.5t53 -32.5q72 0 72 134z" />
    <glyph glyph-name="zero.pnum" horiz-adv-x="559" 
d="M528 339q0 -70 -14.5 -133.5t-44.5 -112.5t-78 -77t-111 -28q-47 0 -93 19t-80.5 63t-54.5 111.5t-20 157.5q0 74 15.5 140t46.5 115.5t79.5 78t110.5 28.5q244 0 244 -362zM405 341q0 123 -29 184.5t-94 61.5q-38 0 -65.5 -27t-43 -81.5t-15.5 -141.5q0 -71 12.5 -124
t40.5 -82.5t72 -29.5q122 0 122 240z" />
    <glyph glyph-name="zero.frac" 
d="M343 482q0 -53 -16.5 -102.5t-54.5 -77t-88 -27.5q-51 0 -86 25t-54 71t-19 111q0 68 20.5 115.5t56 73t85.5 25.5q156 0 156 -214zM257 483q0 69 -16.5 102.5t-55.5 33.5q-35 0 -53.5 -35.5t-18.5 -102.5t19 -99.5t53 -32.5q72 0 72 134z" />
    <glyph glyph-name="zero.pnum.oldstyle" horiz-adv-x="538" 
d="M508 268q0 -88 -30 -150.5t-82.5 -96t-127.5 -33.5q-61 0 -107 22t-75 61t-42.5 89.5t-13.5 107.5q0 59 15 111.5t45 92t76.5 62t106.5 22.5q235 0 235 -288zM387 270q0 88 -27 131.5t-88 43.5q-20 0 -41.5 -8t-39 -28.5t-27.5 -55.5t-10 -85q0 -85 31.5 -127t87.5 -42
q55 0 84.5 42t29.5 129z" />
    <glyph glyph-name="zero.oldstyle" horiz-adv-x="538" 
d="M508 268q0 -88 -30 -150.5t-82.5 -96t-127.5 -33.5q-61 0 -107 22t-75 61t-42.5 89.5t-13.5 107.5q0 59 15 111.5t45 92t76.5 62t106.5 22.5q235 0 235 -288zM387 270q0 88 -27 131.5t-88 43.5q-20 0 -41.5 -8t-39 -28.5t-27.5 -55.5t-10 -85q0 -85 31.5 -127t87.5 -42
q55 0 84.5 42t29.5 129z" />
    <glyph glyph-name="glyph588" horiz-adv-x="0" 
 />
    </font>
</defs>
</svg>
