<?xml version="1.0" encoding="utf-8"?>
<!-- Generator: Adobe Illustrator 27.9.1, SVG Export Plug-In . SVG Version: 6.00 Build 0)  -->
<svg version="1.1" id="Layer_1" xmlns="http://www.w3.org/2000/svg" xmlns:xlink="http://www.w3.org/1999/xlink" x="0px" y="0px"
	 viewBox="0 0 283.46 283.46" style="enable-background:new 0 0 283.46 283.46;" xml:space="preserve">
<style type="text/css">
	.st0{fill:#010101;}
	.st1{fill:#213F7B;}
	.st2{fill:#D42027;}
	.st3{fill:#FFFFFF;}
</style>
<g>
	<path d="M96.18,122.56c14.22,15.69,32.39,18.57,43.05,18.57s18.1-4.76,18.1-9.79c0-5.03-4.16-8.31-10.33-8.31s-7.04,3.49-7.04,3.49
		c0.92-0.94,3.8-1.74,5.83-1.74c7.71,0,7.71,9.39-2.15,9.39s-11.5-7.74-16.56-12.81c-5.06-5.06-10.26-8.52-15.22-8.52
		c-4.96,0-11.26,1.41-15.69,3.75c-4.43-2.35-10.73-3.75-15.69-3.75c-4.96,0-10.16,3.45-15.22,8.52
		c-5.06,5.06-6.71,12.81-16.56,12.81s-9.86-9.39-2.15-9.39c2.04,0,4.91,0.8,5.83,1.74c0,0-0.87-3.49-7.04-3.49
		s-10.33,3.29-10.33,8.31c0,5.03,7.44,9.79,18.1,9.79S81.96,138.25,96.18,122.56z"/>
	<path class="st0" d="M108.6,5.81c0,0-7.53-1.93-19.03-1.93S57.59,4.6,41.9,20.29s-21.32,27.19-3.71,35.93s53.54,17.25,99.17,17.25
		s65.57-15.03,65.57-21.19s-9.34-15.33-38.55-27.45s-38.95-14.11-38.95-14.11s2.05-1.49,2-4.27c-0.04-2.78-4.33-5.07-9.43-5.07
		C108.91,1.37,108.6,5.81,108.6,5.81z"/>
	<path d="M26.97,177.28c-3.67,2.13-17.41,7.79-17.41,15.32c0,7.53,5.36,9.46,5.36,9.46s-1.05,3.17-1.05,6.54
		c0,3.36,1.99,16.36,17.88,35.31s34.16,38.19,38.41,38.19c4.24,0,31.14-16.93,31.14-16.93s4.39,4.16,7.85,4.16
		s8.31-3.58,20.09-12.81c11.78-9.24,62.99-50.64,69.02-56.19s33.24-29.18,33.98-38.29c0,0,2.09,0.07,3.24-1.28
		c1.15-1.35,1.55-2.7,1.55-2.7s16.62,0.95,26.14-8.11c9.52-9.05,10.47-15.64,10.74-21.85c0,0-2.23-0.34-4.59,1.01
		c-2.36,1.35-1.82,4.32-8.38,6.55c-6.55,2.23-15.2,3.17-21.55,5.81c-6.35,2.63-10.74,6.89-10.74,6.89s3.11-4.12,0.88-7.36
		c-2.23-3.24-8.65-3.71-12.16-5.34c-3.51-1.62-5.68-1.58-5.68-5.32c0-3.74-0.1-5.51-2.06-4.94c-1.97,0.58-14.21,6.82-14.21,17.73
		c0,3.74,1.95,8.65,6.43,8.59c0,0-4.23,2.66-4.23,6.14c0,3.48,7.66,7.66,7.66,7.66s-9.43,5.78-41.64,13.5
		c-32.22,7.73-90.68,19.41-127.29,5.72C27.1,181.28,26.97,177.28,26.97,177.28z"/>
	<path class="st1" d="M74.02,205.77c0.07-4.75-0.44-4.6-0.44-11.12c0,0-18.23,0.76-31.71-1.96s-17.84-6.84-17.84-6.84
		s-3.45,0.92-3.41,4.25c0.04,3.34,2.93,6.93,7.63,9.57c4.69,2.64,7.09,3.28,7.53,4.44c0.44,1.17,0.19,4.34-3.43,4.34
		s-3.15-1.93-4.76-1.93c-1.61,0-1.97,2.4-1.42,5.23s5.86,17.4,19.68,31.92c0,0,10.51-6.23,18.53-19.26
		C70.42,214.64,73.92,213.17,74.02,205.77"/>
	<path class="st2" d="M91.19,264.79c0,0,35.32-20.91,43.93-27.41c8.62-6.5,41.53-27.97,51.28-36.73s25.16-21.55,24.79-21.93
		c-0.37-0.37-7.6,4.85-8.63,3.38s17.42-13.79,17.08-14.19c-0.34-0.4-37.63,22.02-40.53,19.33c-2.89-2.69,30.16-16.56,29.56-17.28
		s-30.66,12.38-47.9,14.77l-13.64,2.77c0,0,0.57,6.07-8.05,19.92c-8.62,13.84-10.45,15.82-15.26,21.47s-9.75,8.76-16.81,15.96
		C99.95,252.07,102.35,254.9,91.19,264.79z"/>
	<path class="st3" d="M45.85,243.69c0,0,10.51-6.23,18.53-19.26c6.03-9.79,9.53-11.26,9.63-18.65c0.07-4.75-0.44-4.6-0.44-11.12
		c0,0,24.81,1.06,43.32-2.05c18.51-3.11,30.23-5.09,30.23-5.09s0.57,6.07-8.05,19.92c-8.62,13.84-10.45,15.82-15.26,21.47
		s-9.75,8.76-16.81,15.96c-7.06,7.2-4.66,10.03-15.82,19.92c0,0-14.09,9.66-15.94,9.73S45.85,243.69,45.85,243.69z"/>
	<path class="st2" d="M109.69,260.05c0,0,0.98,3.82,3.73,2.13c2.75-1.69,33.42-25.96,33.42-25.96L109.69,260.05z"/>
	<ellipse class="st2" cx="217.74" cy="156.5" rx="12.43" ry="4.95"/>
	<path class="st2" d="M205.79,136.31c-1.65,0.09-2.7,2.3-2.41,5.31c0.28,3.01,2.13,5.41,7.49,7.11l-0.28-3.81
		c0,0,2.57,4.29,9.83,3.06c5.22-0.88,0.86-5.76-7.01-7.79C207.47,138.66,205.79,136.31,205.79,136.31z"/>
	<path class="st2" d="M249.64,143.48c-4.72,0.94-16.94,3.47-13.03,8.39l8.41-1.32l-5.24,2.91c2.06,1.66,11.86-0.25,18.43-5.46
		c6.58-5.23,6.47-9.23,6.47-9.23S253.65,142.68,249.64,143.48z"/>
</g>
</svg>
