<?xml version="1.0" encoding="utf-8"?>
<!-- Generator: Adobe Illustrator 27.9.2, SVG Export Plug-In . SVG Version: 6.00 Build 0)  -->
<svg version="1.1" id="Layer_1" xmlns="http://www.w3.org/2000/svg" xmlns:xlink="http://www.w3.org/1999/xlink" x="0px" y="0px"
	 viewBox="0 0 167.94 123.58" style="enable-background:new 0 0 167.94 123.58;" xml:space="preserve">
<style type="text/css">
	.st0{fill:none;stroke:#000000;stroke-width:5;stroke-linecap:round;stroke-linejoin:round;stroke-miterlimit:10;}
</style>
<g>
	<ellipse class="st0" cx="83.97" cy="61.79" rx="73.97" ry="54.24"/>
	<path class="st0" d="M157.93,61.79c0,3.23-33.12,5.85-73.97,5.85S10,65.02,10,61.79"/>
	<ellipse class="st0" cx="83.97" cy="61.79" rx="55.47" ry="54.24"/>
	<ellipse class="st0" cx="83.97" cy="61.79" rx="36.98" ry="54.24"/>
	<ellipse class="st0" cx="83.97" cy="61.79" rx="18.49" ry="54.24"/>
	<line class="st0" x1="83.97" y1="7.55" x2="83.97" y2="116.03"/>
</g>
<path class="st0" d="M145.89,32.11c-15.68,8.21-37.63,13.32-61.92,13.32c-24.29,0-46.24-5.1-61.92-13.32"/>
<path class="st0" d="M137.42,99.28c-14.7-5.91-33.27-9.43-53.46-9.43c-20.19,0-38.76,3.52-53.45,9.43"/>
</svg>
