<?xml version="1.0" encoding="utf-8"?>
<!-- Generator: Adobe Illustrator 27.9.2, SVG Export Plug-In . SVG Version: 6.00 Build 0)  -->
<svg version="1.1" id="Layer_1" xmlns="http://www.w3.org/2000/svg" xmlns:xlink="http://www.w3.org/1999/xlink" x="0px" y="0px"
	 viewBox="0 0 167.94 123.58" style="enable-background:new 0 0 167.94 123.58;" xml:space="preserve">
<style type="text/css">
	.st0{fill:none;stroke:#000000;stroke-width:8;stroke-linecap:round;stroke-linejoin:round;}
</style>
<g>
	<g>
		<path class="st0" d="M51.86,98.77c-12.71-8.49-20.91-21.9-20.91-36.98c0-22.79,18.72-41.75,43.42-45.71"/>
		<g>
			<path d="M74.38,107.5c-8.9-8.22-19.2-20.23-24.38-30.6l-0.88,20.21l-13.6,14.97C46.5,108.36,62.27,107.07,74.38,107.5z"/>
		</g>
	</g>
</g>
<g>
	<g>
		<path class="st0" d="M93.56,107.5c24.7-3.96,43.42-22.92,43.42-45.71c0-15.09-8.2-28.49-20.91-36.98"/>
		<g>
			<path d="M93.56,16.08c12.11,0.42,27.88-0.86,38.86-4.58l-13.6,14.97l-0.87,20.21C112.76,36.31,102.47,24.3,93.56,16.08z"/>
		</g>
	</g>
</g>
</svg>
