<?xml version="1.0" encoding="utf-8"?>
<!-- Generator: Adobe Illustrator 27.9.2, SVG Export Plug-In . SVG Version: 6.00 Build 0)  -->
<svg version="1.1" id="Layer_1" xmlns="http://www.w3.org/2000/svg" xmlns:xlink="http://www.w3.org/1999/xlink" x="0px" y="0px"
	 viewBox="0 0 167.94 123.58" style="enable-background:new 0 0 167.94 123.58;" xml:space="preserve">
<style type="text/css">
	.st0{fill:none;stroke:#000000;stroke-width:5;stroke-linecap:round;stroke-linejoin:round;stroke-miterlimit:10;}
</style>
<g id="b">
	<g id="c">
		<path id="d" d="M49.3,48.71c0,8.72,0,17.44,0,26.15l-1.6,1.99l-9.97,0.06c-0.57-0.63-1.08-1.25-1.6-1.88c0-8.15,0-15.04,0-23.13
			l-4.9,1.31c0,9,0,15.44,0,24.5c1.03,1.14,1.99,2.28,3.02,3.48c0.23,0.28,0.57,0.68,0.57,0.68h15.84c1.2-1.54,2.39-3.25,3.59-4.84
			c0-10.2,0-19.03,0-29.23L49.3,48.71L49.3,48.71z"/>
		<path id="e" d="M128.38,50.36c-3.53,4.79-5.81,8.32-9.06,13.28c0-5.47,0-9.8,0-15.33l-4.9-1.08c0,11.85,0,22.73,0,34.64h4.9
			c0-3.7,0-5.53,0-9.23c1.88-2.91,2.85-4.33,4.73-7.07c1.99,2.05,2.96,3.08,4.9,5.07v11.22h4.9c0-4.56,0-13.62,0-13.79l0,0
			c-2.68-2.68-4.05-4.05-6.72-6.95c2.68-3.7,4.05-5.93,6.89-9.52L128.38,50.36L128.38,50.36z"/>
		<path id="f" d="M94.71,64.1c4.16,0.34,7.64,0.68,11.79,1.03c0-0.23,0-4.79,0-5.24c-4.16-0.46-7.64-0.97-11.79-1.42
			c0-2.68,0-8.2,0-10.88l13.9,3.02c0-2.68,0-1.37,0-4.05c0,0-0.06,0.11-0.06-0.63c-4.79-0.91-17.32-3.99-18.75-4.22
			c0,13.28,0,26.61-0.06,39.88h4.39h14.81h0.17c0-2.62,0-2.11,0-4.79l-14.47-0.11C94.71,73.55,94.71,67.4,94.71,64.1"/>
		<path id="g" d="M13.23,70.7l9.91-0.74c0,0.4,0-4.05,0-4.05l-9.91,0.97v-5.64l11.85-2.22v-4.56L8.33,58.28v23.48h17.26v-4.79H13.23
			L13.23,70.7"/>
		<path id="h" d="M145.99,58.45l7.69,1.37c0.51,0.63,0.97,1.25,1.48,1.94v9.52l-10.65-0.91V59.99
			C145.08,59.37,145.36,59.02,145.99,58.45 M156.47,56.8l-13.16-2.91c-1.08,1.14-2.17,2.28-3.25,3.42c0,8.89,0,15.5,0,24.39
			c1.48,0.06,2.96,0.06,4.44-0.06v-7.01l10.65,0.51v6.55h4.44V60.56C158.7,59.37,156.47,56.8,156.47,56.8"/>
		<path id="i" d="M77.79,59.08c-0.57,0.91-0.85,1.37-1.48,2.28l-10.43,1.03c0-3.82,0-12.76,0-12.76l10.26-2.28
			c0.51,0.68,1.08,1.42,1.6,2.11C77.79,52.19,77.79,56.4,77.79,59.08 M82.69,46.6c-1.2-1.65-2.45-3.25-3.65-4.79l-18.06,4.27
			c0,12.19,0,23.48,0,35.61c1.65,0.11,3.3,0.06,4.9-0.06c0-4.5,0-10.48,0-14.99l10.26-0.68c0.51,0.74,1.08,1.48,1.6,2.22
			c0,3.99,0,9.52,0,13.5h4.9c0-5.36,0-10.71,0-16.07c-0.63-0.91-0.91-1.31-1.54-2.22c0.63-0.97,0.97-1.48,1.6-2.51
			C82.69,56.18,82.69,51.39,82.69,46.6"/>
	</g>
</g>
</svg>