<?xml version="1.0" encoding="utf-8"?>
<!-- Generator: Adobe Illustrator 27.9.2, SVG Export Plug-In . SVG Version: 6.00 Build 0)  -->
<svg version="1.1" id="Layer_1" xmlns="http://www.w3.org/2000/svg" xmlns:xlink="http://www.w3.org/1999/xlink" x="0px" y="0px"
	 viewBox="0 0 118 109" style="enable-background:new 0 0 118 109;" xml:space="preserve">
<style type="text/css">
	.st0{fill:none;stroke:#161616;stroke-linecap:round;stroke-linejoin:round;stroke-miterlimit:10;stroke-opacity:0;}
	.st1{fill:none;}
	.st2{enable-background:new    ;}
	.st3{fill:none;stroke:#161616;stroke-linecap:round;stroke-linejoin:round;}
	.st4{fill:none;stroke:#161616;stroke-linecap:round;stroke-linejoin:round;stroke-dasharray:3.0197,3.0197;}
	.st5{fill:none;stroke:#161616;stroke-linecap:round;stroke-linejoin:round;stroke-miterlimit:10;}
	.st6{fill:none;stroke:#E9262E;stroke-linecap:round;stroke-linejoin:round;}
	.st7{fill:#E9262E;}
	.st8{fill:none;stroke:#E9262E;stroke-width:2;stroke-miterlimit:10;}
	.st9{fill:#FFFFFF;stroke:#161616;stroke-width:0.5364;stroke-linecap:round;stroke-linejoin:round;stroke-miterlimit:10;}
	.st10{fill:#B6012A;}
	.st11{fill:#1E4A9A;}
	.st12{fill:#19572A;}
	.st13{fill:#B22234;}
	.st14{stroke:#FFFFFF;stroke-width:0.8447;stroke-miterlimit:10;}
	.st15{fill:#3C3B6E;}
	.st16{fill:#FFFFFF;}
	.st17{fill:#F15B25;}
	.st18{fill:#006934;}
	.st19{fill:#2C2C6F;}
	.st20{fill:#161616;}
	.st21{fill:#ED2939;}
	.st22{fill:#002395;}
</style>
<path class="st0" d="M85,87.2c-9.1-3.3-20.2-5.2-32.2-5.2s-23.1,1.9-32.2,5.2"/>
<path class="st0" d="M90.4,45.9c-9.9,4.7-23.1,7.5-37.6,7.5c-14.5,0-27.7-2.8-37.5-7.5"/>
<g>
	<rect x="88.3" y="63.8" class="st1" width="18.9" height="7.6"/>
	<g class="st2">
		<path d="M89.5,70.6l-0.2-0.6c0.3-0.1,0.5-0.3,0.6-0.4C90,69.4,90,69.2,90,69v-3.8h0.8v3.8c0,0.5-0.1,0.8-0.3,1
			C90.3,70.2,90,70.4,89.5,70.6z"/>
		<path d="M92.2,69.4h-0.8l1.6-4.2h0.7l1.6,4.2h-0.8l-0.4-1.1h-1.5L92.2,69.4z M92.8,67.6h1.1c0-0.1-0.1-0.1-0.1-0.2
			c0-0.1-0.1-0.3-0.2-0.5c-0.1-0.2-0.2-0.5-0.2-0.7C93.2,66.4,93.1,66.9,92.8,67.6z"/>
		<path d="M96.6,69.4h-0.8v-4.2h1.1c0.4,0,0.7,0,0.9,0.1c0.3,0.1,0.6,0.2,0.7,0.4c0.2,0.2,0.3,0.5,0.3,0.8c0,0.1,0,0.3-0.1,0.5
			c0,0.2-0.1,0.3-0.2,0.4c-0.1,0.1-0.3,0.2-0.4,0.3c-0.3,0.1-0.7,0.2-1.1,0.2h-0.3L96.6,69.4L96.6,69.4z M96.6,67.2h0.3
			c0.3,0,0.5,0,0.7-0.1c0.1,0,0.2-0.1,0.3-0.2c0.1-0.1,0.1-0.2,0.1-0.4c0-0.2-0.1-0.3-0.1-0.4c-0.1-0.1-0.2-0.2-0.4-0.2
			c-0.1,0-0.3-0.1-0.6-0.1h-0.3C96.6,65.8,96.6,67.2,96.6,67.2z"/>
		<path d="M99.5,69.4h-0.8l1.6-4.2h0.7l1.6,4.2h-0.8l-0.4-1.1h-1.5L99.5,69.4z M100.1,67.6h1.1c0-0.1-0.1-0.1-0.1-0.2
			c0-0.1-0.1-0.3-0.2-0.5c-0.1-0.2-0.2-0.5-0.2-0.7C100.6,66.4,100.4,66.9,100.1,67.6z"/>
		<path d="M103.9,69.4h-0.8v-4.2h0.7c0,0.1,0.1,0.1,0.2,0.2s0.4,0.5,0.9,1.2c0.5,0.7,0.8,1.2,1,1.4c0-0.5,0-1.4,0-2.8h0.8v4.2H106
			c-0.8-1.2-1.4-2-1.6-2.3c-0.2-0.3-0.4-0.6-0.5-0.7C103.9,66.6,103.9,67.6,103.9,69.4z"/>
	</g>
	<g class="st2">
		<path d="M68.9,59.8h-0.8v-4.2h0.8V59.8z"/>
		<path d="M70.6,59.8h-0.8v-4.2h0.7c0,0,0.1,0.1,0.2,0.2s0.4,0.5,0.9,1.2c0.5,0.7,0.8,1.2,1,1.4c0-0.5,0-1.4,0-2.8h0.8v4.2h-0.7
			c-0.8-1.2-1.4-2-1.6-2.3s-0.4-0.5-0.5-0.7C70.6,57,70.6,58,70.6,59.8z"/>
		<path d="M74.3,59.8v-4.2h1.1c0.7,0,1.1,0.1,1.4,0.2c0.8,0.3,1.1,1,1.1,1.9c0,0.5-0.1,0.9-0.3,1.2s-0.5,0.6-0.9,0.7
			c-0.3,0.1-0.8,0.2-1.4,0.2H74.3z M75.1,59h0.3c0.4,0,0.8,0,1-0.2c0.2-0.1,0.4-0.3,0.5-0.5s0.2-0.5,0.2-0.8c0-0.3-0.1-0.5-0.2-0.7
			s-0.3-0.4-0.5-0.5c-0.2-0.1-0.5-0.2-0.9-0.2h-0.4L75.1,59L75.1,59z"/>
		<path d="M79.5,59.8h-0.8v-4.2h0.8L79.5,59.8L79.5,59.8z"/>
		<path d="M80.8,59.8H80l1.6-4.2h0.7l1.6,4.2h-0.8l-0.4-1.1h-1.5L80.8,59.8z M81.5,58h1.1c0,0-0.1-0.1-0.1-0.2
			c-0.1-0.1-0.1-0.3-0.2-0.5c-0.1-0.2-0.2-0.5-0.2-0.7C81.9,56.7,81.7,57.2,81.5,58z"/>
	</g>
	<g class="st2">
		<path d="M9.2,64h0.8v2.4c0,0.3,0,0.5,0.1,0.7c0,0.1,0.1,0.2,0.2,0.3c0.1,0.1,0.2,0.1,0.3,0.2s0.2,0,0.3,0c0.5,0,0.8-0.2,0.9-0.5
			c0-0.2,0.1-0.4,0.1-0.7V64h0.8v2.4c0,0.4-0.1,0.8-0.2,1c-0.1,0.3-0.3,0.5-0.6,0.6s-0.6,0.2-1,0.2c-0.2,0-0.4,0-0.6-0.1
			S9.8,68.1,9.7,68c-0.2-0.1-0.3-0.3-0.4-0.5c-0.1-0.3-0.2-0.6-0.2-1L9.2,64L9.2,64z"/>
		<path d="M13.4,67.9v-0.8c0.2,0.2,0.4,0.3,0.7,0.4c0.3,0.1,0.5,0.1,0.7,0.1c0.2,0,0.4,0,0.5-0.1c0.1-0.1,0.2-0.2,0.2-0.4
			c0-0.1,0-0.2-0.1-0.3c-0.1-0.1-0.2-0.2-0.4-0.3l-0.5-0.2c-0.4-0.2-0.6-0.3-0.8-0.5c-0.1-0.2-0.2-0.4-0.2-0.7
			c0-0.4,0.1-0.7,0.4-0.9s0.6-0.3,1.1-0.3c0.2,0,0.4,0,0.6,0.1c0.2,0.1,0.4,0.1,0.5,0.2V65c-0.2-0.1-0.4-0.2-0.6-0.3
			c-0.2-0.1-0.4-0.1-0.6-0.1c-0.1,0-0.2,0-0.3,0c-0.1,0-0.2,0.1-0.2,0.2c-0.1,0.1-0.1,0.2-0.1,0.3s0,0.2,0.1,0.3s0.2,0.2,0.4,0.3
			l0.5,0.2c0.2,0.1,0.4,0.2,0.6,0.3c0.2,0.1,0.3,0.2,0.4,0.4c0.1,0.2,0.1,0.3,0.1,0.6c0,0.2,0,0.3-0.1,0.5c-0.1,0.2-0.2,0.3-0.3,0.4
			s-0.3,0.2-0.5,0.3s-0.4,0.1-0.7,0.1c-0.3,0-0.5,0-0.8-0.1C13.7,68.1,13.5,68,13.4,67.9z"/>
		<path d="M17.4,68.2h-0.8l1.6-4.2h0.7l1.6,4.2h-0.8l-0.4-1.1h-1.5L17.4,68.2z M18,66.5h1.1c0-0.1,0-0.1-0.1-0.2
			c0-0.1-0.1-0.3-0.2-0.5c-0.1-0.2-0.2-0.5-0.2-0.7C18.5,65.2,18.3,65.7,18,66.5z"/>
	</g>
	<g>
		<g>
			<g>
				<path class="st3" d="M88.3,84.4c-0.4,0.3-0.7,0.7-1.1,1"/>
				<path class="st4" d="M84.9,87.3c-8.2,6.1-19.5,9.8-32.1,9.8c-24.9,0-45-14.8-45-33s20.1-33,45-33c23.5,0,42.7,13.2,44.8,30"/>
				<path class="st3" d="M97.8,62.6c0,0.5,0.1,1,0.1,1.5"/>
			</g>
		</g>
		<g>
			<g>
				<path class="st3" d="M96.9,70.7c-0.1,0.5-0.3,1-0.4,1.4"/>
				<path class="st3" d="M95,75.7c-0.2,0.4-0.5,0.9-0.7,1.3"/>
			</g>
		</g>
		<path class="st5" d="M88.7,66.3c-8.2,0.9-21.2,1.4-35.9,1.4c-12.2,0-23.3-0.4-31.5-1"/>
		<path class="st5" d="M19.1,62.4C20,45,34.8,31.1,52.8,31.1c18.6,0,33.8,14.8,33.8,33s-15.1,33-33.8,33c-16.8,0-30.8-12-33.3-27.8"
			/>
		<path class="st5" d="M75.2,61.1c0.1,1,0.1,2,0.1,3c0,18.2-10.1,33-22.5,33s-22.5-14.8-22.5-33s10.1-33,22.5-33
			c10.1,0,18.6,9.8,21.5,23.2"/>
		<ellipse class="st5" cx="52.8" cy="64.1" rx="11.2" ry="33"/>
		<line class="st5" x1="52.8" y1="31.1" x2="52.8" y2="97.1"/>
	</g>
	<g>
		<g>
			<path class="st6" d="M13.9,56c0-14.5,3.2-25.7,19.8-29.8"/>
			<g>
				<path class="st7" d="M17.7,56c0,1-0.8,1.9-1.9,1.9S13.9,57,13.9,56s0.8-1.9,1.9-1.9S17.7,55,17.7,56z"/>
			</g>
			<g>
				<polygon class="st7" points="33,27.8 38,25.1 32.3,25 				"/>
			</g>
		</g>
	</g>
	<g>
		<g>
			<path class="st6" d="M97.8,57.7c0-20.8-9.3-27.5-25.3-31.2"/>
			<g>
				<path class="st7" d="M99.7,57.7c0,1-0.8,1.9-1.9,1.9S96,58.8,96,57.7s0.8-1.9,1.9-1.9S99.7,56.7,99.7,57.7z"/>
			</g>
			<g>
				<polygon class="st7" points="73.8,25.3 68.2,25.5 73.1,28.2 				"/>
			</g>
		</g>
	</g>
	<g>
		<g>
			<path class="st6" d="M75.9,47.7c0-7.9-0.7-12.8-5.4-17.1"/>
			<g>
				<path class="st7" d="M77.8,47.7c0,1-0.8,1.9-1.9,1.9S74,48.7,74,47.7s0.8-1.9,1.9-1.9S77.8,46.7,77.8,47.7z"/>
			</g>
			<g>
				<polygon class="st7" points="72.2,30.2 67.2,27.6 70.2,32.3 				"/>
			</g>
		</g>
	</g>
	<g>
		<g>
			<path class="st8" d="M52.8,29.3c0,13.3-2.8,34.9,30.7,48.4"/>
			<g>
				<polygon class="st7" points="80.7,79.2 89,80.2 82.3,75.1 				"/>
			</g>
		</g>
	</g>
	<g class="st2">
		<path d="M90.3,93.9h-0.8v-4.2H92v0.7h-1.7v1.1h1.6v0.7h-1.6L90.3,93.9L90.3,93.9z"/>
		<path d="M93.5,93.9h-0.8v-4.2h1c0.4,0,0.8,0,1,0.1c0.3,0.1,0.5,0.2,0.7,0.4s0.2,0.4,0.2,0.7c0,0.5-0.3,0.9-0.8,1.1
			c0.2,0.1,0.3,0.2,0.4,0.4c0.1,0.2,0.4,0.7,0.8,1.6h-0.9c-0.3-0.6-0.5-1-0.6-1.2s-0.2-0.3-0.3-0.4c0,0-0.1,0-0.2-0.1
			c-0.1,0-0.1,0-0.2,0h-0.4L93.5,93.9L93.5,93.9z M93.5,91.6h0.5c0.2,0,0.3,0,0.4-0.1c0.3-0.1,0.4-0.3,0.4-0.6c0-0.1,0-0.2-0.1-0.3
			s-0.1-0.2-0.2-0.2s-0.2-0.1-0.3-0.1c-0.1,0-0.3,0-0.5,0h-0.2L93.5,91.6L93.5,91.6z"/>
		<path d="M99.2,93.9h-2.7v-4.2h2.5v0.7h-1.8v1h1.6v0.7h-1.6v1.1h1.9V93.9z"/>
		<path d="M100.7,93.9H100v-4.2h0.7c0,0.1,0.1,0.1,0.2,0.2s0.4,0.5,0.9,1.2c0.5,0.7,0.8,1.2,1,1.4c0-0.5,0-1.4,0-2.8h0.8v4.2h-0.7
			c-0.8-1.2-1.4-2-1.6-2.3s-0.4-0.6-0.5-0.7C100.7,91.2,100.7,92.2,100.7,93.9z"/>
		<path d="M107.6,93.6c-0.3,0.2-0.8,0.3-1.3,0.3c-0.3,0-0.6-0.1-0.8-0.2c-0.3-0.1-0.5-0.2-0.7-0.4c-0.2-0.2-0.3-0.4-0.4-0.7
			c-0.1-0.3-0.2-0.6-0.2-0.9s0.1-0.6,0.2-0.9s0.3-0.5,0.4-0.7c0.2-0.2,0.4-0.3,0.7-0.4c0.3-0.1,0.5-0.2,0.8-0.2c0.6,0,1,0.1,1.3,0.3
			v0.8c-0.2-0.1-0.3-0.2-0.5-0.3c-0.2-0.1-0.4-0.1-0.6-0.1c-0.4,0-0.8,0.1-1.1,0.4c-0.3,0.3-0.4,0.6-0.4,1.1c0,0.2,0,0.4,0.1,0.6
			c0.1,0.2,0.2,0.3,0.3,0.5s0.3,0.2,0.5,0.3s0.4,0.1,0.6,0.1c0.4,0,0.8-0.1,1.2-0.4V93.6z"/>
		<path d="M111.6,93.9h-0.8v-1.8H109v1.8h-0.8v-4.2h0.8v1.7h1.8v-1.7h0.8V93.9z"/>
	</g>
	<g class="st2">
		<path d="M90.3,101.1h-0.8v-4.2H92v0.7h-1.7v1.1h1.6v0.7h-1.6L90.3,101.1L90.3,101.1z"/>
		<path d="M93.5,101.1h-0.8v-4.2h1c0.4,0,0.8,0,1,0.1c0.3,0.1,0.5,0.2,0.7,0.4s0.2,0.4,0.2,0.7c0,0.5-0.3,0.9-0.8,1.1
			c0.2,0.1,0.3,0.2,0.4,0.4c0.1,0.2,0.4,0.7,0.8,1.6h-0.9c-0.3-0.6-0.5-1-0.6-1.2s-0.2-0.3-0.3-0.4c0,0-0.1,0-0.2-0.1
			c-0.1,0-0.1,0-0.2,0h-0.4L93.5,101.1L93.5,101.1z M93.5,98.8h0.5c0.2,0,0.3,0,0.4-0.1c0.3-0.1,0.4-0.3,0.4-0.6
			c0-0.1,0-0.2-0.1-0.3s-0.1-0.2-0.2-0.2s-0.2-0.1-0.3-0.1c-0.1,0-0.3,0-0.5,0h-0.2L93.5,98.8L93.5,98.8z"/>
		<path d="M97.3,101.1h-0.8v-4.2h0.8V101.1z"/>
		<path d="M99.1,101.1h-0.8v-4.2h1.1c0.4,0,0.7,0,0.9,0.1c0.3,0.1,0.6,0.2,0.7,0.4s0.3,0.5,0.3,0.8c0,0.1,0,0.3-0.1,0.4
			s-0.1,0.3-0.2,0.4s-0.3,0.2-0.4,0.3c-0.3,0.1-0.7,0.2-1.1,0.2h-0.3L99.1,101.1L99.1,101.1z M99.1,98.9h0.3c0.3,0,0.5,0,0.7-0.1
			c0.1-0.1,0.2-0.1,0.3-0.2c0.1-0.1,0.1-0.2,0.1-0.4c0-0.2-0.1-0.3-0.1-0.4c-0.1-0.1-0.2-0.2-0.4-0.2c-0.1,0-0.3-0.1-0.6-0.1h-0.3
			C99.1,97.6,99.1,98.9,99.1,98.9z"/>
		<path d="M104.5,101.1h-2.7v-4.2h2.5v0.7h-1.8v1h1.6v0.7h-1.6v1.1h1.9V101.1z"/>
	</g>
	<rect x="89" y="51.7" class="st9" width="17.6" height="11.3"/>
	<circle class="st10" cx="97.8" cy="57.3" r="2.9"/>
	<g>
		<rect x="89.2" y="77.8" class="st11" width="3.2" height="10"/>
		<g>
			<rect x="93.1" y="77.8" class="st7" width="3.2" height="2.8"/>
			<rect x="93.1" y="81.3" class="st7" width="3.2" height="2.8"/>
		</g>
		<g>
			<rect x="101" y="77.8" class="st7" width="3.2" height="2.8"/>
			<rect x="101" y="81.3" class="st7" width="3.2" height="2.8"/>
		</g>
		<rect x="97" y="77.8" class="st11" width="3.2" height="10"/>
	</g>
	<g id="b">
		<g id="c">
			<path id="d" class="st12" d="M47,21.2c0,1.5,0,3.1,0,4.6l-0.3,0.4l-1.8,0c-0.1-0.1-0.2-0.2-0.3-0.3c0-1.4,0-2.6,0-4.1L43.8,22
				c0,1.6,0,2.7,0,4.3c0.2,0.2,0.3,0.4,0.5,0.6c0,0.1,0.1,0.1,0.1,0.1h2.8c0.2-0.3,0.4-0.6,0.6-0.9c0-1.8,0-3.3,0-5.1L47,21.2
				L47,21.2z"/>
			<path id="e" class="st12" d="M60.8,21.5c-0.6,0.8-1,1.5-1.6,2.3c0-1,0-1.7,0-2.7l-0.9-0.2c0,2.1,0,4,0,6.1h0.9c0-0.6,0-1,0-1.6
				c0.3-0.5,0.5-0.8,0.8-1.2c0.3,0.4,0.5,0.5,0.9,0.9v2h0.9c0-0.8,0-2.4,0-2.4l0,0c-0.5-0.5-0.7-0.7-1.2-1.2c0.5-0.6,0.7-1,1.2-1.7
				L60.8,21.5L60.8,21.5z"/>
			<path id="f" class="st12" d="M54.9,23.9c0.7,0.1,1.3,0.1,2.1,0.2c0,0,0-0.8,0-0.9c-0.7-0.1-1.3-0.2-2.1-0.2c0-0.5,0-1.4,0-1.9
				l2.4,0.5c0-0.5,0-0.2,0-0.7c0,0,0,0,0-0.1c-0.8-0.2-3-0.7-3.3-0.7c0,2.3,0,4.7,0,7h0.8h2.6h0c0-0.5,0-0.4,0-0.8l-2.5,0
				C54.9,25.5,54.9,24.4,54.9,23.9"/>
			<path id="g" class="st12" d="M40.6,25l1.7-0.1c0,0.1,0-0.7,0-0.7l-1.7,0.2v-1l2.1-0.4v-0.8l-2.9,0.7V27h3v-0.8h-2.2L40.6,25"/>
			<path id="h" class="st12" d="M63.9,22.9l1.3,0.2c0.1,0.1,0.2,0.2,0.3,0.3v1.7L63.7,25v-1.8C63.8,23,63.8,23,63.9,22.9 M65.8,22.6
				l-2.3-0.5c-0.2,0.2-0.4,0.4-0.6,0.6c0,1.6,0,2.7,0,4.3c0.3,0,0.5,0,0.8,0v-1.2l1.9,0.1V27h0.8v-3.7C66.2,23,65.8,22.6,65.8,22.6"
				/>
			<path id="i" class="st12" d="M52,23c-0.1,0.2-0.2,0.2-0.3,0.4l-1.8,0.2c0-0.7,0-2.2,0-2.2l1.8-0.4c0.1,0.1,0.2,0.2,0.3,0.4
				C52,21.8,52,22.5,52,23 M52.8,20.8c-0.2-0.3-0.4-0.6-0.6-0.8L49,20.7c0,2.1,0,4.1,0,6.2c0.3,0,0.6,0,0.9,0c0-0.8,0-1.8,0-2.6
				l1.8-0.1c0.1,0.1,0.2,0.3,0.3,0.4c0,0.7,0,1.7,0,2.4h0.9c0-0.9,0-1.9,0-2.8c-0.1-0.2-0.2-0.2-0.3-0.4c0.1-0.2,0.2-0.3,0.3-0.4
				C52.8,22.5,52.8,21.6,52.8,20.8"/>
		</g>
	</g>
	<g>
		<rect x="4.2" y="51" class="st13" width="20.9" height="11"/>
		<path class="st14" d="M4.2,52.3H25 M25,54H4.2 M4.2,55.6H25 M25,57.3H4.2 M4.2,59H25 M25,60.7H4.2"/>
		<rect x="4.2" y="51" class="st15" width="8.4" height="5.9"/>
		<g>
			<g id="s18">
				<g id="s9">
					<g id="s5">
						<g id="s4">
							<path id="s" class="st16" d="M4.9,51.3l0.2,0.6l-0.5-0.4h0.6l-0.5,0.4L4.9,51.3z"/>
							<g>
								<path id="s_00000048479705803855576580000004377563816617882022_" class="st16" d="M4.9,52.4L5.1,53l-0.5-0.4h0.6L4.7,53
									L4.9,52.4z"/>
							</g>
							<g>
								<path id="s_00000182498381500374876530000012899710161074389638_" class="st16" d="M4.9,53.6l0.2,0.6l-0.5-0.4h0.6l-0.5,0.4
									L4.9,53.6z"/>
							</g>
							<g>
								<path id="s_00000010283058362410712490000002892793884286138557_" class="st16" d="M4.9,54.8l0.2,0.6L4.5,55h0.6l-0.5,0.4
									L4.9,54.8z"/>
							</g>
						</g>
						<g>
							<path id="s_00000029034220595660992320000013815961654380009626_" class="st16" d="M4.9,56l0.2,0.6l-0.5-0.4h0.6l-0.5,0.4
								L4.9,56z"/>
						</g>
					</g>
					<g>
						<g id="s4_00000143586381572878371210000012662887208650165892_">
							<path id="s_00000149374842054711710370000011231666512051816115_" class="st16" d="M5.6,51.8l0.2,0.6l-0.5-0.4h0.6l-0.5,0.4
								L5.6,51.8z"/>
							<g>
								<path id="s_00000103261670498908757960000015618751117063209649_" class="st16" d="M5.6,53l0.2,0.6l-0.5-0.4h0.6l-0.5,0.4
									L5.6,53z"/>
							</g>
							<g>
								<path id="s_00000010282904766513191690000015715714305589568431_" class="st16" d="M5.6,54.2l0.2,0.6l-0.5-0.4h0.6l-0.5,0.4
									L5.6,54.2z"/>
							</g>
							<g>
								<path id="s_00000119811564652835319110000018402862535152404663_" class="st16" d="M5.6,55.4L5.8,56l-0.5-0.4h0.6L5.4,56
									L5.6,55.4z"/>
							</g>
						</g>
					</g>
				</g>
				<g>
					<g id="s9_00000025433828878908445820000013101363124324897195_">
						<g id="s5_00000090989310890649429180000007378769994970704263_">
							<g id="s4_00000080894890039544766290000015896354566458593685_">
								<path id="s_00000121992530342704206310000000941479013978249623_" class="st16" d="M6.3,51.3l0.2,0.6l-0.5-0.4h0.6l-0.5,0.4
									L6.3,51.3z"/>
								<g>
									<path id="s_00000180341623130835853350000006037032421024713871_" class="st16" d="M6.3,52.4L6.5,53l-0.5-0.4h0.6L6.1,53
										L6.3,52.4z"/>
								</g>
								<g>
									<path id="s_00000137114600696312602190000018175485248237299350_" class="st16" d="M6.3,53.6l0.2,0.6l-0.5-0.4h0.6
										l-0.5,0.4L6.3,53.6z"/>
								</g>
								<g>
									<path id="s_00000097492146058269208470000007435161164805241014_" class="st16" d="M6.3,54.8l0.2,0.6L5.9,55h0.6l-0.5,0.4
										L6.3,54.8z"/>
								</g>
							</g>
							<g>
								<path id="s_00000073679795342888655550000009547460419887167637_" class="st16" d="M6.3,56l0.2,0.6l-0.5-0.4h0.6l-0.5,0.4
									L6.3,56z"/>
							</g>
						</g>
						<g>
							<g id="s4_00000067213029047310474950000003722183084239513756_">
								<path id="s_00000090997215773548020840000014186117437067994752_" class="st16" d="M6.9,51.8l0.2,0.6l-0.5-0.4h0.6l-0.5,0.4
									L6.9,51.8z"/>
								<g>
									<path id="s_00000000210984131776793990000000522783813772852662_" class="st16" d="M6.9,53l0.2,0.6l-0.5-0.4h0.6l-0.5,0.4
										L6.9,53z"/>
								</g>
								<g>
									<path id="s_00000101068847311822505370000007033889590180138920_" class="st16" d="M6.9,54.2l0.2,0.6l-0.5-0.4h0.6
										l-0.5,0.4L6.9,54.2z"/>
								</g>
								<g>
									<path id="s_00000142862041317006961550000008668772212224054952_" class="st16" d="M6.9,55.4L7.2,56l-0.5-0.4h0.6L6.8,56
										L6.9,55.4z"/>
								</g>
							</g>
						</g>
					</g>
				</g>
			</g>
			<g>
				<g id="s18_00000132066088451231690000000005038305124551332495_">
					<g id="s9_00000076583548608018536700000009882401675567334557_">
						<g id="s5_00000129913511895715448020000007799967106045931400_">
							<g id="s4_00000095307392212350197340000005457110457547176094_">
								<path id="s_00000177443106296231404060000017565325074961175986_" class="st16" d="M7.7,51.3l0.2,0.6l-0.5-0.4H8l-0.5,0.4
									L7.7,51.3z"/>
								<g>
									<path id="s_00000168808358343656399360000001668812771381957027_" class="st16" d="M7.7,52.4L7.8,53l-0.5-0.4H8L7.4,53
										L7.7,52.4z"/>
								</g>
								<g>
									<path id="s_00000112593320593437838700000016649132877396704942_" class="st16" d="M7.7,53.6l0.2,0.6l-0.5-0.4H8l-0.5,0.4
										L7.7,53.6z"/>
								</g>
								<g>
									<path id="s_00000155113566689795346640000016975040172992554379_" class="st16" d="M7.7,54.8l0.2,0.6L7.3,55H8l-0.5,0.4
										L7.7,54.8z"/>
								</g>
							</g>
							<g>
								<path id="s_00000158715332643044388890000004004590410967260041_" class="st16" d="M7.7,56l0.2,0.6l-0.5-0.4H8l-0.5,0.4
									L7.7,56z"/>
							</g>
						</g>
						<g>
							<g id="s4_00000023975775106797492860000003378725187739392151_">
								<path id="s_00000155864616780677241860000002803886061077243788_" class="st16" d="M8.3,51.8l0.2,0.6L8,52.1h0.6l-0.5,0.4
									L8.3,51.8z"/>
								<g>
									<path id="s_00000047056242396068556310000013782203198794354573_" class="st16" d="M8.3,53l0.2,0.6L8,53.3h0.6l-0.5,0.4
										L8.3,53z"/>
								</g>
								<g>
									<path id="s_00000070094268681133303640000003070862844975311749_" class="st16" d="M8.3,54.2l0.2,0.6L8,54.4h0.6l-0.5,0.4
										L8.3,54.2z"/>
								</g>
								<g>
									<path id="s_00000140001482150370075580000017101963451771789185_" class="st16" d="M8.3,55.4L8.5,56L8,55.6h0.6L8.1,56
										L8.3,55.4z"/>
								</g>
							</g>
						</g>
					</g>
					<g>
						<g id="s9_00000155826707598270721070000007657407908768765883_">
							<g id="s5_00000062152813764988424410000013398613691449715112_">
								<g id="s4_00000003084872553727183160000009322850537793219003_">
									<path id="s_00000008828805768736582760000007639222640333460924_" class="st16" d="M9,51.3l0.2,0.6l-0.5-0.4h0.6l-0.5,0.4
										L9,51.3z"/>
									<g>
										<path id="s_00000171685737704985008580000008076928630315328906_" class="st16" d="M9,52.4L9.2,53l-0.5-0.4h0.6L8.8,53
											L9,52.4z"/>
									</g>
									<g>
										<path id="s_00000036955258670260684680000006393461213846319490_" class="st16" d="M9,53.6l0.2,0.6l-0.5-0.4h0.6l-0.5,0.4
											L9,53.6z"/>
									</g>
									<g>
										<path id="s_00000014616158965590111210000015265742852760175252_" class="st16" d="M9,54.8l0.2,0.6L8.7,55h0.6l-0.5,0.4
											L9,54.8z"/>
									</g>
								</g>
								<g>
									<path id="s_00000008126975691094237530000005994121237933503121_" class="st16" d="M9,56l0.2,0.6l-0.5-0.4h0.6l-0.5,0.4
										L9,56z"/>
								</g>
							</g>
							<g>
								<g id="s4_00000156549843954987042330000003387567253130474148_">
									<path id="s_00000178892951558196570070000009018540700864777892_" class="st16" d="M9.7,51.8l0.2,0.6l-0.5-0.4h0.6
										l-0.5,0.4L9.7,51.8z"/>
									<g>
										<path id="s_00000139972282019729266620000003325732765233317041_" class="st16" d="M9.7,53l0.2,0.6l-0.5-0.4h0.6l-0.5,0.4
											L9.7,53z"/>
									</g>
									<g>
										<path id="s_00000047775847797091188150000015265641055257030826_" class="st16" d="M9.7,54.2l0.2,0.6l-0.5-0.4h0.6
											l-0.5,0.4L9.7,54.2z"/>
									</g>
									<g>
										<path id="s_00000019676352711749013970000017985996397025200814_" class="st16" d="M9.7,55.4L9.9,56l-0.5-0.4h0.6L9.5,56
											L9.7,55.4z"/>
									</g>
								</g>
							</g>
						</g>
					</g>
				</g>
			</g>
			<g>
				<g id="s9_00000054963266716173429800000012872916869249933239_">
					<g id="s5_00000157282953200005993850000009767949814606302385_">
						<g id="s4_00000096047977484073559720000002429496701914784916_">
							<path id="s_00000016786349356003020940000017017875791440552852_" class="st16" d="M10.4,51.3l0.2,0.6l-0.5-0.4h0.6l-0.5,0.4
								L10.4,51.3z"/>
							<g>
								<path id="s_00000011009974422510504260000012113213138057065862_" class="st16" d="M10.4,52.4l0.2,0.6l-0.5-0.4h0.6L10.2,53
									L10.4,52.4z"/>
							</g>
							<g>
								<path id="s_00000118388819882128542230000008540191957063109767_" class="st16" d="M10.4,53.6l0.2,0.6l-0.5-0.4h0.6
									l-0.5,0.4L10.4,53.6z"/>
							</g>
							<g>
								<path id="s_00000070817845273427940450000009854136779282595761_" class="st16" d="M10.4,54.8l0.2,0.6L10.1,55h0.6l-0.5,0.4
									L10.4,54.8z"/>
							</g>
						</g>
						<g>
							<path id="s_00000002355079632592617920000005185415981386450846_" class="st16" d="M10.4,56l0.2,0.6l-0.5-0.4h0.6l-0.5,0.4
								L10.4,56z"/>
						</g>
					</g>
					<g>
						<g id="s4_00000140717637200809154960000016327777096091762090_">
							<path id="s_00000011733212736309295670000012447930949988824232_" class="st16" d="M11.1,51.8l0.2,0.6l-0.5-0.4h0.6l-0.5,0.4
								L11.1,51.8z"/>
							<g>
								<path id="s_00000078039503809644696560000006816715598989086625_" class="st16" d="M11.1,53l0.2,0.6l-0.5-0.4h0.6l-0.5,0.4
									L11.1,53z"/>
							</g>
							<g>
								<path id="s_00000060001308547322151320000011479515965794074301_" class="st16" d="M11.1,54.2l0.2,0.6l-0.5-0.4h0.6
									l-0.5,0.4L11.1,54.2z"/>
							</g>
							<g>
								<path id="s_00000011006252332667673810000016209258227230763660_" class="st16" d="M11.1,55.4l0.2,0.6l-0.5-0.4h0.6L10.9,56
									L11.1,55.4z"/>
							</g>
						</g>
					</g>
				</g>
			</g>
			<g>
				<g id="s5_00000150818934284846488500000002988890607894701730_">
					<g id="s4_00000051358385521842314390000014755627985901178018_">
						<path id="s_00000175317626004436319310000007182583239443250583_" class="st16" d="M11.8,51.3l0.2,0.6l-0.5-0.4h0.6l-0.5,0.4
							L11.8,51.3z"/>
						<g>
							<path id="s_00000091733860016163492010000014990517494150481824_" class="st16" d="M11.8,52.4L12,53l-0.5-0.4h0.6L11.6,53
								L11.8,52.4z"/>
						</g>
						<g>
							<path id="s_00000018953418891177725060000009385514692261858233_" class="st16" d="M11.8,53.6l0.2,0.6l-0.5-0.4h0.6l-0.5,0.4
								L11.8,53.6z"/>
						</g>
						<g>
							<path id="s_00000057125849420561756750000014699267808550391209_" class="st16" d="M11.8,54.8l0.2,0.6L11.5,55h0.6l-0.5,0.4
								L11.8,54.8z"/>
						</g>
					</g>
					<g>
						<path id="s_00000031912212889031380890000017464046052045034886_" class="st16" d="M11.8,56l0.2,0.6l-0.5-0.4h0.6l-0.5,0.4
							L11.8,56z"/>
					</g>
				</g>
			</g>
		</g>
	</g>
	<g>
		<path class="st16" d="M66.2,41.3h18.2v12.1H66.2V41.3z"/>
		<path class="st17" d="M66.2,41.3h18.2v4H66.2V41.3z"/>
		<path class="st18" d="M66.2,49.4h18.2v4H66.2V49.4z"/>
		<circle class="st19" cx="75.3" cy="47.4" r="1.9"/>
		<circle class="st16" cx="75.3" cy="47.4" r="1.6"/>
		<circle class="st19" cx="75.5" cy="45.8" r="0.1"/>
		<circle class="st19" cx="75.1" cy="49" r="0.1"/>
		<circle class="st19" cx="75.9" cy="45.9" r="0.1"/>
		<circle class="st19" cx="74.7" cy="48.9" r="0.1"/>
		<circle class="st19" cx="76.3" cy="46.1" r="0.1"/>
		<circle class="st19" cx="74.3" cy="48.7" r="0.1"/>
		<circle class="st19" cx="76.6" cy="46.4" r="0.1"/>
		<circle class="st19" cx="74" cy="48.4" r="0.1"/>
		<circle class="st19" cx="76.8" cy="46.8" r="0.1"/>
		<circle class="st19" cx="73.8" cy="48" r="0.1"/>
		<circle class="st19" cx="76.9" cy="47.2" r="0.1"/>
		<circle class="st19" cx="73.7" cy="47.6" r="0.1"/>
		<circle class="st19" cx="76.9" cy="47.6" r="0.1"/>
		<circle class="st19" cx="73.7" cy="47.2" r="0.1"/>
		<circle class="st19" cx="76.8" cy="48" r="0.1"/>
		<circle class="st19" cx="73.8" cy="46.8" r="0.1"/>
		<circle class="st19" cx="76.6" cy="48.4" r="0.1"/>
		<circle class="st19" cx="74" cy="46.4" r="0.1"/>
		<circle class="st19" cx="76.3" cy="48.7" r="0.1"/>
		<circle class="st19" cx="74.3" cy="46.1" r="0.1"/>
		<circle class="st19" cx="75.9" cy="48.9" r="0.1"/>
		<circle class="st19" cx="74.7" cy="45.9" r="0.1"/>
		<circle class="st19" cx="75.5" cy="49" r="0.1"/>
		<path class="st19" d="M75.9,47.6l1,0.2l-0.9-0.3l-0.3,0c0,0,0,0,0,0l0.3,0l1-0.1l-1-0.1l-0.3,0c0,0,0,0,0,0l0.3,0l0.9-0.3l-1,0.2
			l-0.3,0.1c0,0,0,0,0,0l0.3-0.1l0.8-0.5L75.8,47l-0.3,0.2c0,0,0,0,0,0l0.3-0.2l0.7-0.7l-0.7,0.6l-0.2,0.3c0,0,0,0,0,0l0.2-0.3
			l0.4-0.9l-0.5,0.8l-0.1,0.3c0,0,0,0,0,0l0.1-0.3l0.2-1l-0.3,0.9l-0.1,0.3c0,0,0,0,0,0l0-0.3l-0.1-1l-0.1,1l0,0.3c0,0,0,0,0,0
			l-0.1-0.3l-0.3-0.9l0.2,1l0.1,0.3c0,0,0,0,0,0L75,46.8L74.5,46l0.4,0.9l0.2,0.3c0,0,0,0,0,0l-0.2-0.3l-0.7-0.6l0.7,0.7l0.3,0.2
			c0,0,0,0,0,0L74.8,47l-0.9-0.4l0.8,0.5l0.3,0.1c0,0,0,0,0,0.1l-0.3-0.1l-1-0.2l0.9,0.3l0.3,0c0,0,0,0,0,0l-0.3,0l-1,0.1l1,0.1
			l0.3,0c0,0,0,0,0,0l-0.3,0l-0.9,0.3l1-0.2l0.3-0.1c0,0,0,0,0,0l-0.3,0.1l-0.8,0.5l0.9-0.4l0.3-0.2c0,0,0,0,0,0l-0.3,0.2l-0.7,0.7
			l0.7-0.7l0.2-0.3c0,0,0,0,0,0l-0.2,0.3l-0.4,0.9L75,48l0.1-0.3c0,0,0,0,0,0L75,48l-0.2,1l0.3-0.9l0.1-0.3c0,0,0,0,0,0l0,0.3l0.1,1
			l0.1-1l0-0.3c0,0,0,0,0,0l0.1,0.3l0.3,0.9l-0.2-1l-0.1-0.3c0,0,0,0,0,0l0.1,0.3l0.5,0.8l-0.4-0.9l-0.2-0.3c0,0,0,0,0,0l0.2,0.3
			l0.7,0.7l-0.7-0.7l-0.3-0.2c0,0,0,0,0,0l0.3,0.2l0.9,0.4L75.9,47.6l-0.3-0.1c0,0,0,0,0,0L75.9,47.6z"/>
		<circle class="st19" cx="75.1" cy="45.8" r="0.1"/>
	</g>
</g>
<g>
	<path class="st20" d="M84.4,41.3v12.1H66.2V41.3H84.4 M84.4,40.8H66.2c-0.3,0-0.5,0.2-0.5,0.5v12.1c0,0.3,0.2,0.5,0.5,0.5h18.2
		c0.3,0,0.5-0.2,0.5-0.5V41.3C84.9,41,84.7,40.8,84.4,40.8L84.4,40.8z"/>
</g>
<g>
	<path class="st20" d="M25,51v11H4.2V51H25 M25,50.5H4.2c-0.3,0-0.5,0.2-0.5,0.5v11c0,0.3,0.2,0.5,0.5,0.5H25c0.3,0,0.5-0.2,0.5-0.5
		V51C25.6,50.7,25.3,50.5,25,50.5L25,50.5z"/>
</g>
<g>
	<rect x="47.4" y="9.6" class="st21" width="11.8" height="7.9"/>
	<rect x="47.4" y="9.6" class="st16" width="7.9" height="7.9"/>
	<rect x="47.4" y="9.6" class="st22" width="3.9" height="7.9"/>
</g>
</svg>
