<?xml version="1.0" encoding="utf-8"?>
<!-- Generator: Adobe Illustrator 27.9.2, SVG Export Plug-In . SVG Version: 6.00 Build 0)  -->
<svg version="1.1" id="Layer_1" xmlns="http://www.w3.org/2000/svg" xmlns:xlink="http://www.w3.org/1999/xlink" x="0px" y="0px"
	 viewBox="0 0 118 94" style="enable-background:new 0 0 118 94;" xml:space="preserve">
<style type="text/css">
	.st0{opacity:0;fill:none;stroke:#161616;stroke-linecap:round;stroke-linejoin:round;stroke-miterlimit:10;}
	.st1{fill:none;}
	.st2{enable-background:new    ;}
	.st3{fill:none;stroke:#161616;stroke-linecap:round;stroke-linejoin:round;}
	.st4{fill:none;stroke:#161616;stroke-linecap:round;stroke-linejoin:round;stroke-dasharray:3.0197,3.0197;}
	.st5{fill:none;stroke:#161616;stroke-linecap:round;stroke-linejoin:round;stroke-miterlimit:10;}
	.st6{fill:none;stroke:#E9262E;stroke-linecap:round;stroke-linejoin:round;}
	.st7{fill:#E9262E;}
	.st8{fill:none;stroke:#1E4A9A;stroke-linecap:round;stroke-linejoin:round;}
	.st9{fill:#1E4A9A;}
	.st10{fill:#FFFFFF;stroke:#161616;stroke-width:0.5364;stroke-linecap:round;stroke-linejoin:round;stroke-miterlimit:10;}
	.st11{fill:#B6012A;}
	.st12{fill:#19572A;}
	.st13{fill:#B22234;}
	.st14{stroke:#FFFFFF;stroke-width:0.8447;stroke-miterlimit:10;}
	.st15{fill:#3C3B6E;}
	.st16{fill:#FFFFFF;}
	.st17{fill:#F15B25;}
	.st18{fill:#006934;}
	.st19{fill:#2C2C6F;}
	.st20{fill:#161616;}
</style>
<path class="st0" d="M84.98,72.19c-9.08-3.3-20.19-5.25-32.2-5.25c-12.01,0-23.14,1.94-32.21,5.25"/>
<path class="st0" d="M90.4,30.93c-9.88,4.65-23.1,7.5-37.63,7.5c-14.49,0-27.68-2.83-37.55-7.46"/>
<g>
	<rect x="88.32" y="48.81" class="st1" width="18.9" height="7.61"/>
	<g class="st2">
		<path d="M89.54,55.56l-0.25-0.62c0.3-0.14,0.5-0.27,0.59-0.38c0.1-0.12,0.16-0.33,0.16-0.61v-3.81h0.79v3.77
			c0,0.46-0.09,0.8-0.28,1.01C90.33,55.18,90,55.39,89.54,55.56z"/>
		<path d="M92.15,54.38h-0.84l1.62-4.24h0.74l1.63,4.24h-0.82l-0.43-1.08h-1.49L92.15,54.38z M92.77,52.63h1.07
			c-0.02-0.05-0.05-0.13-0.09-0.25s-0.11-0.3-0.2-0.53c-0.08-0.23-0.17-0.47-0.25-0.71C93.24,51.36,93.06,51.86,92.77,52.63z"/>
		<path d="M96.59,54.38h-0.79v-4.24h1.08c0.4,0,0.7,0.02,0.91,0.07c0.31,0.07,0.55,0.21,0.73,0.41s0.26,0.49,0.26,0.84
			c0,0.14-0.02,0.29-0.06,0.45s-0.12,0.32-0.24,0.45s-0.26,0.25-0.44,0.32c-0.28,0.11-0.65,0.17-1.12,0.17h-0.32V54.38z M96.59,52.2
			h0.32c0.28,0,0.51-0.03,0.67-0.09c0.12-0.05,0.22-0.12,0.28-0.23c0.06-0.1,0.1-0.23,0.1-0.37c0-0.17-0.05-0.3-0.14-0.41
			c-0.09-0.1-0.22-0.17-0.39-0.21c-0.13-0.03-0.32-0.05-0.58-0.05h-0.26V52.2z"/>
		<path d="M99.49,54.38h-0.84l1.62-4.24h0.74l1.63,4.24h-0.82l-0.43-1.08h-1.49L99.49,54.38z M100.12,52.63h1.07
			c-0.02-0.05-0.05-0.13-0.09-0.25s-0.11-0.3-0.2-0.53c-0.08-0.23-0.17-0.47-0.25-0.71C100.58,51.36,100.4,51.86,100.12,52.63z"/>
		<path d="M103.91,54.38h-0.76v-4.24h0.72c0.04,0.05,0.09,0.12,0.17,0.23c0.08,0.11,0.36,0.5,0.86,1.2c0.5,0.69,0.83,1.16,0.99,1.42
			c-0.01-0.49-0.02-1.44-0.02-2.84h0.75v4.24h-0.66c-0.84-1.2-1.37-1.96-1.58-2.27c-0.21-0.31-0.38-0.55-0.49-0.72
			C103.9,51.64,103.91,52.63,103.91,54.38z"/>
	</g>
	<g class="st2">
		<path d="M68.93,44.75h-0.79v-4.24h0.79V44.75z"/>
		<path d="M70.64,44.75h-0.76v-4.24h0.72c0.04,0.05,0.09,0.12,0.17,0.23c0.08,0.11,0.36,0.5,0.86,1.2c0.5,0.69,0.83,1.16,0.99,1.42
			c-0.01-0.49-0.02-1.44-0.02-2.84h0.75v4.24H72.7c-0.84-1.2-1.37-1.96-1.58-2.27c-0.21-0.31-0.38-0.55-0.49-0.72
			C70.64,42,70.64,43,70.64,44.75z"/>
		<path d="M74.32,44.75v-4.24h1.06c0.65,0,1.12,0.06,1.4,0.19c0.76,0.32,1.13,0.95,1.13,1.89c0,0.48-0.1,0.9-0.31,1.23
			s-0.52,0.58-0.94,0.74c-0.34,0.12-0.81,0.19-1.41,0.19H74.32z M75.11,44.04h0.35c0.45,0,0.78-0.05,0.98-0.15
			c0.22-0.11,0.38-0.27,0.5-0.49c0.12-0.22,0.17-0.48,0.17-0.79c0-0.28-0.05-0.52-0.16-0.73s-0.27-0.38-0.48-0.49
			c-0.18-0.1-0.49-0.16-0.92-0.16h-0.43V44.04z"/>
		<path d="M79.48,44.75H78.7v-4.24h0.79V44.75z"/>
		<path d="M80.83,44.75h-0.84l1.62-4.24h0.74l1.63,4.24h-0.82l-0.43-1.08h-1.49L80.83,44.75z M81.46,43h1.07
			c-0.02-0.05-0.05-0.13-0.09-0.25c-0.05-0.12-0.11-0.3-0.2-0.53c-0.08-0.23-0.17-0.47-0.25-0.71C81.92,41.73,81.74,42.23,81.46,43z
			"/>
	</g>
	<g class="st2">
		<path d="M9.16,49.01h0.78v2.44c0,0.29,0.03,0.51,0.08,0.68c0.04,0.12,0.12,0.22,0.22,0.3s0.21,0.13,0.33,0.16s0.23,0.04,0.33,0.04
			c0.5,0,0.8-0.18,0.91-0.55c0.04-0.16,0.07-0.38,0.07-0.65v-2.41h0.78v2.43c0,0.42-0.06,0.76-0.17,1.02
			c-0.11,0.27-0.3,0.48-0.58,0.63c-0.28,0.15-0.62,0.23-1.03,0.23c-0.23,0-0.45-0.03-0.65-0.08c-0.2-0.05-0.38-0.14-0.54-0.26
			c-0.16-0.12-0.29-0.28-0.38-0.48c-0.11-0.26-0.17-0.6-0.17-1.02V49.01z"/>
		<path d="M13.35,52.9v-0.8c0.18,0.16,0.41,0.29,0.68,0.38c0.27,0.1,0.52,0.14,0.74,0.14c0.24,0,0.42-0.04,0.53-0.13
			c0.11-0.09,0.17-0.21,0.17-0.37c0-0.11-0.04-0.21-0.13-0.3c-0.09-0.09-0.23-0.18-0.44-0.26l-0.54-0.23
			c-0.36-0.15-0.61-0.32-0.77-0.5c-0.15-0.19-0.23-0.43-0.23-0.72c0-0.36,0.13-0.65,0.39-0.86c0.26-0.21,0.63-0.32,1.11-0.32
			c0.21,0,0.42,0.03,0.64,0.08c0.22,0.06,0.4,0.13,0.54,0.22v0.79c-0.16-0.12-0.35-0.22-0.58-0.3c-0.23-0.07-0.44-0.11-0.65-0.11
			c-0.1,0-0.2,0.01-0.31,0.04s-0.19,0.08-0.25,0.16s-0.09,0.17-0.09,0.27c0,0.1,0.03,0.18,0.08,0.26c0.05,0.08,0.19,0.17,0.41,0.26
			l0.54,0.23c0.21,0.09,0.4,0.19,0.56,0.29c0.16,0.1,0.29,0.23,0.38,0.37c0.09,0.15,0.14,0.34,0.14,0.59c0,0.17-0.03,0.33-0.09,0.48
			c-0.06,0.15-0.16,0.28-0.29,0.39c-0.13,0.11-0.29,0.2-0.49,0.26c-0.2,0.06-0.42,0.09-0.67,0.09c-0.27,0-0.53-0.04-0.77-0.12
			S13.51,53.02,13.35,52.9z"/>
		<path d="M17.36,53.24h-0.84l1.62-4.24h0.74l1.63,4.24H19.7l-0.43-1.08h-1.49L17.36,53.24z M17.99,51.49h1.07
			c-0.02-0.05-0.05-0.13-0.09-0.25c-0.05-0.12-0.11-0.3-0.2-0.53c-0.08-0.23-0.17-0.47-0.25-0.71
			C18.45,50.22,18.27,50.72,17.99,51.49z"/>
	</g>
	<g>
		<g>
			<g>
				<path class="st3" d="M88.35,69.36c-0.36,0.34-0.73,0.68-1.11,1"/>
				<path class="st4" d="M84.89,72.26c-8.16,6.08-19.51,9.84-32.06,9.84c-24.85,0-45-14.77-45-33s20.15-33,45-33
					c23.47,0,42.74,13.17,44.82,29.99"/>
				<path class="st3" d="M97.78,47.6c0.03,0.5,0.05,1,0.05,1.5"/>
			</g>
		</g>
		<g>
			<g>
				<path class="st3" d="M96.94,55.66c-0.13,0.48-0.28,0.96-0.44,1.43"/>
				<path class="st3" d="M94.96,60.72c-0.23,0.44-0.47,0.88-0.72,1.32"/>
			</g>
		</g>
		<path class="st5" d="M88.69,51.25c-8.22,0.86-21.23,1.41-35.87,1.41c-12.24,0-23.34-0.39-31.46-1.01"/>
		<path class="st5" d="M19.12,47.44C20,29.99,34.75,16.1,52.83,16.1c18.64,0,33.75,14.77,33.75,33s-15.11,33-33.75,33
			C36,82.1,22.05,70.06,19.49,54.32"/>
		<path class="st5" d="M75.23,46.05c0.06,1,0.09,2.02,0.09,3.05c0,18.23-10.07,33-22.5,33s-22.5-14.77-22.5-33s10.07-33,22.5-33
			c10.1,0,18.64,9.75,21.49,23.19"/>
		<ellipse class="st5" cx="52.83" cy="49.1" rx="11.25" ry="33"/>
		<line class="st5" x1="52.83" y1="16.1" x2="52.83" y2="82.1"/>
	</g>
	<g>
		<g>
			<path class="st6" d="M13.9,41c0-14.54,3.2-25.69,19.75-29.8"/>
			<g>
				<path class="st7" d="M17.66,41c0,1.04-0.84,1.88-1.88,1.88S13.9,42.04,13.9,41s0.84-1.88,1.88-1.88S17.66,39.96,17.66,41z"/>
			</g>
			<g>
				<polygon class="st7" points="33.04,12.84 37.95,10.13 32.34,10.02 				"/>
			</g>
		</g>
	</g>
	<g>
		<g>
			<path class="st6" d="M97.83,42.72c0-20.84-9.3-27.46-25.32-31.21"/>
			<g>
				<path class="st7" d="M99.71,42.72c0,1.04-0.84,1.88-1.88,1.88s-1.88-0.84-1.88-1.88s0.84-1.88,1.88-1.88
					S99.71,41.68,99.71,42.72z"/>
			</g>
			<g>
				<polygon class="st7" points="73.8,10.32 68.19,10.5 73.14,13.15 				"/>
			</g>
		</g>
	</g>
	<g>
		<g>
			<path class="st6" d="M75.9,32.69c0-7.92-0.71-12.77-5.4-17.12"/>
			<g>
				<path class="st7" d="M77.78,32.69c0,1.04-0.84,1.88-1.88,1.88s-1.88-0.84-1.88-1.88s0.84-1.88,1.88-1.88
					S77.78,31.65,77.78,32.69z"/>
			</g>
			<g>
				<polygon class="st7" points="72.21,15.19 67.25,12.56 70.24,17.32 				"/>
			</g>
		</g>
	</g>
	<g>
		<g>
			<path class="st8" d="M52.83,14.27c0,13.29-2.8,34.91,30.67,48.42"/>
			<g>
				<polygon class="st9" points="82.03,63.66 87.6,64.34 83.12,60.97 				"/>
			</g>
		</g>
	</g>
	<g class="st2">
		<path d="M90.32,78.91h-0.79v-4.24h2.5v0.72h-1.72v1.07h1.59v0.71h-1.59V78.91z"/>
		<path d="M93.47,78.91h-0.79v-4.24h1.04c0.44,0,0.76,0.02,0.97,0.07c0.3,0.07,0.52,0.19,0.67,0.37c0.15,0.18,0.22,0.42,0.22,0.73
			c0,0.52-0.26,0.89-0.79,1.1c0.16,0.07,0.3,0.2,0.43,0.4c0.13,0.2,0.41,0.72,0.81,1.56h-0.87c-0.3-0.6-0.5-1.01-0.62-1.21
			s-0.23-0.34-0.33-0.41c-0.03-0.02-0.08-0.04-0.15-0.06c-0.07-0.01-0.14-0.02-0.21-0.02h-0.37V78.91z M93.47,76.56h0.47
			c0.18,0,0.32-0.02,0.43-0.05c0.26-0.1,0.4-0.3,0.4-0.59c0-0.11-0.02-0.21-0.07-0.29s-0.11-0.15-0.2-0.19s-0.18-0.07-0.27-0.08
			c-0.1-0.02-0.27-0.02-0.52-0.02h-0.25V76.56z"/>
		<path d="M99.18,78.91h-2.65v-4.24h2.54v0.72h-1.75v0.98h1.63v0.7h-1.63v1.11h1.86V78.91z"/>
		<path d="M100.72,78.91h-0.76v-4.24h0.72c0.04,0.05,0.09,0.12,0.17,0.23c0.08,0.11,0.36,0.5,0.86,1.2c0.5,0.69,0.83,1.16,0.99,1.42
			c-0.01-0.49-0.02-1.44-0.02-2.84h0.75v4.24h-0.66c-0.84-1.2-1.37-1.96-1.58-2.27c-0.21-0.31-0.38-0.55-0.49-0.72
			C100.72,76.16,100.72,77.16,100.72,78.91z"/>
		<path d="M107.6,78.64c-0.35,0.23-0.8,0.34-1.35,0.34c-0.29,0-0.57-0.05-0.82-0.15c-0.26-0.1-0.48-0.25-0.67-0.43
			c-0.19-0.19-0.34-0.42-0.44-0.69c-0.11-0.27-0.16-0.57-0.16-0.89c0-0.32,0.05-0.62,0.16-0.9c0.11-0.28,0.26-0.51,0.45-0.71
			c0.19-0.2,0.42-0.35,0.68-0.45c0.26-0.11,0.54-0.16,0.83-0.16c0.58,0,1.02,0.11,1.33,0.33v0.77c-0.15-0.14-0.33-0.24-0.54-0.3
			c-0.21-0.07-0.42-0.1-0.64-0.1c-0.44,0-0.79,0.13-1.05,0.4c-0.27,0.27-0.4,0.64-0.4,1.1c0,0.24,0.04,0.45,0.11,0.64
			c0.08,0.19,0.18,0.34,0.32,0.47s0.29,0.22,0.47,0.28c0.18,0.06,0.37,0.09,0.57,0.09c0.4,0,0.78-0.12,1.15-0.37V78.64z"/>
		<path d="M111.6,78.91h-0.78v-1.82h-1.78v1.82h-0.79v-4.24h0.79v1.69h1.78v-1.69h0.78V78.91z"/>
	</g>
	<g class="st2">
		<path d="M90.32,86.11h-0.79v-4.24h2.5v0.72h-1.72v1.07h1.59v0.71h-1.59V86.11z"/>
		<path d="M93.47,86.11h-0.79v-4.24h1.04c0.44,0,0.76,0.02,0.97,0.07c0.3,0.07,0.52,0.19,0.67,0.37c0.15,0.18,0.22,0.42,0.22,0.73
			c0,0.52-0.26,0.89-0.79,1.1c0.16,0.07,0.3,0.2,0.43,0.4c0.13,0.2,0.41,0.72,0.81,1.56h-0.87c-0.3-0.6-0.5-1.01-0.62-1.21
			s-0.23-0.34-0.33-0.41c-0.03-0.02-0.08-0.04-0.15-0.06c-0.07-0.01-0.14-0.02-0.21-0.02h-0.37V86.11z M93.47,83.76h0.47
			c0.18,0,0.32-0.02,0.43-0.05c0.26-0.1,0.4-0.3,0.4-0.59c0-0.11-0.02-0.21-0.07-0.29s-0.11-0.15-0.2-0.19s-0.18-0.07-0.27-0.08
			c-0.1-0.02-0.27-0.02-0.52-0.02h-0.25V83.76z"/>
		<path d="M97.32,86.11h-0.79v-4.24h0.79V86.11z"/>
		<path d="M99.07,86.11h-0.79v-4.24h1.08c0.4,0,0.7,0.02,0.91,0.07c0.31,0.07,0.55,0.21,0.73,0.41s0.26,0.49,0.26,0.84
			c0,0.14-0.02,0.29-0.06,0.45s-0.12,0.32-0.24,0.45s-0.26,0.25-0.44,0.32c-0.28,0.11-0.65,0.17-1.12,0.17h-0.32V86.11z
			 M99.07,83.92h0.32c0.28,0,0.51-0.03,0.67-0.09c0.12-0.05,0.22-0.12,0.28-0.23c0.06-0.1,0.1-0.23,0.1-0.37
			c0-0.17-0.05-0.3-0.14-0.41c-0.09-0.1-0.22-0.17-0.39-0.21c-0.13-0.03-0.32-0.05-0.58-0.05h-0.26V83.92z"/>
		<path d="M104.53,86.11h-2.65v-4.24h2.54v0.72h-1.75v0.98h1.63v0.7h-1.63v1.11h1.86V86.11z"/>
	</g>
	<rect x="88.97" y="36.71" class="st10" width="17.59" height="11.26"/>
	<circle class="st11" cx="97.77" cy="42.34" r="2.86"/>
	<g>
		<rect x="89.18" y="62.83" class="st9" width="3.22" height="9.99"/>
		<g>
			<rect x="93.11" y="62.83" class="st7" width="3.22" height="2.75"/>
			<rect x="93.11" y="66.29" class="st7" width="3.22" height="2.75"/>
		</g>
		<g>
			<rect x="100.98" y="62.83" class="st7" width="3.22" height="2.75"/>
			<rect x="100.98" y="66.29" class="st7" width="3.22" height="2.75"/>
		</g>
		<rect x="97.04" y="62.83" class="st9" width="3.22" height="9.99"/>
	</g>
	<g id="b">
		<g id="c">
			<path id="d" class="st12" d="M46.95,6.16c0,1.53,0,3.06,0,4.59l-0.28,0.35l-1.75,0.01c-0.1-0.11-0.19-0.22-0.28-0.33
				c0-1.43,0-2.64,0-4.06l-0.86,0.23c0,1.58,0,2.71,0,4.3c0.18,0.2,0.35,0.4,0.53,0.61c0.04,0.05,0.1,0.12,0.1,0.12h2.78
				c0.21-0.27,0.42-0.57,0.63-0.85c0-1.79,0-3.34,0-5.13L46.95,6.16L46.95,6.16z"/>
			<path id="e" class="st12" d="M60.83,6.45c-0.62,0.84-1.02,1.46-1.59,2.33c0-0.96,0-1.72,0-2.69L58.38,5.9c0,2.08,0,3.99,0,6.08
				h0.86c0-0.65,0-0.97,0-1.62c0.33-0.51,0.5-0.76,0.83-1.24c0.35,0.36,0.52,0.54,0.86,0.89v1.97h0.86c0-0.8,0-2.39,0-2.42l0,0
				c-0.47-0.47-0.71-0.71-1.18-1.22c0.47-0.65,0.71-1.04,1.21-1.67L60.83,6.45L60.83,6.45z"/>
			<path id="f" class="st12" d="M54.92,8.86c0.73,0.06,1.34,0.12,2.07,0.18c0-0.04,0-0.84,0-0.92c-0.73-0.08-1.34-0.17-2.07-0.25
				c0-0.47,0-1.44,0-1.91l2.44,0.53c0-0.47,0-0.24,0-0.71c0,0-0.01,0.02-0.01-0.11c-0.84-0.16-3.04-0.7-3.29-0.74
				c0,2.33,0,4.67-0.01,7h0.77h2.6h0.03c0-0.46,0-0.37,0-0.84l-2.54-0.02C54.92,10.52,54.92,9.44,54.92,8.86"/>
			<path id="g" class="st12" d="M40.62,10.02l1.74-0.13c0,0.07,0-0.71,0-0.71l-1.74,0.17V8.36l2.08-0.39v-0.8l-2.94,0.67v4.12h3.03
				v-0.84h-2.17L40.62,10.02"/>
			<path id="h" class="st12" d="M63.92,7.87l1.35,0.24c0.09,0.11,0.17,0.22,0.26,0.34v1.67l-1.87-0.16V8.14
				C63.76,8.03,63.81,7.97,63.92,7.87 M65.76,7.58l-2.31-0.51c-0.19,0.2-0.38,0.4-0.57,0.6c0,1.56,0,2.72,0,4.28
				c0.26,0.01,0.52,0.01,0.78-0.01v-1.23l1.87,0.09v1.15h0.78V8.24C66.15,8.03,65.76,7.58,65.76,7.58"/>
			<path id="i" class="st12" d="M51.95,7.98c-0.1,0.16-0.15,0.24-0.26,0.4l-1.83,0.18c0-0.67,0-2.24,0-2.24l1.8-0.4
				c0.09,0.12,0.19,0.25,0.28,0.37C51.95,6.77,51.95,7.51,51.95,7.98 M52.81,5.79c-0.21-0.29-0.43-0.57-0.64-0.84L49,5.7
				c0,2.14,0,4.12,0,6.25c0.29,0.02,0.58,0.01,0.86-0.01c0-0.79,0-1.84,0-2.63l1.8-0.12c0.09,0.13,0.19,0.26,0.28,0.39
				c0,0.7,0,1.67,0,2.37h0.86c0-0.94,0-1.88,0-2.82c-0.11-0.16-0.16-0.23-0.27-0.39c0.11-0.17,0.17-0.26,0.28-0.44
				C52.81,7.47,52.81,6.63,52.81,5.79"/>
		</g>
	</g>
	<g>
		<rect x="4.17" y="36" class="st13" width="20.86" height="10.98"/>
		<path class="st14" d="M4.17,37.27h20.86 M25.04,38.96H4.17 M4.17,40.64h20.86 M25.04,42.33H4.17 M4.17,44.02h20.86 M25.04,45.71
			H4.17"/>
		<rect x="4.17" y="36" class="st15" width="8.35" height="5.91"/>
		<g>
			<g id="s18">
				<g id="s9">
					<g id="s5">
						<g id="s4">
							<path id="s" class="st16" d="M4.87,36.25l0.2,0.61l-0.52-0.38h0.64l-0.52,0.38L4.87,36.25z"/>
							<g>
								<path id="s_00000048479705803855576580000004377563816617882022_" class="st16" d="M4.87,37.43l0.2,0.61l-0.52-0.38h0.64
									l-0.52,0.38L4.87,37.43z"/>
							</g>
							<g>
								<path id="s_00000182498381500374876530000012899710161074389638_" class="st16" d="M4.87,38.62l0.2,0.61l-0.52-0.38h0.64
									l-0.52,0.38L4.87,38.62z"/>
							</g>
							<g>
								<path id="s_00000010283058362410712490000002892793884286138557_" class="st16" d="M4.87,39.8l0.2,0.61l-0.52-0.38h0.64
									l-0.52,0.38L4.87,39.8z"/>
							</g>
						</g>
						<g>
							<path id="s_00000029034220595660992320000013815961654380009626_" class="st16" d="M4.87,40.98l0.2,0.61l-0.52-0.38h0.64
								l-0.52,0.38L4.87,40.98z"/>
						</g>
					</g>
					<g>
						<g id="s4_00000143586381572878371210000012662887208650165892_">
							<path id="s_00000149374842054711710370000011231666512051816115_" class="st16" d="M5.56,36.84l0.2,0.61l-0.52-0.38h0.64
								l-0.52,0.38L5.56,36.84z"/>
							<g>
								<path id="s_00000103261670498908757960000015618751117063209649_" class="st16" d="M5.56,38.03l0.2,0.61l-0.52-0.38h0.64
									l-0.52,0.38L5.56,38.03z"/>
							</g>
							<g>
								<path id="s_00000010282904766513191690000015715714305589568431_" class="st16" d="M5.56,39.21l0.2,0.61l-0.52-0.38h0.64
									l-0.52,0.38L5.56,39.21z"/>
							</g>
							<g>
								<path id="s_00000119811564652835319110000018402862535152404663_" class="st16" d="M5.56,40.39L5.76,41l-0.52-0.38h0.64
									L5.36,41L5.56,40.39z"/>
							</g>
						</g>
					</g>
				</g>
				<g>
					<g id="s9_00000025433828878908445820000013101363124324897195_">
						<g id="s5_00000090989310890649429180000007378769994970704263_">
							<g id="s4_00000080894890039544766290000015896354566458593685_">
								<path id="s_00000121992530342704206310000000941479013978249623_" class="st16" d="M6.26,36.25l0.2,0.61l-0.52-0.38h0.64
									l-0.52,0.38L6.26,36.25z"/>
								<g>
									<path id="s_00000180341623130835853350000006037032421024713871_" class="st16" d="M6.26,37.43l0.2,0.61l-0.52-0.38h0.64
										l-0.52,0.38L6.26,37.43z"/>
								</g>
								<g>
									<path id="s_00000137114600696312602190000018175485248237299350_" class="st16" d="M6.26,38.62l0.2,0.61l-0.52-0.38h0.64
										l-0.52,0.38L6.26,38.62z"/>
								</g>
								<g>
									<path id="s_00000097492146058269208470000007435161164805241014_" class="st16" d="M6.26,39.8l0.2,0.61l-0.52-0.38h0.64
										l-0.52,0.38L6.26,39.8z"/>
								</g>
							</g>
							<g>
								<path id="s_00000073679795342888655550000009547460419887167637_" class="st16" d="M6.26,40.98l0.2,0.61l-0.52-0.38h0.64
									l-0.52,0.38L6.26,40.98z"/>
							</g>
						</g>
						<g>
							<g id="s4_00000067213029047310474950000003722183084239513756_">
								<path id="s_00000090997215773548020840000014186117437067994752_" class="st16" d="M6.95,36.84l0.2,0.61l-0.52-0.38h0.64
									l-0.52,0.38L6.95,36.84z"/>
								<g>
									<path id="s_00000000210984131776793990000000522783813772852662_" class="st16" d="M6.95,38.03l0.2,0.61l-0.52-0.38h0.64
										l-0.52,0.38L6.95,38.03z"/>
								</g>
								<g>
									<path id="s_00000101068847311822505370000007033889590180138920_" class="st16" d="M6.95,39.21l0.2,0.61l-0.52-0.38h0.64
										l-0.52,0.38L6.95,39.21z"/>
								</g>
								<g>
									<path id="s_00000142862041317006961550000008668772212224054952_" class="st16" d="M6.95,40.39L7.15,41l-0.52-0.38h0.64
										L6.75,41L6.95,40.39z"/>
								</g>
							</g>
						</g>
					</g>
				</g>
			</g>
			<g>
				<g id="s18_00000132066088451231690000000005038305124551332495_">
					<g id="s9_00000076583548608018536700000009882401675567334557_">
						<g id="s5_00000129913511895715448020000007799967106045931400_">
							<g id="s4_00000095307392212350197340000005457110457547176094_">
								<path id="s_00000177443106296231404060000017565325074961175986_" class="st16" d="M7.65,36.25l0.2,0.61l-0.52-0.38h0.64
									l-0.52,0.38L7.65,36.25z"/>
								<g>
									<path id="s_00000168808358343656399360000001668812771381957027_" class="st16" d="M7.65,37.43l0.2,0.61l-0.52-0.38h0.64
										l-0.52,0.38L7.65,37.43z"/>
								</g>
								<g>
									<path id="s_00000112593320593437838700000016649132877396704942_" class="st16" d="M7.65,38.62l0.2,0.61l-0.52-0.38h0.64
										l-0.52,0.38L7.65,38.62z"/>
								</g>
								<g>
									<path id="s_00000155113566689795346640000016975040172992554379_" class="st16" d="M7.65,39.8l0.2,0.61l-0.52-0.38h0.64
										l-0.52,0.38L7.65,39.8z"/>
								</g>
							</g>
							<g>
								<path id="s_00000158715332643044388890000004004590410967260041_" class="st16" d="M7.65,40.98l0.2,0.61l-0.52-0.38h0.64
									l-0.52,0.38L7.65,40.98z"/>
							</g>
						</g>
						<g>
							<g id="s4_00000023975775106797492860000003378725187739392151_">
								<path id="s_00000155864616780677241860000002803886061077243788_" class="st16" d="M8.34,36.84l0.2,0.61l-0.52-0.38h0.64
									l-0.52,0.38L8.34,36.84z"/>
								<g>
									<path id="s_00000047056242396068556310000013782203198794354573_" class="st16" d="M8.34,38.03l0.2,0.61l-0.52-0.38h0.64
										l-0.52,0.38L8.34,38.03z"/>
								</g>
								<g>
									<path id="s_00000070094268681133303640000003070862844975311749_" class="st16" d="M8.34,39.21l0.2,0.61l-0.52-0.38h0.64
										l-0.52,0.38L8.34,39.21z"/>
								</g>
								<g>
									<path id="s_00000140001482150370075580000017101963451771789185_" class="st16" d="M8.34,40.39L8.54,41l-0.52-0.38h0.64
										L8.15,41L8.34,40.39z"/>
								</g>
							</g>
						</g>
					</g>
					<g>
						<g id="s9_00000155826707598270721070000007657407908768765883_">
							<g id="s5_00000062152813764988424410000013398613691449715112_">
								<g id="s4_00000003084872553727183160000009322850537793219003_">
									<path id="s_00000008828805768736582760000007639222640333460924_" class="st16" d="M9.04,36.25l0.2,0.61l-0.52-0.38h0.64
										l-0.52,0.38L9.04,36.25z"/>
									<g>
										<path id="s_00000171685737704985008580000008076928630315328906_" class="st16" d="M9.04,37.43l0.2,0.61l-0.52-0.38h0.64
											l-0.52,0.38L9.04,37.43z"/>
									</g>
									<g>
										<path id="s_00000036955258670260684680000006393461213846319490_" class="st16" d="M9.04,38.62l0.2,0.61l-0.52-0.38h0.64
											l-0.52,0.38L9.04,38.62z"/>
									</g>
									<g>
										<path id="s_00000014616158965590111210000015265742852760175252_" class="st16" d="M9.04,39.8l0.2,0.61l-0.52-0.38h0.64
											l-0.52,0.38L9.04,39.8z"/>
									</g>
								</g>
								<g>
									<path id="s_00000008126975691094237530000005994121237933503121_" class="st16" d="M9.04,40.98l0.2,0.61l-0.52-0.38h0.64
										l-0.52,0.38L9.04,40.98z"/>
								</g>
							</g>
							<g>
								<g id="s4_00000156549843954987042330000003387567253130474148_">
									<path id="s_00000178892951558196570070000009018540700864777892_" class="st16" d="M9.74,36.84l0.2,0.61l-0.52-0.38h0.64
										l-0.52,0.38L9.74,36.84z"/>
									<g>
										<path id="s_00000139972282019729266620000003325732765233317041_" class="st16" d="M9.74,38.03l0.2,0.61l-0.52-0.38h0.64
											l-0.52,0.38L9.74,38.03z"/>
									</g>
									<g>
										<path id="s_00000047775847797091188150000015265641055257030826_" class="st16" d="M9.74,39.21l0.2,0.61l-0.52-0.38h0.64
											l-0.52,0.38L9.74,39.21z"/>
									</g>
									<g>
										<path id="s_00000019676352711749013970000017985996397025200814_" class="st16" d="M9.74,40.39L9.93,41l-0.52-0.38h0.64
											L9.54,41L9.74,40.39z"/>
									</g>
								</g>
							</g>
						</g>
					</g>
				</g>
			</g>
			<g>
				<g id="s9_00000054963266716173429800000012872916869249933239_">
					<g id="s5_00000157282953200005993850000009767949814606302385_">
						<g id="s4_00000096047977484073559720000002429496701914784916_">
							<path id="s_00000016786349356003020940000017017875791440552852_" class="st16" d="M10.43,36.25l0.2,0.61l-0.52-0.38h0.64
								l-0.52,0.38L10.43,36.25z"/>
							<g>
								<path id="s_00000011009974422510504260000012113213138057065862_" class="st16" d="M10.43,37.43l0.2,0.61l-0.52-0.38h0.64
									l-0.52,0.38L10.43,37.43z"/>
							</g>
							<g>
								<path id="s_00000118388819882128542230000008540191957063109767_" class="st16" d="M10.43,38.62l0.2,0.61l-0.52-0.38h0.64
									l-0.52,0.38L10.43,38.62z"/>
							</g>
							<g>
								<path id="s_00000070817845273427940450000009854136779282595761_" class="st16" d="M10.43,39.8l0.2,0.61l-0.52-0.38h0.64
									l-0.52,0.38L10.43,39.8z"/>
							</g>
						</g>
						<g>
							<path id="s_00000002355079632592617920000005185415981386450846_" class="st16" d="M10.43,40.98l0.2,0.61l-0.52-0.38h0.64
								l-0.52,0.38L10.43,40.98z"/>
						</g>
					</g>
					<g>
						<g id="s4_00000140717637200809154960000016327777096091762090_">
							<path id="s_00000011733212736309295670000012447930949988824232_" class="st16" d="M11.13,36.84l0.2,0.61l-0.52-0.38h0.64
								l-0.52,0.38L11.13,36.84z"/>
							<g>
								<path id="s_00000078039503809644696560000006816715598989086625_" class="st16" d="M11.13,38.03l0.2,0.61l-0.52-0.38h0.64
									l-0.52,0.38L11.13,38.03z"/>
							</g>
							<g>
								<path id="s_00000060001308547322151320000011479515965794074301_" class="st16" d="M11.13,39.21l0.2,0.61l-0.52-0.38h0.64
									l-0.52,0.38L11.13,39.21z"/>
							</g>
							<g>
								<path id="s_00000011006252332667673810000016209258227230763660_" class="st16" d="M11.13,40.39l0.2,0.61l-0.52-0.38h0.64
									L10.93,41L11.13,40.39z"/>
							</g>
						</g>
					</g>
				</g>
			</g>
			<g>
				<g id="s5_00000150818934284846488500000002988890607894701730_">
					<g id="s4_00000051358385521842314390000014755627985901178018_">
						<path id="s_00000175317626004436319310000007182583239443250583_" class="st16" d="M11.82,36.25l0.2,0.61l-0.52-0.38h0.64
							l-0.52,0.38L11.82,36.25z"/>
						<g>
							<path id="s_00000091733860016163492010000014990517494150481824_" class="st16" d="M11.82,37.43l0.2,0.61l-0.52-0.38h0.64
								l-0.52,0.38L11.82,37.43z"/>
						</g>
						<g>
							<path id="s_00000018953418891177725060000009385514692261858233_" class="st16" d="M11.82,38.62l0.2,0.61l-0.52-0.38h0.64
								l-0.52,0.38L11.82,38.62z"/>
						</g>
						<g>
							<path id="s_00000057125849420561756750000014699267808550391209_" class="st16" d="M11.82,39.8l0.2,0.61l-0.52-0.38h0.64
								l-0.52,0.38L11.82,39.8z"/>
						</g>
					</g>
					<g>
						<path id="s_00000031912212889031380890000017464046052045034886_" class="st16" d="M11.82,40.98l0.2,0.61l-0.52-0.38h0.64
							l-0.52,0.38L11.82,40.98z"/>
					</g>
				</g>
			</g>
		</g>
	</g>
	<g>
		<path class="st16" d="M66.17,26.29h18.21v12.14H66.17V26.29z"/>
		<path class="st17" d="M66.17,26.29h18.21v4.05H66.17V26.29z"/>
		<path class="st18" d="M66.17,34.39h18.21v4.05H66.17V34.39z"/>
		<circle class="st19" cx="75.28" cy="32.37" r="1.87"/>
		<circle class="st16" cx="75.28" cy="32.37" r="1.62"/>
		<circle class="st19" cx="75.49" cy="30.76" r="0.07"/>
		<circle class="st19" cx="75.07" cy="33.97" r="0.07"/>
		<circle class="st19" cx="75.9" cy="30.87" r="0.07"/>
		<circle class="st19" cx="74.66" cy="33.86" r="0.07"/>
		<circle class="st19" cx="76.26" cy="31.08" r="0.07"/>
		<circle class="st19" cx="74.29" cy="33.65" r="0.07"/>
		<circle class="st19" cx="76.56" cy="31.38" r="0.07"/>
		<circle class="st19" cx="73.99" cy="33.35" r="0.07"/>
		<circle class="st19" cx="76.77" cy="31.75" r="0.07"/>
		<circle class="st19" cx="73.78" cy="32.99" r="0.07"/>
		<circle class="st19" cx="76.88" cy="32.15" r="0.07"/>
		<circle class="st19" cx="73.67" cy="32.58" r="0.07"/>
		<circle class="st19" cx="76.88" cy="32.58" r="0.07"/>
		<circle class="st19" cx="73.67" cy="32.15" r="0.07"/>
		<circle class="st19" cx="76.77" cy="32.99" r="0.07"/>
		<circle class="st19" cx="73.78" cy="31.75" r="0.07"/>
		<circle class="st19" cx="76.56" cy="33.35" r="0.07"/>
		<circle class="st19" cx="73.99" cy="31.38" r="0.07"/>
		<circle class="st19" cx="76.26" cy="33.65" r="0.07"/>
		<circle class="st19" cx="74.29" cy="31.08" r="0.07"/>
		<circle class="st19" cx="75.9" cy="33.86" r="0.07"/>
		<circle class="st19" cx="74.66" cy="30.87" r="0.07"/>
		<circle class="st19" cx="75.49" cy="33.97" r="0.07"/>
		<path class="st19" d="M75.89,32.59l0.96,0.19l-0.93-0.31l-0.34-0.05c0-0.02,0.02-0.03,0.02-0.04l0.33,0.04l0.97-0.06l-0.97-0.06
			l-0.33,0.04c0-0.02-0.01-0.03-0.02-0.04l0.34-0.05l0.93-0.31l-0.96,0.19l-0.32,0.13c0-0.01-0.01-0.03-0.02-0.04l0.32-0.14
			l0.81-0.54l-0.87,0.43l-0.27,0.21c-0.01-0.01-0.01-0.03-0.02-0.04l0.26-0.2l0.65-0.73l-0.73,0.65l-0.2,0.26
			c-0.01-0.01-0.03-0.01-0.04-0.02l0.21-0.27l0.43-0.87l-0.54,0.81l-0.14,0.32c-0.01-0.01-0.03-0.01-0.04-0.02l0.13-0.32l0.19-0.96
			l-0.31,0.93l-0.05,0.34c-0.02,0-0.03-0.02-0.04-0.02l0.04-0.33l-0.06-0.97l-0.06,0.97l0.04,0.33c-0.02,0-0.03,0.01-0.04,0.02
			l-0.05-0.34l-0.31-0.93l0.19,0.96l0.13,0.32c-0.01,0-0.03,0.01-0.04,0.02l-0.14-0.32l-0.54-0.81l0.43,0.87l0.21,0.27
			c-0.01,0.01-0.03,0.01-0.04,0.02l-0.2-0.26l-0.73-0.65l0.65,0.73l0.26,0.2c-0.01,0.01-0.01,0.03-0.02,0.04l-0.27-0.21l-0.87-0.43
			l0.81,0.54l0.32,0.14C75,32.24,75,32.26,74.99,32.27l-0.32-0.13l-0.96-0.19l0.93,0.31l0.34,0.05c0,0.02-0.02,0.03-0.02,0.04
			l-0.33-0.04l-0.97,0.06l0.97,0.06l0.33-0.04c0,0.02,0.01,0.03,0.02,0.04l-0.34,0.05l-0.93,0.31l0.96-0.19l0.32-0.13
			c0,0.01,0.01,0.03,0.02,0.04l-0.32,0.14l-0.81,0.54l0.87-0.43l0.27-0.21c0.01,0.01,0.01,0.03,0.02,0.04l-0.26,0.2l-0.65,0.73
			l0.73-0.65l0.2-0.26c0.01,0.01,0.03,0.01,0.04,0.02l-0.21,0.27l-0.43,0.87l0.54-0.81l0.14-0.32c0.01,0.01,0.03,0.01,0.04,0.02
			l-0.13,0.32l-0.19,0.96L75.17,33l0.05-0.34c0.02,0,0.03,0.02,0.04,0.02l-0.04,0.33l0.06,0.97l0.06-0.97l-0.04-0.33
			c0.02,0,0.03-0.01,0.04-0.02L75.39,33l0.31,0.93l-0.19-0.96l-0.13-0.32c0.01,0,0.03-0.01,0.04-0.02l0.14,0.32l0.54,0.81
			l-0.43-0.87l-0.21-0.27c0.01-0.01,0.03-0.01,0.04-0.02l0.2,0.26l0.73,0.65l-0.65-0.73l-0.26-0.2c0.01-0.01,0.01-0.03,0.02-0.04
			l0.27,0.21l0.87,0.43l-0.81-0.54l-0.32-0.14c0.01-0.01,0.01-0.03,0.02-0.04L75.89,32.59z"/>
		<circle class="st19" cx="75.07" cy="30.76" r="0.07"/>
	</g>
</g>
<g>
	<path class="st20" d="M84.39,26.29v12.14H66.17V26.29H84.39 M84.39,25.76H66.17c-0.3,0-0.54,0.24-0.54,0.54v12.14
		c0,0.3,0.24,0.54,0.54,0.54h18.21c0.3,0,0.54-0.24,0.54-0.54V26.29C84.92,26,84.68,25.76,84.39,25.76L84.39,25.76z"/>
</g>
<g>
	<path class="st20" d="M25.04,36v11H4.17V36H25.04 M25.04,35.45H4.17c-0.3,0-0.55,0.24-0.55,0.55v11c0,0.3,0.24,0.55,0.55,0.55
		h20.86c0.3,0,0.55-0.24,0.55-0.55V36C25.58,35.7,25.34,35.45,25.04,35.45L25.04,35.45z"/>
</g>
</svg>
