<?xml version="1.0" encoding="utf-8"?>
<!-- Generator: Adobe Illustrator 27.9.1, SVG Export Plug-In . SVG Version: 6.00 Build 0)  -->
<svg version="1.1" id="Layer_1" xmlns="http://www.w3.org/2000/svg" xmlns:xlink="http://www.w3.org/1999/xlink" x="0px" y="0px"
	 viewBox="0 0 100 70" style="enable-background:new 0 0 100 70;" xml:space="preserve">
<style type="text/css">
	.st0{fill:#E9262D;}
	.st1{fill:#1E4A99;}
</style>
<g>
	<path class="st0" d="M88.14,40.16H12.2c-2.96,0-5.36-2.4-5.36-5.36v0c0-2.96,2.4-5.36,5.36-5.36h75.94c2.96,0,5.36,2.4,5.36,5.36v0
		C93.5,37.76,91.1,40.16,88.14,40.16z"/>
</g>
<g>
	<path class="st1" d="M88.14,17.98H12.2c-2.96,0-5.36-2.4-5.36-5.36v0c0-2.96,2.4-5.36,5.36-5.36h75.94c2.96,0,5.36,2.4,5.36,5.36v0
		C93.5,15.58,91.1,17.98,88.14,17.98z"/>
</g>
<g>
	<path class="st1" d="M88.14,62.35H12.2c-2.96,0-5.36-2.4-5.36-5.36v0c0-2.96,2.4-5.36,5.36-5.36h75.94c2.96,0,5.36,2.4,5.36,5.36v0
		C93.5,59.95,91.1,62.35,88.14,62.35z"/>
</g>
</svg>
